<svg xmlns="http://www.w3.org/2000/svg" xmlns:xlink="http://www.w3.org/1999/xlink" width="60" zoomAndPan="magnify" viewBox="0 0 45 44.999999" height="60" preserveAspectRatio="xMidYMid meet" version="1.0"><defs><clipPath id="1343616cad"><path d="M 11.453125 22 L 22 22 L 22 34 L 11.453125 34 Z M 11.453125 22 " clip-rule="nonzero"/></clipPath><clipPath id="af7f2e26bd"><path d="M 22 22 L 33.203125 22 L 33.203125 34 L 22 34 Z M 22 22 " clip-rule="nonzero"/></clipPath><clipPath id="c9d312b5bf"><path d="M 22 34 L 33.203125 34 L 33.203125 45 L 22 45 Z M 22 34 " clip-rule="nonzero"/></clipPath><clipPath id="b66f6efb1e"><path d="M 11.453125 34 L 30 34 L 30 45 L 11.453125 45 Z M 11.453125 34 " clip-rule="nonzero"/></clipPath><clipPath id="ff0a3d5423"><path d="M 11.453125 0 L 33.203125 0 L 33.203125 43 L 11.453125 43 Z M 11.453125 0 " clip-rule="nonzero"/></clipPath></defs><g clip-path="url(#1343616cad)"><path fill="#0468b1" d="M 11.453125 22.867188 L 21.96875 22.867188 L 21.96875 33.546875 L 11.453125 33.546875 Z M 11.453125 22.867188 " fill-opacity="1" fill-rule="nonzero"/></g><path fill="#ffffff" d="M 14.136719 24.5625 L 14.136719 28.757812 C 14.136719 30.96875 15.222656 31.777344 16.675781 31.777344 C 18.195312 31.777344 19.285156 30.894531 19.285156 28.683594 L 19.285156 24.488281 L 18.414062 24.488281 L 18.414062 28.757812 C 18.414062 30.304688 17.691406 31.042969 16.675781 31.042969 C 15.730469 31.042969 15.007812 30.378906 15.007812 28.757812 L 15.007812 24.5625 Z M 14.136719 24.5625 " fill-opacity="1" fill-rule="nonzero"/><g clip-path="url(#af7f2e26bd)"><path fill="#0468b1" d="M 22.621094 22.867188 L 33.132812 22.867188 L 33.132812 33.546875 L 22.621094 33.546875 Z M 22.621094 22.867188 " fill-opacity="1" fill-rule="nonzero"/></g><path fill="#ffffff" d="M 26.097656 31.777344 L 26.097656 28.757812 C 26.097656 27.582031 26.097656 26.695312 26.027344 25.8125 C 26.390625 26.625 26.824219 27.433594 27.332031 28.167969 L 29.578125 31.777344 L 30.523438 31.777344 L 30.523438 24.710938 L 29.722656 24.710938 L 29.722656 27.726562 C 29.722656 28.832031 29.722656 29.714844 29.871094 30.671875 C 29.578125 29.9375 29.144531 29.199219 28.636719 28.316406 L 26.390625 24.707031 L 25.375 24.707031 L 25.375 31.851562 Z M 26.097656 31.777344 " fill-opacity="1" fill-rule="nonzero"/><g clip-path="url(#c9d312b5bf)"><path fill="#0468b1" d="M 22.621094 34.207031 L 33.132812 34.207031 L 33.132812 44.882812 L 22.621094 44.882812 Z M 22.621094 34.207031 " fill-opacity="1" fill-rule="nonzero"/></g><path fill="#ffffff" d="M 29.652344 36.492188 C 29.21875 36.121094 28.566406 35.902344 27.621094 35.902344 C 26.898438 35.902344 26.316406 35.976562 25.882812 36.046875 L 25.882812 43.117188 L 26.753906 43.117188 L 26.753906 40.246094 C 26.96875 40.320312 27.1875 40.320312 27.476562 40.320312 C 28.347656 40.320312 29.144531 40.023438 29.578125 39.507812 C 29.941406 39.140625 30.160156 38.625 30.160156 37.964844 C 30.304688 37.375 30.085938 36.859375 29.652344 36.492188 " fill-opacity="1" fill-rule="nonzero"/><g clip-path="url(#b66f6efb1e)"><path fill="#0468b1" d="M 27.621094 39.582031 C 27.332031 39.582031 27.042969 39.582031 26.824219 39.507812 L 26.824219 36.785156 C 26.96875 36.785156 27.257812 36.710938 27.695312 36.710938 C 28.710938 36.710938 29.363281 37.152344 29.363281 38.109375 C 29.363281 39.066406 28.710938 39.582031 27.621094 39.582031 M 11.453125 34.207031 L 21.96875 34.207031 L 21.96875 44.882812 L 11.453125 44.882812 Z M 11.453125 34.207031 " fill-opacity="1" fill-rule="nonzero"/></g><path fill="#ffffff" d="M 18.847656 36.785156 C 18.269531 36.195312 17.328125 35.902344 16.023438 35.902344 C 15.296875 35.902344 14.644531 35.976562 14.066406 36.046875 L 14.066406 43.117188 C 14.5 43.191406 15.078125 43.191406 15.730469 43.191406 C 17.109375 43.191406 18.195312 42.824219 18.847656 42.160156 C 19.503906 41.496094 19.863281 40.539062 19.863281 39.433594 C 19.863281 38.183594 19.503906 37.375 18.847656 36.785156 " fill-opacity="1" fill-rule="nonzero"/><g clip-path="url(#ff0a3d5423)"><path fill="#0468b1" d="M 15.949219 42.382812 C 15.585938 42.382812 15.222656 42.382812 15.007812 42.308594 L 15.007812 36.710938 C 15.222656 36.636719 15.585938 36.5625 16.09375 36.5625 C 18.050781 36.5625 18.921875 37.59375 18.921875 39.289062 C 18.921875 41.277344 17.835938 42.453125 15.949219 42.382812 M 11.453125 0.117188 L 33.203125 0.117188 L 33.203125 22.207031 L 11.453125 22.207031 Z M 11.453125 0.117188 " fill-opacity="1" fill-rule="nonzero"/></g><path fill="#ffffff" d="M 30.085938 11.601562 C 29.796875 12.042969 29.363281 12.414062 29.144531 12.929688 C 29.144531 12.558594 29.21875 12.117188 29.070312 11.824219 C 28.855469 11.085938 28.636719 10.425781 28.566406 9.539062 L 28.566406 9.246094 C 28.710938 10.054688 29.507812 10.644531 29.433594 11.527344 C 29.433594 11.75 29.363281 11.96875 29.289062 12.117188 L 29.289062 12.042969 C 29.433594 11.601562 29.433594 11.160156 29.652344 10.71875 C 29.941406 10.128906 30.230469 9.539062 30.085938 8.804688 C 30.667969 9.6875 30.523438 10.792969 30.085938 11.601562 " fill-opacity="1" fill-rule="nonzero"/><path fill="#ffffff" d="M 29.652344 7.039062 C 30.160156 7.773438 30.304688 8.878906 29.871094 9.6875 C 29.722656 10.054688 29.652344 10.425781 29.578125 10.792969 C 29.578125 10.71875 29.578125 10.644531 29.507812 10.570312 C 29.363281 9.761719 28.566406 9.171875 28.273438 8.511719 C 28.128906 8.289062 28.128906 8.066406 28.058594 7.699219 C 28.347656 8.289062 29.144531 8.582031 29.433594 9.320312 C 29.578125 9.46875 29.507812 9.6875 29.578125 9.910156 C 29.433594 9.171875 29.507812 8.511719 29.578125 7.847656 C 29.578125 7.480469 29.507812 7.109375 29.363281 6.816406 C 29.433594 6.742188 29.507812 6.890625 29.652344 7.039062 " fill-opacity="1" fill-rule="nonzero"/><path fill="#ffffff" d="M 29.289062 6.890625 C 29.433594 7.480469 29.21875 8.066406 29.363281 8.730469 C 29 8.066406 28.347656 7.773438 27.839844 7.257812 C 27.550781 6.964844 27.40625 6.523438 27.40625 6.152344 C 27.695312 6.816406 28.417969 6.964844 28.855469 7.550781 C 29 7.699219 29 7.847656 29.144531 7.996094 C 28.925781 7.480469 28.78125 6.890625 28.710938 6.226562 L 28.273438 5.566406 C 28.710938 5.710938 29.144531 6.300781 29.289062 6.890625 " fill-opacity="1" fill-rule="nonzero"/><path fill="#ffffff" d="M 27.765625 5.492188 C 28.203125 5.933594 28.347656 6.375 28.492188 6.890625 L 28.566406 7.039062 C 27.984375 6.59375 27.40625 5.933594 26.96875 5.34375 L 26.535156 4.828125 C 26.898438 4.976562 27.40625 5.121094 27.765625 5.492188 M 19.71875 4.976562 C 20.515625 4.535156 21.460938 4.386719 22.328125 4.3125 C 24.503906 4.3125 26.605469 5.636719 27.550781 7.625 C 28.128906 8.804688 28.347656 10.425781 27.984375 11.75 C 27.550781 13.371094 26.246094 14.914062 24.722656 15.578125 C 22.980469 16.386719 20.589844 16.242188 19.066406 15.136719 C 16.964844 13.738281 16.09375 11.160156 16.746094 8.65625 C 17.109375 7.183594 18.269531 5.636719 19.71875 4.976562 M 18.050781 4.976562 C 17.617188 5.34375 17.328125 5.859375 16.964844 6.300781 C 16.675781 6.59375 16.3125 6.890625 15.949219 7.183594 C 16.167969 6.742188 16.167969 6.300781 16.457031 6.007812 C 16.820312 5.34375 17.472656 5.195312 18.050781 4.976562 " fill-opacity="1" fill-rule="nonzero"/><path fill="#ffffff" d="M 15.660156 6.300781 C 15.804688 6.007812 16.09375 5.859375 16.457031 5.785156 C 15.878906 6.226562 15.949219 6.890625 15.730469 7.550781 C 15.660156 7.699219 15.585938 7.996094 15.515625 8.140625 C 15.660156 7.921875 15.804688 7.699219 15.949219 7.40625 C 16.382812 6.964844 16.964844 6.742188 17.183594 6.152344 C 17.183594 6.964844 16.53125 7.550781 15.878906 7.996094 C 15.585938 8.214844 15.371094 8.4375 15.222656 8.804688 L 15.222656 8.214844 C 15.296875 7.550781 15.222656 6.742188 15.660156 6.300781 " fill-opacity="1" fill-rule="nonzero"/><path fill="#ffffff" d="M 14.570312 8.582031 C 14.570312 7.847656 14.863281 7.332031 15.222656 6.816406 C 14.789062 7.480469 15.152344 8.363281 15.078125 9.097656 L 15.007812 9.910156 C 15.007812 9.761719 15.007812 9.761719 15.078125 9.613281 C 15.222656 8.953125 15.730469 8.511719 16.167969 8.066406 C 16.3125 7.921875 16.3125 7.847656 16.382812 7.699219 C 16.3125 7.996094 16.238281 8.363281 16.09375 8.65625 C 15.730469 9.394531 15.007812 9.984375 14.933594 10.792969 C 15.007812 10.054688 14.425781 9.394531 14.570312 8.582031 " fill-opacity="1" fill-rule="nonzero"/><path fill="#ffffff" d="M 14.210938 9.613281 L 14.425781 8.953125 C 14.28125 9.835938 14.863281 10.570312 15.078125 11.308594 L 15.296875 12.191406 C 15.007812 11.382812 15.441406 10.570312 15.878906 9.835938 C 16.023438 9.6875 16.023438 9.46875 16.09375 9.246094 C 16.167969 9.613281 16.023438 10.054688 15.949219 10.425781 C 15.804688 10.867188 15.660156 11.457031 15.515625 11.898438 C 15.371094 12.191406 15.441406 12.558594 15.515625 12.855469 C 15.222656 12.265625 14.570312 11.75 14.425781 11.085938 C 14.210938 10.71875 14.066406 10.128906 14.210938 9.613281 " fill-opacity="1" fill-rule="nonzero"/><path fill="#ffffff" d="M 14.136719 11.382812 C 14.210938 12.339844 15.222656 12.855469 15.730469 13.738281 C 15.878906 13.886719 15.949219 14.03125 16.167969 14.179688 C 16.167969 14.03125 16.023438 14.03125 16.023438 13.886719 C 15.878906 13.515625 15.804688 13.148438 15.878906 12.78125 C 15.949219 12.339844 16.09375 11.824219 16.023438 11.308594 C 16.457031 12.191406 16.3125 13.371094 16.53125 14.328125 C 16.601562 14.546875 16.675781 14.769531 16.820312 14.914062 C 15.949219 14.328125 14.789062 13.8125 14.425781 12.632812 C 14.136719 12.265625 14.136719 11.824219 14.136719 11.382812 " fill-opacity="1" fill-rule="nonzero"/><path fill="#ffffff" d="M 14.71875 13.589844 C 15.152344 14.695312 16.457031 14.769531 17.183594 15.429688 C 17.253906 15.578125 17.472656 15.726562 17.617188 15.726562 C 17.472656 15.578125 17.183594 15.359375 17.109375 15.136719 C 16.675781 14.472656 16.820312 13.515625 16.457031 12.78125 C 16.746094 13.222656 17.035156 13.589844 17.253906 14.105469 C 17.542969 14.84375 17.691406 15.652344 18.34375 16.167969 C 17.617188 15.945312 16.746094 16.019531 16.09375 15.578125 C 15.441406 15.136719 14.789062 14.472656 14.71875 13.589844 " fill-opacity="1" fill-rule="nonzero"/><path fill="#ffffff" d="M 15.949219 15.726562 C 16.746094 16.609375 17.980469 16.316406 18.996094 16.535156 C 19.140625 16.535156 19.285156 16.609375 19.429688 16.609375 C 19.285156 16.535156 19.140625 16.535156 18.996094 16.460938 C 18.195312 16.167969 18.050781 15.359375 17.617188 14.695312 C 18.195312 15.0625 18.632812 15.578125 19.140625 16.09375 C 19.503906 16.386719 19.9375 16.535156 20.445312 16.683594 C 20.300781 16.757812 20.15625 16.683594 20.007812 16.757812 C 19.140625 16.976562 18.269531 17.273438 17.328125 16.976562 C 16.820312 16.683594 16.238281 16.242188 15.949219 15.726562 " fill-opacity="1" fill-rule="nonzero"/><path fill="#ffffff" d="M 26.390625 17.714844 C 25.519531 18.007812 24.648438 17.714844 23.925781 17.199219 C 23.632812 17.050781 23.417969 16.757812 23.054688 16.757812 L 22.691406 16.757812 C 23.34375 17.050781 23.996094 17.492188 24.503906 18.082031 C 24.359375 18.230469 24.285156 18.304688 24.140625 18.375 C 23.632812 17.789062 23.054688 17.273438 22.328125 16.902344 C 22.183594 16.902344 22.113281 17.050781 21.96875 17.050781 C 21.460938 17.417969 20.878906 17.859375 20.515625 18.449219 L 20.15625 18.082031 C 20.734375 17.492188 21.316406 17.050781 21.96875 16.757812 C 21.316406 16.535156 20.878906 17.125 20.371094 17.417969 C 19.792969 17.859375 18.996094 18.007812 18.269531 17.714844 C 17.835938 17.566406 17.472656 17.347656 17.253906 16.976562 C 17.835938 17.417969 18.632812 17.417969 19.285156 17.125 C 20.15625 16.757812 21.023438 16.316406 22.039062 16.535156 C 22.183594 16.535156 22.328125 16.683594 22.472656 16.535156 C 23.273438 16.386719 24.070312 16.460938 24.792969 16.832031 L 25.519531 17.125 C 26.171875 17.347656 26.898438 17.273438 27.550781 16.902344 C 27.113281 17.347656 26.824219 17.640625 26.390625 17.714844 " fill-opacity="1" fill-rule="nonzero"/><path fill="#ffffff" d="M 27.332031 16.832031 C 26.316406 17.199219 25.375 16.757812 24.433594 16.609375 L 24.285156 16.609375 C 24.722656 16.460938 25.15625 16.386719 25.519531 16.019531 C 26.027344 15.503906 26.535156 14.988281 27.113281 14.621094 C 26.679688 15.210938 26.679688 16.019531 25.953125 16.386719 C 25.808594 16.535156 25.519531 16.535156 25.375 16.609375 C 25.664062 16.609375 25.808594 16.460938 26.171875 16.460938 C 27.113281 16.316406 28.203125 16.460938 28.855469 15.652344 C 28.492188 16.167969 27.839844 16.683594 27.332031 16.832031 " fill-opacity="1" fill-rule="nonzero"/><path fill="#ffffff" d="M 27.839844 15.800781 C 27.40625 15.945312 26.824219 15.945312 26.316406 16.167969 C 27.113281 15.429688 27.113281 14.328125 27.621094 13.515625 C 27.765625 13.296875 27.910156 13.074219 28.128906 12.78125 C 27.765625 13.441406 27.984375 14.328125 27.550781 14.988281 C 27.40625 15.285156 27.1875 15.503906 26.96875 15.726562 C 27.042969 15.726562 27.113281 15.652344 27.1875 15.578125 C 27.839844 14.988281 28.566406 14.769531 29.289062 14.253906 C 29.578125 14.03125 29.796875 13.8125 29.941406 13.441406 C 29.871094 14.546875 28.78125 15.503906 27.839844 15.800781 " fill-opacity="1" fill-rule="nonzero"/><path fill="#ffffff" d="M 29.070312 14.03125 C 28.636719 14.253906 28.273438 14.472656 27.984375 14.84375 C 28.566406 13.886719 28.273438 12.558594 28.636719 11.527344 L 28.78125 11.160156 C 28.710938 11.824219 29 12.339844 28.925781 13 C 28.925781 13.441406 28.78125 13.738281 28.566406 14.105469 C 28.855469 13.738281 29 13.296875 29.363281 13 C 29.871094 12.558594 30.378906 11.96875 30.449219 11.308594 C 30.667969 12.414062 30.015625 13.441406 29.070312 14.03125 " fill-opacity="1" fill-rule="nonzero"/><path fill="#0468b1" d="M 24.722656 13.957031 C 24.941406 13.8125 25.15625 13.664062 25.300781 13.515625 L 25.15625 13.515625 C 25.011719 13.515625 25.011719 13.371094 25.011719 13.371094 L 24.648438 13 L 24.648438 12.929688 C 24.648438 13 24.578125 13.074219 24.503906 13.074219 C 24.503906 13.148438 24.503906 13.222656 24.578125 13.222656 C 24.722656 13.296875 24.867188 13.371094 24.867188 13.441406 C 24.792969 13.589844 24.578125 13.664062 24.722656 13.886719 C 24.792969 13.886719 24.648438 13.886719 24.722656 13.957031 M 22.691406 9.171875 C 22.765625 9.246094 22.835938 9.171875 22.835938 9.097656 C 22.910156 9.097656 22.980469 9.171875 22.980469 9.246094 L 23.128906 9.246094 C 23.128906 9.023438 23.488281 9.097656 23.5625 8.804688 L 23.488281 8.804688 C 23.488281 8.804688 23.417969 8.804688 23.417969 8.730469 L 23.5625 8.582031 C 23.273438 8.4375 23.054688 8.289062 22.765625 8.214844 C 22.621094 8.214844 22.546875 8.214844 22.402344 8.140625 C 22.472656 8.289062 22.402344 8.582031 22.472656 8.730469 L 22.621094 8.804688 C 22.691406 8.65625 22.765625 8.65625 22.835938 8.582031 L 22.980469 8.582031 L 22.980469 8.804688 C 22.980469 9.097656 22.765625 9.097656 22.691406 9.171875 M 25.738281 11.160156 C 25.59375 11.601562 25.445312 11.96875 25.230469 12.265625 C 25.085938 12.414062 25.085938 12.558594 24.941406 12.632812 L 25.230469 12.855469 L 25.230469 12.78125 C 25.230469 12.78125 25.230469 12.707031 25.300781 12.707031 C 25.445312 12.707031 25.445312 12.855469 25.445312 12.855469 C 25.445312 13 25.519531 13 25.519531 13.148438 C 26.246094 12.339844 26.605469 11.382812 26.679688 10.351562 L 26.753906 10.277344 L 25.882812 10.277344 C 25.882812 10.425781 25.882812 10.644531 25.808594 10.792969 L 25.953125 10.941406 L 25.953125 11.085938 C 25.808594 11.234375 25.808594 11.234375 25.738281 11.160156 M 25.011719 8.582031 C 24.867188 8.4375 24.792969 8.214844 24.578125 8.066406 C 24.285156 8.363281 23.996094 8.65625 23.78125 8.953125 L 23.851562 9.023438 C 23.851562 8.953125 23.925781 8.878906 23.925781 8.878906 C 23.996094 8.730469 24.070312 8.878906 24.214844 8.878906 L 24.648438 8.878906 C 24.792969 8.953125 24.792969 9.023438 24.867188 9.097656 L 24.867188 9.246094 C 24.867188 9.46875 25.011719 9.171875 25.085938 9.246094 C 25.15625 9.246094 25.230469 9.246094 25.230469 9.320312 C 25.230469 9.46875 25.375 9.394531 25.375 9.46875 C 25.375 9.539062 25.300781 9.539062 25.300781 9.539062 C 25.300781 9.6875 25.15625 9.6875 25.230469 9.761719 C 25.375 9.761719 25.375 9.613281 25.445312 9.539062 C 25.375 9.394531 25.375 9.246094 25.300781 9.097656 C 25.15625 9.097656 25.15625 8.953125 25.085938 8.953125 C 24.867188 8.804688 25.085938 8.730469 25.011719 8.582031 M 22.472656 14.695312 C 22.691406 14.621094 22.910156 14.621094 23.199219 14.546875 C 23.128906 14.546875 23.054688 14.546875 23.054688 14.472656 C 22.910156 14.472656 22.910156 14.328125 22.835938 14.179688 C 22.835938 14.105469 22.835938 14.03125 22.910156 13.957031 C 22.835938 13.8125 22.691406 13.957031 22.546875 13.886719 C 22.546875 13.886719 22.472656 13.8125 22.402344 13.8125 L 22.472656 13.886719 L 22.472656 14.695312 M 22.691406 12.414062 C 22.765625 12.414062 22.691406 12.558594 22.765625 12.558594 C 22.910156 12.484375 22.980469 12.707031 23.054688 12.558594 C 23.054688 12.414062 23.199219 12.414062 23.273438 12.414062 C 23.417969 12.339844 23.5625 12.265625 23.5625 12.042969 C 23.417969 12.042969 23.417969 12.117188 23.417969 12.191406 C 23.34375 12.265625 23.273438 12.042969 23.273438 12.117188 L 23.273438 12.191406 C 23.128906 12.339844 23.128906 12.117188 23.054688 12.191406 L 23.054688 12.265625 C 22.980469 12.117188 22.910156 12.191406 22.835938 12.117188 L 22.691406 12.117188 C 22.691406 12.191406 22.546875 12.117188 22.546875 12.191406 C 22.472656 12.191406 22.472656 12.339844 22.402344 12.339844 C 22.257812 12.339844 22.257812 12.484375 22.183594 12.414062 L 22.183594 12.484375 L 22.328125 12.484375 C 22.402344 12.339844 22.546875 12.484375 22.691406 12.414062 M 23.488281 11.308594 C 23.488281 11.382812 23.488281 11.457031 23.5625 11.457031 C 23.707031 11.457031 23.632812 11.601562 23.707031 11.601562 C 23.78125 11.601562 23.707031 11.527344 23.707031 11.457031 C 23.707031 11.308594 23.632812 11.308594 23.488281 11.308594 C 23.5625 11.308594 23.5625 11.308594 23.488281 11.308594 C 23.5625 11.234375 23.5625 11.234375 23.488281 11.308594 M 23.417969 7.183594 C 23.128906 7.039062 22.835938 7.039062 22.472656 7.039062 L 22.472656 7.921875 L 22.546875 7.921875 C 22.980469 7.996094 23.488281 8.140625 23.851562 8.4375 L 23.851562 8.511719 C 23.996094 8.363281 24.140625 8.140625 24.285156 7.996094 L 24.433594 7.921875 L 24.359375 7.921875 C 24.070312 7.550781 23.707031 7.332031 23.417969 7.183594 M 17.980469 10.496094 L 18.050781 11.011719 C 18.050781 11.160156 18.195312 11.457031 18.195312 11.601562 C 18.195312 11.527344 18.195312 11.457031 18.34375 11.457031 C 18.34375 11.382812 18.414062 11.308594 18.34375 11.308594 C 18.34375 11.160156 18.414062 11.011719 18.488281 10.867188 C 18.632812 10.867188 18.632812 10.71875 18.777344 10.644531 C 18.847656 10.644531 18.921875 10.792969 18.921875 10.792969 C 18.777344 10.644531 18.777344 10.496094 18.847656 10.351562 L 17.90625 10.351562 Z M 23.199219 11.898438 C 23.273438 11.824219 23.417969 11.824219 23.417969 11.75 C 23.34375 11.675781 23.34375 11.75 23.199219 11.898438 C 23.128906 11.824219 23.128906 11.898438 23.199219 11.898438 M 25.011719 10.351562 L 25.15625 10.496094 C 25.300781 10.570312 25.15625 10.644531 25.300781 10.71875 C 25.445312 10.792969 25.445312 10.867188 25.445312 11.011719 L 25.445312 10.941406 C 25.519531 10.792969 25.445312 10.570312 25.519531 10.496094 C 25.375 10.425781 25.15625 10.425781 25.011719 10.351562 M 23.851562 12.484375 C 23.996094 12.484375 23.996094 12.632812 24.140625 12.632812 C 24.285156 12.558594 24.433594 12.632812 24.503906 12.558594 C 24.503906 12.414062 24.578125 12.414062 24.648438 12.265625 C 24.722656 12.339844 24.722656 12.414062 24.722656 12.484375 C 24.792969 12.339844 24.867188 12.339844 24.941406 12.191406 C 25.085938 11.898438 25.300781 11.601562 25.375 11.308594 C 25.300781 11.308594 25.230469 11.308594 25.15625 11.382812 C 25.085938 11.382812 25.011719 11.457031 24.867188 11.382812 L 24.792969 11.382812 C 24.792969 11.457031 24.722656 11.527344 24.648438 11.457031 C 24.578125 11.457031 24.578125 11.382812 24.578125 11.308594 L 24.578125 11.457031 C 24.503906 11.527344 24.503906 11.601562 24.433594 11.601562 C 24.359375 11.675781 24.285156 11.675781 24.214844 11.75 C 24.214844 11.898438 24.070312 11.898438 23.996094 11.898438 L 24.140625 11.898438 C 24.285156 11.898438 24.285156 11.75 24.285156 11.75 C 24.359375 11.75 24.433594 11.675781 24.433594 11.75 C 24.503906 11.824219 24.503906 11.898438 24.503906 12.042969 C 24.433594 12.117188 24.503906 12.191406 24.433594 12.339844 C 24.433594 12.484375 24.285156 12.484375 24.285156 12.558594 C 24.214844 12.632812 24.140625 12.632812 24.140625 12.632812 C 23.925781 12.484375 23.707031 12.484375 23.417969 12.484375 C 23.417969 12.484375 23.34375 12.484375 23.417969 12.558594 C 23.632812 12.414062 23.707031 12.414062 23.851562 12.484375 M 22.113281 15.0625 C 20.953125 14.988281 19.9375 14.621094 19.140625 13.738281 L 18.558594 14.328125 C 19.429688 15.136719 20.515625 15.652344 21.675781 15.726562 C 21.820312 15.726562 22.113281 15.726562 22.257812 15.800781 L 22.183594 15.726562 Z M 20.953125 11.898438 C 21.242188 12.117188 21.605469 12.339844 22.039062 12.339844 L 22.039062 12.117188 C 22.039062 12.042969 22.183594 12.042969 22.183594 12.042969 C 22.183594 12.042969 22.257812 11.96875 22.183594 11.96875 C 22.113281 11.96875 22.113281 11.824219 22.113281 11.824219 C 22.113281 11.824219 22.183594 11.824219 22.183594 11.75 C 22.113281 11.675781 22.183594 11.601562 22.183594 11.601562 L 22.257812 11.527344 C 22.113281 11.601562 21.894531 11.527344 21.75 11.382812 L 21.605469 11.234375 L 20.953125 11.898438 M 20.660156 10.941406 C 20.589844 10.941406 20.589844 10.941406 20.660156 10.941406 L 20.515625 10.941406 C 20.515625 10.792969 20.371094 10.867188 20.300781 10.792969 L 20.515625 11.234375 C 20.589844 11.382812 20.660156 11.457031 20.734375 11.601562 C 20.808594 11.457031 20.878906 11.457031 20.953125 11.308594 L 20.953125 11.160156 C 20.953125 11.085938 20.953125 11.011719 20.878906 11.011719 C 20.808594 11.011719 20.878906 11.160156 20.878906 11.160156 L 20.808594 11.160156 C 20.734375 11.160156 20.660156 11.085938 20.660156 11.011719 C 20.734375 11.011719 20.660156 11.011719 20.660156 10.941406 M 21.242188 11.011719 C 21.242188 11.085938 21.167969 11.160156 21.097656 11.160156 C 21.167969 11.085938 21.242188 11.011719 21.316406 11.011719 Z M 22.113281 13.886719 C 21.386719 13.886719 20.808594 13.589844 20.226562 13.148438 C 20.226562 13.222656 20.371094 13.296875 20.300781 13.296875 C 20.226562 13.371094 20.15625 13.371094 20.082031 13.371094 C 19.9375 13.371094 19.792969 13.515625 19.648438 13.515625 C 19.503906 13.589844 19.503906 13.371094 19.355469 13.371094 C 20.15625 14.105469 21.097656 14.472656 22.183594 14.546875 L 22.257812 14.621094 L 22.257812 13.738281 Z M 22.113281 13.886719 " fill-opacity="1" fill-rule="nonzero"/><path fill="#0468b1" d="M 18.921875 13.515625 C 18.777344 13.441406 18.777344 13.371094 18.632812 13.222656 C 18.488281 13.222656 18.488281 13.074219 18.414062 13.074219 L 18.414062 12.929688 L 18.414062 13 C 18.269531 13.074219 18.269531 12.929688 18.195312 12.855469 C 18.050781 12.78125 18.125 12.558594 17.980469 12.632812 C 17.90625 12.632812 17.90625 12.558594 17.835938 12.558594 C 17.691406 12.558594 17.691406 12.414062 17.691406 12.414062 L 17.691406 12.484375 C 17.542969 12.484375 17.542969 12.339844 17.472656 12.339844 L 17.398438 12.339844 C 17.328125 12.265625 17.253906 12.191406 17.253906 12.042969 C 17.109375 11.898438 17.183594 11.75 17.253906 11.601562 C 17.253906 11.601562 17.328125 11.527344 17.328125 11.457031 C 17.328125 11.382812 17.472656 11.382812 17.472656 11.382812 C 17.472656 11.382812 17.542969 11.382812 17.542969 11.457031 C 17.617188 11.457031 17.691406 11.457031 17.691406 11.382812 C 17.761719 11.308594 17.835938 11.308594 17.835938 11.308594 C 17.90625 11.382812 17.90625 11.457031 17.980469 11.457031 L 17.90625 11.382812 C 17.835938 11.085938 17.761719 10.792969 17.761719 10.496094 L 17.761719 10.277344 L 16.746094 10.277344 C 16.820312 11.234375 17.035156 12.042969 17.472656 12.855469 C 17.617188 13.296875 17.980469 13.589844 18.269531 13.957031 L 18.847656 13.371094 Z M 19.863281 6.59375 C 19.71875 6.742188 19.503906 6.890625 19.355469 7.039062 C 19.574219 7.183594 19.792969 7.40625 19.9375 7.550781 L 19.9375 7.625 C 20.371094 7.183594 21.023438 6.890625 21.605469 6.742188 C 21.75 6.742188 21.894531 6.667969 22.039062 6.742188 L 22.039062 5.933594 C 21.242188 5.933594 20.589844 6.226562 19.863281 6.59375 M 19.140625 9.761719 C 19.140625 9.910156 19.140625 10.054688 19.066406 10.203125 C 19.210938 10.128906 19.285156 10.203125 19.429688 10.203125 C 19.355469 10.203125 19.429688 10.054688 19.355469 10.054688 C 19.355469 9.984375 19.355469 9.910156 19.429688 9.835938 C 19.429688 9.6875 19.574219 9.6875 19.574219 9.539062 C 19.574219 9.394531 19.71875 9.46875 19.792969 9.394531 C 19.863281 9.394531 19.792969 9.320312 19.792969 9.246094 C 19.863281 9.171875 19.9375 9.171875 20.007812 9.097656 L 20.15625 8.953125 C 20.300781 8.953125 20.300781 8.730469 20.515625 8.730469 C 20.300781 8.582031 20.082031 8.289062 19.863281 8.140625 C 19.574219 8.582031 19.285156 9.097656 19.140625 9.761719 M 19.285156 10.941406 C 19.285156 10.867188 19.210938 10.867188 19.210938 10.792969 C 19.285156 10.644531 19.210938 10.496094 19.355469 10.496094 C 19.210938 10.496094 19.210938 10.570312 19.066406 10.496094 L 19.140625 10.570312 C 19.140625 10.71875 19.210938 10.941406 19.210938 11.160156 C 19.210938 11.011719 19.210938 10.941406 19.285156 10.941406 M 20.082031 13 Z M 20.082031 13 " fill-opacity="1" fill-rule="nonzero"/><path fill="#0468b1" d="M 19.140625 7.257812 L 18.847656 7.699219 C 18.34375 8.4375 18.050781 9.246094 18.050781 10.128906 L 18.921875 10.128906 L 18.921875 10.054688 C 18.996094 9.246094 19.285156 8.4375 19.863281 7.847656 C 19.574219 7.625 19.355469 7.480469 19.140625 7.257812 Z M 21.53125 12.78125 C 21.605469 12.707031 21.675781 12.632812 21.75 12.632812 C 21.460938 12.707031 21.316406 12.484375 21.023438 12.414062 C 20.878906 12.339844 20.734375 12.265625 20.660156 12.117188 C 20.515625 12.339844 20.300781 12.558594 20.082031 12.707031 C 20.226562 12.707031 20.226562 12.855469 20.300781 12.855469 C 20.734375 13.222656 21.316406 13.371094 21.75 13.515625 L 21.605469 13.441406 C 21.460938 13.296875 21.386719 13.148438 21.316406 13 C 21.53125 12.929688 21.53125 12.855469 21.53125 12.78125 M 19.574219 10.425781 L 19.574219 10.570312 C 19.574219 10.71875 19.429688 10.570312 19.429688 10.644531 L 19.429688 10.792969 C 19.355469 10.941406 19.574219 11.011719 19.574219 11.234375 C 19.648438 11.382812 19.574219 11.457031 19.71875 11.601562 C 19.71875 11.75 19.71875 12.042969 19.863281 12.191406 L 19.863281 12.339844 C 19.863281 12.484375 19.71875 12.484375 19.71875 12.484375 C 19.71875 12.484375 19.792969 12.484375 19.792969 12.558594 C 20.007812 12.265625 20.226562 12.042969 20.589844 11.75 L 20.445312 11.601562 C 20.300781 11.308594 20.082031 10.941406 20.007812 10.570312 L 19.9375 10.496094 C 19.9375 10.644531 19.863281 10.644531 19.863281 10.792969 C 19.792969 10.792969 19.71875 10.71875 19.71875 10.71875 C 19.71875 10.71875 19.648438 10.644531 19.71875 10.570312 L 19.792969 10.570312 L 19.792969 10.425781 C 19.792969 10.351562 19.71875 10.277344 19.792969 10.277344 C 19.863281 10.277344 19.9375 10.351562 19.9375 10.425781 C 20.007812 10.425781 20.082031 10.425781 20.082031 10.351562 C 20.082031 10.277344 20.15625 10.203125 20.082031 10.203125 C 20.15625 10.054688 20.082031 9.984375 20.082031 9.835938 C 20.007812 9.761719 19.9375 9.835938 19.863281 9.835938 C 19.648438 9.910156 19.9375 10.054688 19.863281 10.277344 C 19.71875 10.496094 19.648438 10.351562 19.574219 10.425781 M 26.96875 10.425781 C 26.898438 11.457031 26.535156 12.265625 26.027344 13.074219 C 25.882812 13.222656 25.882812 13.371094 25.664062 13.441406 C 25.882812 13.589844 26.097656 13.886719 26.316406 14.105469 C 27.1875 13.074219 27.695312 11.898438 27.695312 10.496094 L 27.695312 10.425781 Z M 19.140625 6.890625 C 20.007812 6.078125 20.953125 5.636719 22.113281 5.566406 L 22.113281 4.679688 C 20.953125 4.753906 19.9375 5.121094 18.996094 5.785156 C 18.847656 5.933594 18.703125 6.078125 18.488281 6.226562 C 18.777344 6.375 18.996094 6.59375 19.140625 6.890625 M 22.113281 7.039062 C 21.386719 7.109375 20.734375 7.40625 20.15625 7.847656 C 20.371094 7.996094 20.589844 8.289062 20.734375 8.4375 C 20.734375 8.4375 20.734375 8.363281 20.808594 8.363281 C 21.097656 8.214844 21.386719 7.996094 21.675781 7.921875 C 21.820312 7.921875 21.96875 7.847656 22.113281 7.847656 Z M 22.113281 8.140625 C 21.605469 8.214844 21.242188 8.4375 20.878906 8.804688 L 20.953125 8.804688 C 21.023438 8.878906 21.097656 8.878906 21.167969 8.953125 C 21.167969 9.023438 21.097656 9.023438 21.097656 9.097656 L 21.167969 9.097656 C 21.242188 9.097656 21.242188 9.097656 21.242188 9.023438 C 21.316406 8.953125 21.316406 9.097656 21.386719 9.097656 L 21.53125 9.097656 C 21.605469 9.023438 21.675781 9.097656 21.675781 9.023438 C 21.820312 8.878906 21.75 8.804688 21.820312 8.730469 C 21.894531 8.730469 21.820312 8.804688 21.820312 8.878906 C 21.96875 8.953125 21.96875 8.804688 22.113281 8.878906 L 22.113281 8.140625 M 22.183594 9.46875 C 22.039062 9.613281 21.96875 9.613281 21.820312 9.6875 C 21.75 9.761719 21.820312 9.835938 21.675781 9.835938 C 21.675781 9.910156 21.53125 9.984375 21.53125 9.984375 C 21.460938 10.128906 21.53125 10.203125 21.460938 10.351562 C 21.316406 10.496094 21.316406 10.203125 21.242188 10.203125 L 21.023438 10.203125 C 20.953125 10.277344 20.878906 10.351562 20.953125 10.351562 C 20.953125 10.425781 20.808594 10.351562 20.808594 10.496094 C 20.953125 10.496094 20.953125 10.496094 21.097656 10.425781 L 21.242188 10.425781 C 21.242188 10.425781 21.316406 10.425781 21.316406 10.496094 C 21.386719 10.496094 21.386719 10.351562 21.386719 10.351562 C 21.386719 10.277344 21.460938 10.277344 21.53125 10.277344 C 21.605469 10.277344 21.53125 10.351562 21.53125 10.351562 C 21.675781 10.425781 21.53125 10.496094 21.460938 10.570312 C 21.460938 10.644531 21.460938 10.71875 21.316406 10.71875 L 21.316406 10.644531 C 21.316406 10.71875 21.316406 10.792969 21.386719 10.792969 C 21.460938 10.71875 21.460938 10.644531 21.53125 10.644531 C 21.605469 10.570312 21.53125 10.496094 21.605469 10.425781 C 21.75 10.425781 21.894531 10.351562 22.039062 10.496094 L 22.039062 10.644531 C 22.039062 10.71875 21.96875 10.792969 21.894531 10.792969 L 21.894531 10.941406 C 21.820312 11.085938 21.675781 11.085938 21.53125 11.085938 C 21.675781 11.234375 21.96875 11.234375 22.183594 11.234375 C 22.328125 11.234375 22.257812 11.085938 22.328125 11.011719 C 22.402344 10.867188 22.546875 10.941406 22.691406 10.867188 C 22.765625 10.71875 22.835938 10.71875 22.835938 10.570312 C 22.691406 10.496094 22.691406 10.425781 22.691406 10.351562 C 22.621094 10.277344 22.621094 10.203125 22.546875 10.203125 L 22.546875 10.128906 C 22.546875 10.054688 22.621094 10.054688 22.621094 9.984375 C 22.546875 9.910156 22.546875 9.835938 22.546875 9.835938 C 22.402344 9.835938 22.402344 9.6875 22.328125 9.6875 C 22.328125 9.613281 22.183594 9.613281 22.183594 9.539062 C 22.039062 9.613281 22.039062 9.394531 21.894531 9.394531 L 21.894531 9.246094 C 21.96875 9.171875 22.039062 9.246094 22.039062 9.246094 L 21.96875 9.246094 C 21.894531 9.171875 21.820312 9.246094 21.75 9.246094 C 22.183594 9.394531 22.113281 9.394531 22.183594 9.46875 " fill-opacity="1" fill-rule="nonzero"/><path fill="#0468b1" d="M 17.691406 10.128906 L 17.691406 9.984375 C 17.761719 9.023438 18.050781 8.214844 18.558594 7.480469 C 18.703125 7.332031 18.777344 7.109375 18.996094 7.039062 L 18.414062 6.449219 C 17.617188 7.40625 17.035156 8.511719 16.964844 9.6875 C 16.964844 9.835938 16.964844 10.054688 16.890625 10.203125 C 17.109375 10.054688 17.472656 10.054688 17.691406 10.128906 M 25.59375 13.664062 C 25.519531 13.8125 25.300781 13.957031 25.15625 14.105469 C 25.011719 14.253906 24.722656 14.328125 24.578125 14.621094 C 24.433594 14.769531 24.433594 14.84375 24.285156 14.914062 C 24.214844 15.0625 24.140625 15.0625 23.996094 15.136719 C 23.78125 15.359375 23.5625 14.988281 23.417969 14.988281 L 22.980469 15.0625 C 22.835938 15.0625 22.691406 15.136719 22.546875 15.0625 L 22.546875 15.945312 L 22.621094 15.945312 C 23.996094 15.875 25.230469 15.359375 26.246094 14.402344 L 25.59375 13.8125 Z M 22.472656 5.492188 C 22.546875 5.417969 22.546875 5.417969 22.621094 5.492188 L 22.621094 5.636719 L 22.691406 5.636719 C 23.34375 5.710938 23.996094 5.859375 24.503906 6.226562 C 24.648438 6.152344 24.792969 6.078125 24.867188 6.226562 C 25.011719 6.152344 25.011719 6.375 25.15625 6.375 C 25.230469 6.375 25.375 6.59375 25.375 6.742188 C 25.375 6.816406 25.519531 6.890625 25.519531 6.890625 C 25.664062 6.742188 25.808594 6.523438 25.953125 6.375 L 26.097656 6.300781 C 25.230469 5.492188 24.140625 4.976562 23.054688 4.828125 C 22.910156 4.828125 22.621094 4.828125 22.472656 4.753906 L 22.472656 5.492188 " fill-opacity="1" fill-rule="nonzero"/><path fill="#0468b1" d="M 22.472656 6.742188 C 22.621094 6.667969 22.691406 6.742188 22.835938 6.742188 C 23.417969 6.890625 23.925781 7.039062 24.433594 7.40625 C 24.359375 7.332031 24.285156 7.257812 24.285156 7.183594 C 24.285156 7.039062 24.140625 7.039062 24.140625 6.964844 L 24.214844 6.964844 C 24.359375 7.109375 24.359375 7.109375 24.433594 7.257812 C 24.503906 7.257812 24.578125 7.257812 24.578125 7.332031 C 24.578125 7.40625 24.578125 7.480469 24.722656 7.550781 C 24.722656 7.699219 24.941406 7.847656 24.941406 7.996094 C 24.941406 8.066406 25.011719 7.996094 25.011719 7.996094 L 25.15625 8.214844 L 25.15625 8.363281 C 25.230469 8.363281 25.300781 8.289062 25.300781 8.289062 C 25.445312 8.363281 25.300781 8.4375 25.300781 8.511719 L 25.445312 8.511719 C 25.445312 8.582031 25.375 8.65625 25.375 8.65625 C 25.375 8.730469 25.445312 8.730469 25.519531 8.730469 C 25.59375 8.730469 25.59375 8.804688 25.59375 8.878906 C 25.738281 9.023438 25.519531 9.171875 25.59375 9.320312 C 25.664062 9.46875 25.59375 9.46875 25.519531 9.613281 C 25.519531 9.761719 25.375 9.761719 25.375 9.910156 L 25.230469 9.910156 C 25.15625 9.984375 25.300781 10.054688 25.230469 10.128906 L 25.519531 10.128906 C 25.445312 9.984375 25.519531 9.835938 25.59375 9.6875 C 25.664062 9.539062 25.664062 9.46875 25.738281 9.394531 C 25.738281 9.394531 25.808594 9.320312 25.808594 9.394531 C 25.808594 9.539062 25.808594 9.613281 25.738281 9.6875 C 25.882812 9.835938 25.808594 9.984375 25.882812 10.128906 L 26.753906 10.128906 L 26.753906 10.054688 C 26.679688 9.539062 26.605469 8.953125 26.390625 8.511719 C 26.316406 8.511719 26.246094 8.582031 26.246094 8.511719 C 26.246094 8.511719 26.171875 8.511719 26.246094 8.4375 C 26.097656 8.289062 26.097656 8.214844 25.953125 8.066406 C 25.808594 8.066406 25.738281 7.921875 25.59375 7.921875 C 25.445312 7.921875 25.519531 7.699219 25.375 7.773438 C 25.300781 7.773438 25.230469 7.625 25.230469 7.625 C 25.230469 7.480469 25.230469 7.332031 25.085938 7.183594 C 24.941406 7.109375 24.941406 7.332031 24.867188 7.257812 C 24.792969 7.257812 24.867188 7.109375 24.792969 7.109375 C 24.792969 7.039062 24.722656 7.039062 24.722656 6.964844 C 24.867188 6.816406 24.578125 6.816406 24.578125 6.59375 C 24.578125 6.449219 24.433594 6.449219 24.359375 6.300781 C 23.925781 6.152344 23.488281 5.933594 22.980469 5.859375 C 22.835938 5.859375 22.765625 5.859375 22.621094 5.785156 L 22.621094 5.859375 C 22.472656 6.226562 22.472656 6.449219 22.472656 6.742188 " fill-opacity="1" fill-rule="nonzero"/><path fill="#0468b1" d="M 25.59375 7.039062 C 25.664062 7.039062 25.664062 7.183594 25.738281 7.183594 C 25.953125 7.332031 26.027344 7.550781 26.171875 7.625 C 26.316406 7.847656 26.535156 8.066406 26.535156 8.289062 C 26.753906 8.878906 26.96875 9.394531 26.96875 10.128906 L 27.839844 10.128906 C 27.765625 10.054688 27.839844 9.984375 27.765625 9.835938 C 27.621094 8.511719 27.113281 7.40625 26.246094 6.449219 C 26.097656 6.667969 25.882812 6.890625 25.59375 7.039062 Z M 25.59375 7.039062 " fill-opacity="1" fill-rule="nonzero"/><path fill="#ffffff" d="M 22.546875 5.34375 C 22.546875 5.269531 22.691406 5.34375 22.691406 5.34375 L 23.128906 5.195312 C 23.273438 5.195312 23.488281 5.195312 23.5625 5.34375 C 23.417969 5.492188 23.34375 5.492188 23.199219 5.492188 C 22.980469 5.492188 22.765625 5.566406 22.546875 5.34375 M 25.011719 5.859375 C 25.085938 5.859375 25.15625 5.933594 25.15625 6.007812 C 25.15625 6.078125 25.230469 6.152344 25.15625 6.152344 C 25.011719 6.226562 25.011719 6.007812 24.867188 6.007812 L 24.867188 5.933594 C 24.941406 5.785156 24.941406 5.933594 25.011719 5.859375 " fill-opacity="1" fill-rule="nonzero"/></svg>