<svg xmlns="http://www.w3.org/2000/svg" xmlns:xlink="http://www.w3.org/1999/xlink" width="150" zoomAndPan="magnify" viewBox="0 0 112.5 44.249999" height="59" preserveAspectRatio="xMidYMid meet" version="1.0"><defs><clipPath id="3711afbfee"><path d="M 103 16 L 111.316406 16 L 111.316406 28 L 103 28 Z M 103 16 " clip-rule="nonzero"/></clipPath><clipPath id="cde23e8e65"><path d="M 5 32 L 13 32 L 13 43.511719 L 5 43.511719 Z M 5 32 " clip-rule="nonzero"/></clipPath><clipPath id="097d67ad32"><path d="M 28 32 L 40 32 L 40 43.511719 L 28 43.511719 Z M 28 32 " clip-rule="nonzero"/></clipPath><clipPath id="4108949a45"><path d="M 19 32 L 26 32 L 26 43.511719 L 19 43.511719 Z M 19 32 " clip-rule="nonzero"/></clipPath><clipPath id="a079954561"><path d="M 16 16 L 28 16 L 28 43.511719 L 16 43.511719 Z M 16 16 " clip-rule="nonzero"/></clipPath><clipPath id="58d56ea9ca"><path d="M 85 16 L 87 16 L 87 43.511719 L 85 43.511719 Z M 85 16 " clip-rule="nonzero"/></clipPath><clipPath id="77c2ccb128"><path d="M 87 32 L 96 32 L 96 43.511719 L 87 43.511719 Z M 87 32 " clip-rule="nonzero"/></clipPath><clipPath id="ed270c6c60"><path d="M 58 39 L 61 39 L 61 43.511719 L 58 43.511719 Z M 58 39 " clip-rule="nonzero"/></clipPath><clipPath id="5a4aed1a30"><path d="M 43 32 L 54 32 L 54 43.511719 L 43 43.511719 Z M 43 32 " clip-rule="nonzero"/></clipPath><clipPath id="e89f2d670e"><path d="M 61 39 L 67 39 L 67 43.511719 L 61 43.511719 Z M 61 39 " clip-rule="nonzero"/></clipPath><clipPath id="0708d259b3"><path d="M 65 37 L 76 37 L 76 43.511719 L 65 43.511719 Z M 65 37 " clip-rule="nonzero"/></clipPath><clipPath id="ab04df53a7"><path d="M 73 32 L 82 32 L 82 43.511719 L 73 43.511719 Z M 73 32 " clip-rule="nonzero"/></clipPath></defs><path fill="#fdb714" d="M 50.523438 0.328125 C 52.992188 0.328125 54.972656 1.933594 55.464844 3.945312 L 53.644531 3.945312 C 53.210938 2.773438 51.96875 1.964844 50.523438 1.964844 C 48.382812 1.964844 46.882812 3.570312 46.882812 5.636719 C 46.882812 7.703125 48.382812 9.308594 50.523438 9.308594 C 51.96875 9.308594 53.210938 8.5 53.644531 7.328125 L 55.464844 7.328125 C 54.972656 9.339844 52.992188 10.945312 50.523438 10.945312 C 47.472656 10.945312 45.175781 8.628906 45.175781 5.636719 C 45.175781 2.644531 47.472656 0.328125 50.523438 0.328125 Z M 50.523438 0.328125 " fill-opacity="1" fill-rule="nonzero"/><path fill="#fdb714" d="M 63.117188 0.503906 L 64.589844 0.503906 L 69.066406 10.769531 L 67.304688 10.769531 L 66.136719 8.082031 L 61.542969 8.082031 L 60.386719 10.769531 L 58.636719 10.769531 Z M 65.484375 6.574219 L 63.835938 2.773438 L 62.191406 6.574219 Z M 65.484375 6.574219 " fill-opacity="1" fill-rule="nonzero"/><path fill="#fdb714" d="M 32.082031 16.71875 L 33.773438 16.71875 L 33.773438 26.988281 L 32.082031 26.988281 Z M 32.082031 16.71875 " fill-opacity="1" fill-rule="nonzero"/><path fill="#fdb714" d="M 52.667969 16.71875 L 54.359375 16.71875 L 54.359375 26.988281 L 52.667969 26.988281 Z M 52.667969 16.71875 " fill-opacity="1" fill-rule="nonzero"/><path fill="#fdb714" d="M 91.710938 16.71875 L 94.859375 16.71875 C 97.90625 16.71875 100.234375 18.945312 100.234375 21.851562 C 100.234375 24.757812 97.90625 26.988281 94.859375 26.988281 L 91.710938 26.988281 Z M 94.859375 25.410156 C 97.054688 25.410156 98.511719 23.863281 98.511719 21.851562 C 98.511719 19.84375 97.054688 18.296875 94.859375 18.296875 L 93.398438 18.296875 L 93.398438 25.410156 Z M 94.859375 25.410156 " fill-opacity="1" fill-rule="nonzero"/><g clip-path="url(#3711afbfee)"><path fill="#fdb714" d="M 105.640625 24.035156 C 105.769531 25.078125 106.738281 25.582031 107.675781 25.582031 C 108.644531 25.582031 109.394531 25.09375 109.394531 24.28125 C 109.394531 23.589844 108.949219 23.097656 107.980469 22.777344 L 106.722656 22.359375 C 105.105469 21.839844 104.210938 20.898438 104.210938 19.394531 C 104.195312 17.617188 105.554688 16.546875 107.476562 16.546875 C 109.613281 16.546875 110.78125 18.050781 110.882812 19.480469 L 109.191406 19.480469 C 108.949219 18.511719 108.183594 18.121094 107.445312 18.121094 C 106.59375 18.121094 105.914062 18.570312 105.898438 19.308594 C 105.898438 20.058594 106.378906 20.464844 107.289062 20.769531 L 108.558594 21.171875 C 110.160156 21.695312 111.101562 22.664062 111.101562 24.226562 C 111.101562 25.960938 109.714844 27.160156 107.691406 27.160156 C 105.394531 27.160156 104.019531 25.65625 103.949219 24.035156 Z M 105.640625 24.035156 " fill-opacity="1" fill-rule="nonzero"/></g><g clip-path="url(#cde23e8e65)"><path fill="#fdb714" d="M 12.328125 36.289062 C 12.328125 38.183594 10.882812 39.644531 8.773438 39.644531 L 7.199219 39.644531 L 7.199219 43.203125 L 5.507812 43.203125 L 5.507812 32.933594 L 8.773438 32.933594 C 10.882812 32.9375 12.328125 34.394531 12.328125 36.289062 Z M 10.664062 36.289062 C 10.664062 35.292969 9.957031 34.527344 8.757812 34.527344 L 7.199219 34.527344 L 7.199219 38.054688 L 8.757812 38.054688 C 9.957031 38.054688 10.664062 37.289062 10.664062 36.289062 Z M 10.664062 36.289062 " fill-opacity="1" fill-rule="nonzero"/></g><g clip-path="url(#097d67ad32)"><path fill="#fdb714" d="M 33.855469 43.378906 C 30.90625 43.378906 28.550781 41.035156 28.550781 38.070312 C 28.550781 35.105469 30.90625 32.761719 33.855469 32.761719 C 36.789062 32.761719 39.15625 35.105469 39.15625 38.070312 C 39.15625 41.035156 36.789062 43.378906 33.855469 43.378906 Z M 33.855469 41.742188 C 35.878906 41.742188 37.4375 40.109375 37.4375 38.070312 C 37.4375 36.03125 35.878906 34.394531 33.855469 34.394531 C 31.816406 34.394531 30.257812 36.03125 30.257812 38.070312 C 30.257812 40.109375 31.816406 41.742188 33.855469 41.742188 Z M 33.855469 41.742188 " fill-opacity="1" fill-rule="nonzero"/></g><path fill="#fdb714" d="M 5.753906 0.503906 L 7.226562 0.503906 L 11.703125 10.769531 L 9.941406 10.769531 L 8.773438 8.082031 L 4.179688 8.082031 L 3.023438 10.769531 L 1.273438 10.769531 Z M 8.121094 6.574219 L 6.476562 2.773438 L 4.828125 6.574219 Z M 8.121094 6.574219 " fill-opacity="1" fill-rule="nonzero"/><g clip-path="url(#4108949a45)"><path fill="#fdb714" d="M 23.726562 35.855469 C 23.726562 34.164062 22.527344 32.9375 20.617188 32.9375 L 19.492188 32.9375 L 19.492188 34.496094 L 20.417969 34.496094 C 21.414062 34.496094 22.035156 34.976562 22.035156 35.855469 C 22.035156 36.738281 21.414062 37.214844 20.417969 37.214844 L 19.492188 37.214844 L 19.492188 38.832031 L 23.132812 43.203125 L 25.214844 43.203125 L 21.398438 38.589844 C 22.871094 38.242188 23.726562 37.304688 23.726562 35.855469 Z M 23.726562 35.855469 " fill-opacity="1" fill-rule="nonzero"/></g><g clip-path="url(#a079954561)"><path fill="#fdb714" d="M 27.191406 26.988281 L 27.191406 16.71875 L 25.644531 16.71875 L 22.046875 21.578125 L 18.464844 16.71875 L 16.921875 16.71875 L 16.921875 43.203125 L 18.609375 43.203125 L 18.609375 19.613281 L 22.0625 24.28125 L 25.488281 19.625 L 25.488281 26.988281 Z M 27.191406 26.988281 " fill-opacity="1" fill-rule="nonzero"/></g><g clip-path="url(#58d56ea9ca)"><path fill="#fdb714" d="M 85.1875 16.71875 L 86.878906 16.71875 L 86.878906 43.203125 L 85.1875 43.203125 Z M 85.1875 16.71875 " fill-opacity="1" fill-rule="nonzero"/></g><g clip-path="url(#77c2ccb128)"><path fill="#fdb714" d="M 93.914062 32.9375 L 90.316406 37.792969 L 87.761719 34.328125 L 87.761719 37.023438 L 90.332031 40.5 L 93.753906 35.84375 L 93.753906 43.203125 L 95.460938 43.203125 L 95.460938 32.9375 Z M 93.914062 32.9375 " fill-opacity="1" fill-rule="nonzero"/></g><path fill="#fdb714" d="M 28.222656 7.140625 L 26.53125 7.140625 L 26.53125 10.769531 L 28.222656 10.769531 Z M 28.222656 7.140625 " fill-opacity="1" fill-rule="nonzero"/><path fill="#fdb714" d="M 72.796875 22.503906 L 72.796875 20.984375 L 63.984375 20.984375 L 63.984375 22.574219 Z M 72.796875 22.503906 " fill-opacity="1" fill-rule="nonzero"/><path fill="#fdb714" d="M 73.679688 16.71875 L 73.679688 26.988281 L 75.371094 26.988281 L 75.371094 18.28125 L 77.175781 18.28125 C 78.175781 18.28125 78.796875 18.757812 78.796875 19.640625 C 78.796875 20.523438 78.175781 21 77.175781 21 L 76.253906 21 L 76.253906 22.613281 L 79.894531 26.988281 L 81.972656 26.988281 L 78.160156 22.375 C 79.632812 22.027344 80.484375 21.085938 80.484375 19.640625 C 80.484375 17.949219 79.289062 16.71875 77.378906 16.71875 Z M 73.679688 16.71875 " fill-opacity="1" fill-rule="nonzero"/><path fill="#fdb714" d="M 67.289062 23.4375 C 66.820312 24.707031 65.703125 25.527344 64.128906 25.527344 C 61.976562 25.527344 60.472656 23.921875 60.472656 21.851562 C 60.472656 19.785156 61.976562 18.179688 64.113281 18.179688 C 65.226562 18.179688 66.207031 18.65625 66.800781 19.394531 L 68.820312 19.394531 C 68.070312 17.765625 66.253906 16.546875 64.113281 16.546875 C 61.066406 16.546875 58.769531 18.859375 58.769531 21.851562 C 58.769531 24.847656 61.066406 27.160156 64.128906 27.160156 C 66.460938 27.160156 68.449219 25.847656 69.0625 23.421875 Z M 67.289062 23.4375 " fill-opacity="1" fill-rule="nonzero"/><g clip-path="url(#ed270c6c60)"><path fill="#fdb714" d="M 58.707031 39.597656 L 58.695312 39.597656 L 58.695312 43.203125 L 60.386719 43.203125 L 60.386719 39.574219 Z M 58.707031 39.597656 " fill-opacity="1" fill-rule="nonzero"/></g><g clip-path="url(#5a4aed1a30)"><path fill="#fdb714" d="M 51.714844 39.648438 C 51.25 40.921875 50.132812 41.742188 48.554688 41.742188 C 46.402344 41.742188 44.898438 40.136719 44.898438 38.070312 C 44.898438 36 46.402344 34.394531 48.539062 34.394531 C 49.652344 34.394531 50.632812 34.875 51.226562 35.609375 L 53.246094 35.609375 C 52.496094 33.980469 50.683594 32.761719 48.539062 32.761719 C 45.492188 32.761719 43.195312 35.074219 43.195312 38.070312 C 43.195312 41.0625 45.492188 43.375 48.554688 43.375 C 50.886719 43.375 52.875 42.0625 53.492188 39.632812 Z M 51.714844 39.648438 " fill-opacity="1" fill-rule="nonzero"/></g><g clip-path="url(#e89f2d670e)"><path fill="#fdb714" d="M 63.78125 39.324219 C 63.316406 39.488281 62.800781 39.574219 62.246094 39.574219 L 61.886719 39.574219 L 64.90625 43.203125 L 66.988281 43.203125 Z M 63.78125 39.324219 " fill-opacity="1" fill-rule="nonzero"/></g><path fill="#fdb714" d="M 62.246094 38.691406 C 62.5625 38.691406 62.878906 38.65625 63.175781 38.589844 C 63.722656 38.460938 64.1875 38.25 64.550781 37.960938 C 64.550781 37.960938 64.554688 37.957031 64.554688 37.957031 C 65.164062 37.46875 65.5 36.761719 65.5 35.855469 C 65.5 34.164062 64.300781 32.9375 62.394531 32.9375 L 58.695312 32.9375 L 58.695312 36.320312 L 58.703125 36.320312 L 60.386719 36.332031 L 60.386719 34.496094 L 62.191406 34.496094 C 63.191406 34.496094 63.808594 34.976562 63.808594 35.855469 C 63.808594 36.738281 63.191406 37.214844 62.191406 37.214844 L 48.410156 37.203125 L 48.410156 38.792969 Z M 62.246094 38.691406 " fill-opacity="1" fill-rule="nonzero"/><path fill="#fdb714" d="M 15.90625 7.140625 L 17.59375 7.140625 L 17.59375 10.769531 L 15.90625 10.769531 Z M 15.90625 7.140625 " fill-opacity="1" fill-rule="nonzero"/><path fill="#fdb714" d="M 28.222656 2.0625 L 30.03125 2.0625 C 31.027344 2.0625 31.648438 2.542969 31.648438 3.421875 C 31.648438 4.011719 31.367188 4.414062 30.886719 4.621094 L 31.894531 5.839844 C 32.820312 5.367188 33.339844 4.550781 33.339844 3.421875 C 33.339844 1.730469 32.136719 0.503906 30.230469 0.503906 L 26.53125 0.503906 L 26.53125 3.898438 L 28.222656 3.898438 Z M 28.222656 2.0625 " fill-opacity="1" fill-rule="nonzero"/><path fill="#fdb714" d="M 29.875 4.785156 L 17.59375 4.769531 L 17.59375 2.121094 L 22 2.121094 L 22 0.503906 L 15.90625 0.503906 L 15.90625 6.257812 L 28.988281 6.257812 L 32.746094 10.769531 L 34.828125 10.769531 Z M 29.875 4.785156 " fill-opacity="1" fill-rule="nonzero"/><g clip-path="url(#0708d259b3)"><path fill="#fdb714" d="M 72.417969 43.203125 L 72.421875 43.199219 L 73.574219 40.511719 L 73.578125 40.511719 L 74.226562 39.007812 L 74.917969 37.410156 L 75.007812 37.203125 L 66.148438 37.210938 C 65.921875 37.820312 65.539062 38.332031 65.007812 38.722656 L 72.597656 38.785156 L 70.671875 43.203125 Z M 72.417969 43.203125 " fill-opacity="1" fill-rule="nonzero"/></g><g clip-path="url(#ab04df53a7)"><path fill="#fdb714" d="M 76.625 32.9375 L 75.148438 32.9375 L 73.675781 36.320312 L 75.390625 36.320312 L 75.871094 35.207031 L 77.519531 39.007812 L 75.1875 39.007812 L 74.539062 40.511719 L 78.167969 40.511719 L 79.339844 43.203125 L 81.101562 43.203125 Z M 76.625 32.9375 " fill-opacity="1" fill-rule="nonzero"/></g><path fill="#fdb714" d="M 38.664062 18.867188 L 38.664062 26.988281 L 40.355469 26.988281 L 40.355469 21.03125 Z M 38.664062 18.867188 " fill-opacity="1" fill-rule="nonzero"/><path fill="#fdb714" d="M 46.132812 26.988281 L 47.609375 26.988281 L 47.609375 16.71875 L 45.902344 16.71875 L 45.902344 24.078125 L 40.355469 16.996094 L 40.355469 0.503906 L 38.664062 0.503906 L 38.664062 17.433594 Z M 46.132812 26.988281 " fill-opacity="1" fill-rule="nonzero"/></svg>