<svg xmlns="http://www.w3.org/2000/svg" xmlns:xlink="http://www.w3.org/1999/xlink" width="450" zoomAndPan="magnify" viewBox="0 0 337.5 225" height="300" preserveAspectRatio="xMidYMid meet" version="1.0"><defs><clipPath id="cfa117fe49"><path d="M 0 0.167969 L 337 0.167969 L 337 224.832031 L 0 224.832031 Z M 0 0.167969 " clip-rule="nonzero"/></clipPath><clipPath id="10739c7f8a"><path d="M 63.355469 11.820312 L 267.355469 11.820312 L 267.355469 215.820312 L 63.355469 215.820312 Z M 63.355469 11.820312 " clip-rule="nonzero"/></clipPath></defs><g clip-path="url(#cfa117fe49)"><path fill="#ffffff" d="M 0 0.167969 L 337.5 0.167969 L 337.5 1155.167969 L 0 1155.167969 Z M 0 0.167969 " fill-opacity="1" fill-rule="nonzero"/><path fill="#ffffff" d="M 0 0.167969 L 337.5 0.167969 L 337.5 225.167969 L 0 225.167969 Z M 0 0.167969 " fill-opacity="1" fill-rule="nonzero"/><path fill="#ffffff" d="M 0 0.167969 L 337.5 0.167969 L 337.5 225.167969 L 0 225.167969 Z M 0 0.167969 " fill-opacity="1" fill-rule="nonzero"/></g><path fill="#bcb9ad" d="M 139.046875 145.980469 C 138.285156 144.445312 137.402344 142.992188 136.394531 141.640625 C 134.910156 139.628906 133.171875 137.832031 131.230469 136.285156 C 125.523438 131.746094 118.085938 129.378906 110.28125 130.28125 C 102.472656 131.179688 95.761719 135.164062 91.230469 140.882812 C 86.695312 146.601562 84.34375 154.054688 85.238281 161.882812 C 86.132812 169.714844 90.109375 176.4375 95.8125 180.984375 C 100.238281 184.503906 105.710938 186.71875 111.582031 187.113281 C 126.378906 183.53125 135.246094 172.277344 138.402344 156.421875 L 138.402344 156.417969 C 141.449219 153.941406 141.519531 150.410156 139.050781 145.980469 Z M 114.445312 166.710938 C 109.992188 167.222656 105.972656 164.019531 105.460938 159.558594 C 104.953125 155.097656 108.148438 151.066406 112.597656 150.558594 C 117.046875 150.042969 121.066406 153.246094 121.578125 157.710938 C 122.089844 162.171875 118.894531 166.203125 114.445312 166.710938 Z M 114.445312 166.710938 " fill-opacity="1" fill-rule="nonzero"/><path fill="#655f68" d="M 121.996094 52.199219 L 134.238281 32.824219 C 125.636719 28.449219 115.714844 26.6875 105.75 28.199219 L 107.613281 34.027344 C 108.910156 38.0625 106.695312 42.382812 102.671875 43.679688 C 101.894531 43.929688 101.105469 44.050781 100.332031 44.050781 C 97.09375 44.050781 94.085938 41.976562 93.042969 38.722656 L 91.175781 32.898438 C 80.65625 38.277344 72.796875 47.269531 68.648438 57.820312 L 74.613281 59.109375 C 78.746094 60.003906 81.371094 64.089844 80.480469 68.230469 C 79.703125 71.824219 76.535156 74.285156 73.007812 74.285156 C 72.46875 74.285156 71.929688 74.226562 71.382812 74.109375 L 65.410156 72.820312 C 65.128906 78.402344 65.828125 84.128906 67.636719 89.765625 C 69.441406 95.40625 72.203125 100.46875 75.679688 104.84375 L 79.78125 100.304688 C 82.621094 97.164062 87.460938 96.925781 90.59375 99.773438 C 92.261719 101.285156 93.109375 103.371094 93.109375 105.460938 C 93.109375 107.296875 92.453125 109.140625 91.125 110.609375 L 87.027344 115.140625 C 96.527344 121.289062 108.144531 124.007812 119.820312 122.242188 L 117.949219 116.417969 C 116.871094 113.058594 118.230469 109.5 121.035156 107.652344 L 118.664062 99.3125 L 89.234375 82.808594 C 94.90625 66.148438 104.320312 54.09375 121.996094 52.199219 Z M 121.996094 52.199219 " fill-opacity="1" fill-rule="nonzero"/><path fill="#aba49a" d="M 121.996094 52.199219 C 124.328125 56.8125 123.078125 60.328125 119.394531 63.128906 C 116.199219 61.371094 112.316406 60.886719 108.574219 62.09375 C 101.339844 64.421875 97.363281 72.1875 99.6875 79.441406 C 101.707031 85.738281 107.816406 89.578125 114.132812 88.949219 C 120.226562 87.324219 121.984375 89.542969 119.484375 95.398438 C 120.796875 97.226562 119.921875 98.34375 118.664062 99.3125 C 106.160156 102.390625 93.230469 95.289062 89.234375 82.808594 C 85.050781 69.765625 92.203125 55.800781 105.210938 51.609375 C 110.929688 49.769531 116.828125 50.121094 121.996094 52.199219 Z M 121.996094 52.199219 " fill-opacity="1" fill-rule="nonzero"/><path fill="#655f68" d="M 155.789062 136.769531 C 153.113281 129.570312 148.996094 126.960938 143.492188 130.113281 C 141.359375 135.109375 139.847656 140.425781 139.050781 145.980469 C 138.617188 148.984375 138.390625 152.050781 138.390625 155.175781 C 138.390625 155.59375 138.394531 156.007812 138.402344 156.417969 C 141.789062 158.839844 144.320312 157.402344 145.933594 152.066406 L 145.9375 152.066406 L 155.789062 142.433594 C 157.117188 140.816406 157.554688 139.015625 155.789062 136.769531 Z M 155.789062 136.769531 " fill-opacity="1" fill-rule="nonzero"/><path fill="#655f68" d="M 214.363281 92.613281 L 214.359375 92.613281 C 212.589844 91.683594 211.621094 92.613281 211.472656 95.398438 C 208.921875 98.320312 207.5 101.402344 211.859375 103.359375 C 213.6875 103.707031 215.484375 104.152344 217.242188 104.683594 C 219.796875 105.460938 221.230469 108.179688 220.410156 110.730469 L 214.21875 130.058594 C 212.511719 135.378906 207.574219 138.988281 201.996094 138.988281 C 199.207031 138.988281 196.582031 138.085938 194.433594 136.519531 C 192.292969 134.949219 190.632812 132.714844 189.78125 130.058594 L 189.316406 128.617188 C 182.5625 127.097656 175.847656 126.859375 175.167969 136.769531 C 170.398438 138.734375 170.679688 140.617188 175.167969 142.433594 C 179.78125 154.492188 185.273438 162.847656 194.042969 157.433594 C 193.839844 156.714844 193.730469 155.960938 193.730469 155.175781 C 193.730469 150.601562 197.433594 146.890625 201.996094 146.890625 C 206.5625 146.890625 210.261719 150.601562 210.261719 155.175781 C 210.261719 159.753906 206.5625 163.460938 201.996094 163.460938 C 201.851562 163.460938 201.703125 163.457031 201.558594 163.449219 L 201.546875 163.457031 C 212.449219 173.417969 223.027344 188.953125 228.78125 213.03125 L 228.785156 213.03125 C 250.53125 202.898438 265.605469 180.800781 265.605469 155.175781 C 265.605469 124.199219 243.578125 98.382812 214.363281 92.613281 Z M 246.332031 173.636719 L 227.054688 167.429688 C 221.742188 165.714844 218.148438 160.765625 218.148438 155.175781 C 218.148438 152.378906 219.046875 149.75 220.609375 147.59375 C 222.171875 145.445312 224.402344 143.78125 227.054688 142.929688 L 246.332031 136.714844 C 248.875 135.898438 251.59375 137.332031 252.363281 139.898438 C 253.820312 144.734375 254.609375 149.863281 254.609375 155.175781 C 254.609375 160.492188 253.820312 165.625 252.363281 170.460938 C 251.59375 173.023438 248.875 174.457031 246.332031 173.636719 Z M 246.332031 173.636719 " fill-opacity="1" fill-rule="nonzero"/><path fill="#ef9d26" d="M 142.808594 26.65625 L 128.820312 38.933594 C 125.992188 42.789062 123.691406 47.226562 121.996094 52.199219 C 120.835938 55.597656 119.960938 59.242188 119.394531 63.128906 C 118.953125 66.167969 118.699219 69.351562 118.648438 72.671875 C 126.574219 73.023438 139.140625 70.277344 152.425781 60.304688 C 159.304688 49.011719 158.492188 36.378906 152.425781 22.832031 C 149.023438 23.746094 145.804688 25.023438 142.808594 26.65625 Z M 142.808594 26.65625 " fill-opacity="1" fill-rule="nonzero"/><path fill="#ef9d26" d="M 202.136719 38.933594 L 188.148438 26.65625 C 185.152344 25.023438 181.933594 23.746094 178.53125 22.832031 C 172.242188 35.859375 171.847656 48.382812 178.53125 60.304688 C 190.535156 70.132812 203.503906 72.566406 212.308594 72.671875 C 212.101562 58.898438 208.398438 47.484375 202.136719 38.933594 Z M 202.136719 38.933594 " fill-opacity="1" fill-rule="nonzero"/><path fill="#1498b7" d="M 228.78125 213.03125 C 223.027344 188.953125 212.449219 173.417969 201.546875 163.457031 C 199.046875 161.167969 196.527344 159.171875 194.042969 157.433594 C 190.941406 155.265625 187.898438 153.5 185.019531 152.066406 L 165.480469 157.917969 L 145.9375 152.066406 L 145.933594 152.066406 C 143.519531 153.269531 140.988281 154.707031 138.402344 156.417969 L 138.402344 156.421875 C 129.195312 162.527344 119.308594 172.132812 111.582031 187.113281 C 107.679688 194.683594 104.328125 203.632812 101.898438 214.203125 L 229.058594 214.203125 C 228.972656 213.808594 228.878906 213.421875 228.78125 213.03125 Z M 228.78125 213.03125 " fill-opacity="1" fill-rule="nonzero"/><path fill="#1ea6bc" d="M 185.019531 152.066406 C 185.566406 158.304688 183.65625 168.371094 183.65625 168.371094 C 178.53125 163.289062 172.601562 159.589844 165.480469 157.917969 C 164.476562 149.496094 167.941406 144.515625 175.167969 142.433594 C 175.167969 142.433594 182.601562 143.945312 184.457031 149.140625 C 184.742188 149.933594 184.921875 150.9375 185.019531 152.066406 Z M 185.019531 152.066406 " fill-opacity="1" fill-rule="nonzero"/><path fill="#1ea6bc" d="M 155.789062 142.433594 C 161.644531 146.679688 164.707031 151.898438 165.480469 157.917969 C 158.355469 159.589844 152.425781 163.289062 147.300781 168.371094 C 147.300781 168.371094 145.394531 158.304688 145.9375 152.066406 C 146.035156 150.9375 146.214844 149.933594 146.5 149.140625 C 148.355469 143.945312 155.789062 142.433594 155.789062 142.433594 Z M 155.789062 142.433594 " fill-opacity="1" fill-rule="nonzero"/><path fill="#f7b6ad" d="M 211.472656 95.398438 C 212.492188 89.042969 210.371094 87.195312 205.140625 89.816406 C 196.5625 97.144531 194.941406 105.109375 200.660156 112.476562 L 200.664062 112.476562 C 205.019531 113.003906 209.574219 109.8125 211.464844 104.625 C 211.617188 104.203125 211.75 103.785156 211.859375 103.359375 C 212.589844 100.566406 212.40625 97.75 211.472656 95.398438 Z M 211.472656 95.398438 " fill-opacity="1" fill-rule="nonzero"/><path fill="#f7b6ad" d="M 125.816406 89.816406 C 121.179688 87.226562 118.460938 88.015625 119.484375 95.398438 C 119.007812 96.601562 118.726562 97.925781 118.664062 99.3125 C 118.585938 101.035156 118.847656 102.851562 119.492188 104.625 C 119.894531 105.730469 120.417969 106.746094 121.035156 107.652344 C 123.316406 111.003906 126.863281 112.890625 130.292969 112.476562 L 130.296875 112.476562 C 136.007812 105.539062 133.839844 97.632812 125.816406 89.816406 Z M 125.816406 89.816406 " fill-opacity="1" fill-rule="nonzero"/><path fill="#fec4b9" d="M 195.699219 74.980469 C 188.234375 72.039062 178.085938 64.640625 165.480469 64.640625 C 152.871094 64.640625 142.722656 72.039062 135.257812 74.980469 L 125.347656 79.855469 C 119.601562 83.652344 119.003906 87.035156 125.816406 89.816406 C 126.660156 98.488281 128.226562 106.46875 130.296875 112.476562 C 131.171875 115.023438 132.140625 117.21875 133.183594 118.957031 C 135.28125 122.464844 138.890625 126.574219 143.492188 130.113281 C 147.070312 132.867188 151.253906 135.269531 155.789062 136.769531 L 155.789062 142.433594 L 165.480469 157.917969 L 175.167969 142.433594 L 175.167969 136.769531 C 180.507812 135.003906 185.359375 131.984375 189.316406 128.617188 C 193.035156 125.449219 195.964844 121.976562 197.773438 118.957031 C 198.816406 117.21875 199.785156 115.023438 200.660156 112.476562 C 202.730469 106.46875 204.296875 98.488281 205.140625 89.816406 C 209.59375 86.570312 209.179688 83.238281 205.609375 79.855469 Z M 195.699219 74.980469 " fill-opacity="1" fill-rule="nonzero"/><path fill="#f9b132" d="M 202.136719 38.933594 C 202.660156 43.542969 201.96875 48.152344 200.070312 52.761719 C 199.074219 55.179688 196.351562 56.390625 193.886719 55.535156 C 191.878906 54.839844 190.5625 52.945312 190.5625 50.835938 C 190.5625 50.730469 190.5625 50.628906 190.570312 50.523438 C 191.132812 41.289062 190.414062 33.246094 188.148438 26.65625 C 193.617188 29.625 198.347656 33.757812 202.136719 38.933594 Z M 202.136719 38.933594 " fill-opacity="1" fill-rule="nonzero"/><path fill="#f9b132" d="M 140.386719 50.523438 C 140.394531 50.628906 140.394531 50.730469 140.394531 50.835938 C 140.394531 52.945312 139.078125 54.839844 137.070312 55.535156 C 134.605469 56.390625 131.882812 55.179688 130.886719 52.761719 C 128.988281 48.152344 128.296875 43.542969 128.820312 38.933594 C 130.453125 36.699219 132.265625 34.660156 134.238281 32.824219 C 136.832031 30.40625 139.699219 28.34375 142.808594 26.65625 C 140.542969 33.246094 139.824219 41.289062 140.386719 50.523438 Z M 140.386719 50.523438 " fill-opacity="1" fill-rule="nonzero"/><path fill="#f9b132" d="M 169.859375 13.441406 L 161.097656 13.441406 C 156.304688 13.441406 152.425781 17.335938 152.425781 22.136719 L 152.425781 60.304688 C 161.128906 63.546875 169.828125 63.546875 178.53125 60.304688 L 178.53125 22.136719 C 178.53125 17.335938 174.652344 13.441406 169.859375 13.441406 Z M 169.859375 13.441406 " fill-opacity="1" fill-rule="nonzero"/><path fill="#ffc05a" d="M 212.308594 72.671875 C 205.511719 66.605469 193.269531 62.027344 178.53125 60.304688 C 174.359375 59.8125 169.984375 59.554688 165.480469 59.554688 C 160.972656 59.554688 156.597656 59.8125 152.425781 60.304688 C 137.6875 62.027344 125.445312 66.605469 118.648438 72.671875 C 114.953125 75.972656 112.867188 79.714844 112.867188 83.679688 C 112.867188 85.488281 113.304688 87.253906 114.132812 88.949219 C 115.242188 91.234375 117.0625 93.40625 119.484375 95.398438 C 120.421875 93.035156 122.113281 91.144531 124.390625 90.226562 C 124.867188 90.039062 125.328125 89.914062 125.816406 89.816406 C 125.539062 86.632812 125.367188 83.285156 125.347656 79.855469 C 125.347656 79.847656 125.34375 79.839844 125.34375 79.828125 C 125.34375 79.828125 125.34375 79.828125 125.347656 79.828125 L 125.347656 79.824219 C 129.375 82.605469 132.546875 80.195312 135.257812 74.980469 C 142.722656 72.039062 152.871094 69.453125 165.480469 69.453125 C 178.085938 69.453125 188.234375 72.039062 195.699219 74.980469 C 198.871094 78.878906 202.171875 80.589844 205.609375 79.824219 L 205.609375 79.828125 C 205.613281 79.828125 205.613281 79.828125 205.613281 79.828125 C 205.613281 79.839844 205.609375 79.847656 205.609375 79.855469 C 205.589844 83.285156 205.417969 86.632812 205.140625 89.816406 C 205.628906 89.914062 206.089844 90.039062 206.566406 90.226562 C 208.84375 91.144531 210.535156 93.035156 211.472656 95.398438 C 212.558594 94.503906 213.527344 93.570312 214.359375 92.613281 L 214.363281 92.613281 C 216.765625 89.847656 218.089844 86.832031 218.089844 83.679688 C 218.089844 79.714844 216.003906 75.972656 212.308594 72.671875 Z M 212.308594 72.671875 " fill-opacity="1" fill-rule="nonzero"/><path fill="#ad6a6a" d="M 205.609375 79.824219 L 205.609375 79.828125 C 205.609375 79.839844 205.609375 79.847656 205.609375 79.855469 C 204.664062 85.898438 201.632812 90.578125 196.644531 93.992188 C 197.148438 87.347656 196.910156 80.980469 195.699219 74.980469 C 199.84375 76.617188 203.164062 78.355469 205.609375 79.824219 Z M 205.609375 79.824219 " fill-opacity="1" fill-rule="nonzero"/><path fill="#ad6a6a" d="M 135.257812 74.980469 C 134.046875 80.980469 133.808594 87.347656 134.3125 93.992188 C 129.324219 90.578125 126.292969 85.898438 125.347656 79.855469 C 125.347656 79.847656 125.347656 79.839844 125.347656 79.828125 L 125.347656 79.824219 C 127.792969 78.355469 131.113281 76.617188 135.257812 74.980469 Z M 135.257812 74.980469 " fill-opacity="1" fill-rule="nonzero"/><path fill="#0d87a3" d="M 127.902344 187.457031 L 127.902344 214.203125 L 112.402344 214.203125 C 120.429688 214.203125 122.25 194.410156 122.644531 187.3125 C 122.71875 185.910156 123.871094 184.816406 125.269531 184.816406 C 126.722656 184.816406 127.902344 186 127.902344 187.457031 Z M 127.902344 187.457031 " fill-opacity="1" fill-rule="nonzero"/><path fill="#0d87a3" d="M 203.0625 187.511719 L 203.0625 214.261719 L 218.5625 214.261719 C 210.535156 214.261719 208.714844 194.464844 208.324219 187.371094 C 208.246094 185.96875 207.09375 184.875 205.695312 184.875 C 204.242188 184.875 203.0625 186.054688 203.0625 187.511719 Z M 203.0625 187.511719 " fill-opacity="1" fill-rule="nonzero"/><path fill="#f7b6ad" d="M 175.167969 136.769531 L 175.167969 142.433594 C 164.90625 146.945312 155.789062 140.871094 155.789062 140.871094 L 155.789062 136.769531 C 158.882812 137.789062 162.136719 138.386719 165.480469 138.386719 C 168.820312 138.386719 172.074219 137.789062 175.167969 136.769531 Z M 175.167969 136.769531 " fill-opacity="1" fill-rule="nonzero"/><path fill="#3a322b" d="M 184.863281 89.816406 C 184.863281 90.246094 184.78125 90.660156 184.617188 91.054688 C 184.453125 91.453125 184.21875 91.804688 183.917969 92.105469 C 183.613281 92.410156 183.265625 92.644531 182.867188 92.808594 C 182.472656 92.972656 182.0625 93.054688 181.632812 93.054688 C 181.203125 93.054688 180.792969 92.972656 180.394531 92.808594 C 180 92.644531 179.652344 92.410156 179.347656 92.105469 C 179.046875 91.804688 178.8125 91.453125 178.648438 91.054688 C 178.484375 90.660156 178.402344 90.246094 178.402344 89.816406 C 178.402344 89.386719 178.484375 88.972656 178.648438 88.578125 C 178.8125 88.179688 179.046875 87.832031 179.347656 87.527344 C 179.652344 87.222656 180 86.988281 180.394531 86.824219 C 180.792969 86.660156 181.203125 86.578125 181.632812 86.578125 C 182.0625 86.578125 182.472656 86.660156 182.867188 86.824219 C 183.265625 86.988281 183.613281 87.222656 183.917969 87.527344 C 184.21875 87.832031 184.453125 88.179688 184.617188 88.578125 C 184.78125 88.972656 184.863281 89.386719 184.863281 89.816406 Z M 184.863281 89.816406 " fill-opacity="1" fill-rule="nonzero"/><path fill="#3a322b" d="M 178.816406 79.988281 C 178.859375 79.984375 183.078125 79.289062 185.992188 81.351562 C 186.277344 81.550781 186.601562 81.648438 186.921875 81.648438 C 187.429688 81.648438 187.929688 81.40625 188.242188 80.960938 C 188.757812 80.230469 188.582031 79.21875 187.855469 78.703125 C 183.824219 75.859375 178.484375 76.761719 178.261719 76.800781 C 177.382812 76.953125 176.800781 77.792969 176.953125 78.671875 C 177.105469 79.550781 177.941406 80.140625 178.816406 79.988281 Z M 178.816406 79.988281 " fill-opacity="1" fill-rule="nonzero"/><path fill="#3a322b" d="M 152.5625 89.816406 C 152.5625 90.246094 152.480469 90.660156 152.316406 91.054688 C 152.152344 91.453125 151.917969 91.804688 151.617188 92.105469 C 151.3125 92.410156 150.964844 92.644531 150.570312 92.808594 C 150.171875 92.972656 149.761719 93.054688 149.332031 93.054688 C 148.90625 93.054688 148.492188 92.972656 148.097656 92.808594 C 147.703125 92.644531 147.351562 92.410156 147.050781 92.105469 C 146.746094 91.804688 146.511719 91.453125 146.347656 91.054688 C 146.183594 90.660156 146.101562 90.246094 146.101562 89.816406 C 146.101562 89.386719 146.183594 88.972656 146.347656 88.578125 C 146.511719 88.179688 146.746094 87.832031 147.050781 87.527344 C 147.351562 87.222656 147.703125 86.988281 148.097656 86.824219 C 148.492188 86.660156 148.90625 86.578125 149.332031 86.578125 C 149.761719 86.578125 150.171875 86.660156 150.570312 86.824219 C 150.964844 86.988281 151.3125 87.222656 151.617188 87.527344 C 151.917969 87.832031 152.152344 88.179688 152.316406 88.578125 C 152.480469 88.972656 152.5625 89.386719 152.5625 89.816406 Z M 152.5625 89.816406 " fill-opacity="1" fill-rule="nonzero"/><path fill="#3a322b" d="M 152.703125 76.800781 C 152.480469 76.761719 147.140625 75.859375 143.109375 78.703125 C 142.382812 79.21875 142.207031 80.230469 142.71875 80.960938 C 143.035156 81.40625 143.535156 81.648438 144.042969 81.648438 C 144.363281 81.648438 144.6875 81.550781 144.972656 81.351562 C 147.878906 79.296875 152.074219 79.976562 152.148438 79.988281 C 153.027344 80.140625 153.859375 79.554688 154.015625 78.675781 C 154.167969 77.792969 153.582031 76.953125 152.703125 76.800781 Z M 152.703125 76.800781 " fill-opacity="1" fill-rule="nonzero"/><path fill="#3a322b" d="M 170.769531 98.78125 C 171.625 98.539062 172.125 97.644531 171.882812 96.785156 C 171.636719 95.921875 170.746094 95.421875 169.886719 95.667969 C 166.960938 96.496094 164.007812 96.496094 161.078125 95.667969 C 160.21875 95.421875 159.328125 95.921875 159.085938 96.785156 C 158.839844 97.644531 159.339844 98.539062 160.199219 98.78125 C 161.949219 99.277344 163.726562 99.53125 165.484375 99.53125 C 167.238281 99.53125 169.015625 99.277344 170.769531 98.78125 Z M 170.769531 98.78125 " fill-opacity="1" fill-rule="nonzero"/><path fill="#3a322b" d="M 171.699219 172.878906 C 171.699219 173.308594 171.617188 173.71875 171.453125 174.117188 C 171.289062 174.515625 171.054688 174.863281 170.753906 175.167969 C 170.449219 175.472656 170.101562 175.707031 169.703125 175.871094 C 169.308594 176.035156 168.898438 176.117188 168.46875 176.117188 C 168.039062 176.117188 167.628906 176.035156 167.230469 175.871094 C 166.835938 175.707031 166.488281 175.472656 166.183594 175.167969 C 165.882812 174.863281 165.648438 174.515625 165.484375 174.117188 C 165.320312 173.71875 165.238281 173.308594 165.238281 172.878906 C 165.238281 172.449219 165.320312 172.035156 165.484375 171.640625 C 165.648438 171.242188 165.882812 170.890625 166.183594 170.589844 C 166.488281 170.285156 166.835938 170.050781 167.230469 169.886719 C 167.628906 169.722656 168.039062 169.640625 168.46875 169.640625 C 168.898438 169.640625 169.308594 169.722656 169.703125 169.886719 C 170.101562 170.050781 170.449219 170.285156 170.753906 170.589844 C 171.054688 170.890625 171.289062 171.242188 171.453125 171.640625 C 171.617188 172.035156 171.699219 172.449219 171.699219 172.878906 Z M 171.699219 172.878906 " fill-opacity="1" fill-rule="nonzero"/><path fill="#3a322b" d="M 171.699219 188.585938 C 171.699219 189.015625 171.617188 189.429688 171.453125 189.824219 C 171.289062 190.222656 171.054688 190.570312 170.753906 190.875 C 170.449219 191.179688 170.101562 191.414062 169.703125 191.578125 C 169.308594 191.742188 168.898438 191.824219 168.46875 191.824219 C 168.039062 191.824219 167.628906 191.742188 167.230469 191.578125 C 166.835938 191.414062 166.488281 191.179688 166.183594 190.875 C 165.882812 190.570312 165.648438 190.222656 165.484375 189.824219 C 165.320312 189.429688 165.238281 189.015625 165.238281 188.585938 C 165.238281 188.15625 165.320312 187.742188 165.484375 187.347656 C 165.648438 186.949219 165.882812 186.601562 166.183594 186.296875 C 166.488281 185.992188 166.835938 185.757812 167.230469 185.59375 C 167.628906 185.429688 168.039062 185.347656 168.46875 185.347656 C 168.898438 185.347656 169.308594 185.429688 169.703125 185.59375 C 170.101562 185.757812 170.449219 185.992188 170.753906 186.296875 C 171.054688 186.601562 171.289062 186.949219 171.453125 187.347656 C 171.617188 187.742188 171.699219 188.15625 171.699219 188.585938 Z M 171.699219 188.585938 " fill-opacity="1" fill-rule="nonzero"/><path fill="#3a322b" d="M 171.699219 204.292969 C 171.699219 204.722656 171.617188 205.136719 171.453125 205.535156 C 171.289062 205.929688 171.054688 206.28125 170.753906 206.585938 C 170.449219 206.886719 170.101562 207.121094 169.703125 207.285156 C 169.308594 207.449219 168.898438 207.53125 168.46875 207.53125 C 168.039062 207.53125 167.628906 207.449219 167.230469 207.285156 C 166.835938 207.121094 166.488281 206.886719 166.183594 206.585938 C 165.882812 206.28125 165.648438 205.929688 165.484375 205.535156 C 165.320312 205.136719 165.238281 204.722656 165.238281 204.292969 C 165.238281 203.863281 165.320312 203.453125 165.484375 203.054688 C 165.648438 202.660156 165.882812 202.308594 166.183594 202.003906 C 166.488281 201.703125 166.835938 201.46875 167.230469 201.304688 C 167.628906 201.136719 168.039062 201.054688 168.46875 201.054688 C 168.898438 201.054688 169.308594 201.136719 169.703125 201.304688 C 170.101562 201.46875 170.449219 201.703125 170.753906 202.003906 C 171.054688 202.308594 171.289062 202.660156 171.453125 203.054688 C 171.617188 203.453125 171.699219 203.863281 171.699219 204.292969 Z M 171.699219 204.292969 " fill-opacity="1" fill-rule="nonzero"/><g clip-path="url(#10739c7f8a)"><path fill="#3a322b" d="M 217.171875 91.570312 C 218.835938 89.046875 219.703125 86.382812 219.703125 83.675781 C 219.703125 79.496094 217.695312 75.5 213.902344 71.933594 C 213.292969 46.386719 200.738281 27.703125 180.136719 21.613281 C 179.863281 16.167969 175.359375 11.820312 169.859375 11.820312 L 161.097656 11.820312 C 155.597656 11.820312 151.09375 16.167969 150.824219 21.613281 C 144.363281 23.523438 138.695312 26.667969 133.9375 30.878906 C 125.042969 26.609375 115.242188 25.125 105.507812 26.601562 C 105.039062 26.671875 104.625 26.945312 104.375 27.347656 C 104.125 27.75 104.066406 28.246094 104.210938 28.695312 L 106.078125 34.523438 C 106.570312 36.0625 106.4375 37.703125 105.699219 39.140625 C 104.964844 40.578125 103.710938 41.644531 102.175781 42.136719 C 100.640625 42.632812 99.003906 42.5 97.570312 41.761719 C 96.136719 41.019531 95.074219 39.765625 94.578125 38.226562 L 92.710938 32.398438 C 92.566406 31.949219 92.230469 31.582031 91.796875 31.402344 C 91.359375 31.21875 90.863281 31.238281 90.441406 31.453125 C 79.816406 36.890625 71.542969 46.042969 67.148438 57.226562 C 66.976562 57.667969 67.003906 58.164062 67.226562 58.582031 C 67.453125 59.003906 67.847656 59.300781 68.3125 59.402344 L 74.273438 60.691406 C 77.527344 61.398438 79.605469 64.625 78.902344 67.886719 C 78.5625 69.46875 77.628906 70.820312 76.273438 71.699219 C 74.917969 72.574219 73.304688 72.871094 71.726562 72.527344 L 65.753906 71.234375 C 65.289062 71.136719 64.804688 71.242188 64.429688 71.53125 C 64.054688 71.820312 63.824219 72.261719 63.800781 72.734375 C 63.5 78.671875 64.273438 84.566406 66.097656 90.265625 C 67.921875 95.957031 70.722656 101.203125 74.414062 105.851562 C 74.710938 106.222656 75.15625 106.445312 75.628906 106.460938 C 76.09375 106.472656 76.558594 106.28125 76.875 105.929688 L 80.980469 101.390625 C 83.214844 98.917969 87.039062 98.730469 89.507812 100.96875 C 90.703125 102.054688 91.40625 103.542969 91.484375 105.160156 C 91.5625 106.773438 91.011719 108.324219 89.929688 109.519531 L 85.832031 114.054688 C 85.515625 114.40625 85.367188 114.878906 85.425781 115.351562 C 85.488281 115.820312 85.753906 116.242188 86.152344 116.5 C 94.152344 121.679688 103.394531 124.390625 112.769531 124.390625 C 115.195312 124.390625 117.636719 124.210938 120.0625 123.839844 C 120.527344 123.769531 120.941406 123.496094 121.191406 123.09375 C 121.441406 122.691406 121.503906 122.195312 121.355469 121.746094 L 119.488281 115.917969 C 118.8125 113.808594 119.355469 111.53125 120.804688 109.953125 C 123.066406 112.515625 126.089844 114.078125 129.175781 114.140625 C 129.988281 116.332031 130.867188 118.234375 131.800781 119.792969 C 133.726562 123.015625 137.121094 127.015625 141.542969 130.605469 C 140.117188 134.125 139.007812 137.742188 138.21875 141.429688 C 136.546875 139.023438 134.523438 136.84375 132.234375 135.019531 C 125.941406 130.007812 118.078125 127.753906 110.097656 128.671875 C 102.113281 129.589844 94.964844 133.566406 89.964844 139.875 C 84.96875 146.183594 82.71875 154.066406 83.632812 162.066406 C 84.550781 170.070312 88.519531 177.238281 94.808594 182.25 C 98.984375 185.574219 103.878906 187.699219 109.082031 188.46875 C 105.582031 195.6875 102.570312 204.078125 100.324219 213.839844 C 100.214844 214.320312 100.328125 214.824219 100.636719 215.210938 C 100.941406 215.597656 101.40625 215.820312 101.898438 215.820312 L 229.058594 215.820312 C 229.550781 215.820312 230.015625 215.597656 230.320312 215.210938 C 230.609375 214.847656 230.71875 214.382812 230.640625 213.925781 C 241.242188 208.722656 250.238281 200.753906 256.703125 190.796875 C 263.582031 180.195312 267.21875 167.878906 267.21875 155.175781 C 267.222656 124.875 246.320312 98.527344 217.171875 91.570312 Z M 216.472656 83.675781 C 216.472656 86.792969 214.914062 89.917969 211.945312 92.804688 C 210.792969 90.976562 209.171875 89.535156 207.167969 88.726562 C 207.0625 88.683594 206.957031 88.648438 206.851562 88.609375 C 207.003906 86.632812 207.109375 84.671875 207.167969 82.75 C 208.769531 83.828125 209.609375 84.535156 209.644531 84.566406 C 209.949219 84.832031 210.324219 84.960938 210.699219 84.960938 C 211.148438 84.960938 211.601562 84.769531 211.917969 84.402344 C 212.503906 83.726562 212.429688 82.703125 211.753906 82.117188 C 211.082031 81.535156 194.957031 67.832031 165.480469 67.832031 C 136 67.832031 119.875 81.535156 119.203125 82.117188 C 118.527344 82.703125 118.453125 83.726562 119.039062 84.402344 C 119.621094 85.078125 120.640625 85.152344 121.316406 84.566406 C 121.351562 84.535156 122.191406 83.820312 123.789062 82.746094 C 123.847656 84.664062 123.957031 86.625 124.105469 88.609375 C 124 88.648438 123.894531 88.683594 123.789062 88.726562 C 121.785156 89.535156 120.164062 90.976562 119.011719 92.804688 C 116.042969 89.917969 114.484375 86.792969 114.484375 83.675781 C 114.484375 77.90625 119.621094 72.371094 128.949219 68.09375 C 138.679688 63.632812 151.652344 61.175781 165.480469 61.175781 C 179.304688 61.175781 192.277344 63.632812 202.007812 68.09375 C 211.335938 72.371094 216.472656 77.90625 216.472656 83.675781 Z M 197.792969 77.640625 C 200.140625 78.679688 202.152344 79.726562 203.816406 80.675781 C 203.015625 84.578125 201.25 87.8125 198.457031 90.464844 C 198.609375 85.9375 198.382812 81.652344 197.792969 77.640625 Z M 206.535156 92.003906 C 210.203125 93.914062 211.738281 99.15625 209.949219 104.070312 C 208.648438 107.640625 205.875 110.195312 202.90625 110.785156 C 204.488281 105.5625 205.738281 99.144531 206.535156 92.003906 Z M 201.78125 114.140625 C 206.46875 114.046875 211.019531 110.496094 212.957031 105.238281 C 214.242188 105.519531 215.523438 105.851562 216.773438 106.234375 C 217.59375 106.480469 218.265625 107.039062 218.664062 107.796875 C 219.0625 108.554688 219.136719 109.421875 218.875 110.234375 L 212.679688 129.5625 C 211.183594 134.230469 206.890625 137.371094 202 137.371094 C 197.105469 137.371094 192.8125 134.230469 191.316406 129.5625 L 191.171875 129.109375 C 194.738281 125.933594 197.496094 122.574219 199.160156 119.792969 C 200.09375 118.234375 200.96875 116.332031 201.78125 114.140625 Z M 132.5 90.464844 C 129.707031 87.808594 127.941406 84.570312 127.140625 80.667969 C 128.804688 79.714844 130.816406 78.667969 133.164062 77.628906 C 132.574219 81.640625 132.347656 85.933594 132.5 90.464844 Z M 90.769531 82.3125 C 88.878906 76.417969 89.390625 70.140625 92.210938 64.628906 C 95.035156 59.121094 99.828125 55.046875 105.707031 53.152344 C 110.355469 51.652344 115.367188 51.679688 119.980469 53.195312 C 119.230469 55.621094 118.609375 58.144531 118.140625 60.777344 C 114.921875 59.566406 111.421875 59.472656 108.078125 60.550781 C 104.171875 61.808594 100.984375 64.519531 99.109375 68.179688 C 97.234375 71.84375 96.894531 76.015625 98.148438 79.9375 C 100.195312 86.324219 106.210938 90.632812 112.792969 90.632812 C 112.929688 90.632812 113.066406 90.625 113.203125 90.625 C 114.257812 92.46875 115.734375 94.246094 117.613281 95.921875 C 117.417969 96.589844 117.269531 97.277344 117.175781 97.984375 C 105.804688 100.199219 94.351562 93.492188 90.769531 82.3125 Z M 140.117188 30.191406 C 138.753906 35.980469 138.300781 42.828125 138.777344 50.625 C 138.867188 52.128906 137.949219 53.515625 136.542969 54.003906 C 134.875 54.582031 133.046875 53.765625 132.378906 52.144531 C 130.65625 47.957031 129.988281 43.722656 130.382812 39.546875 C 133.125 35.871094 136.390625 32.730469 140.117188 30.191406 Z M 127.164062 44.519531 C 127.445312 47.484375 128.1875 50.445312 129.394531 53.378906 C 130.429688 55.890625 132.867188 57.429688 135.449219 57.429688 C 136.164062 57.429688 136.886719 57.3125 137.597656 57.066406 C 140.367188 56.105469 142.179688 53.375 142 50.429688 C 141.453125 41.441406 142.175781 33.828125 144.144531 27.769531 C 146.246094 26.671875 148.46875 25.746094 150.808594 24.996094 L 150.808594 58.878906 C 142.136719 60.007812 134.175781 62.136719 127.605469 65.148438 C 124.882812 66.398438 122.476562 67.765625 120.402344 69.226562 C 120.980469 59.800781 123.304688 51.449219 127.164062 44.519531 Z M 111.253906 83.675781 C 111.253906 84.914062 111.441406 86.140625 111.792969 87.351562 C 106.992188 86.949219 102.738281 83.664062 101.226562 78.945312 C 100.230469 75.847656 100.5 72.550781 101.984375 69.660156 C 103.464844 66.769531 105.980469 64.628906 109.066406 63.632812 C 111.925781 62.710938 114.933594 62.875 117.644531 64.070312 C 117.320312 66.609375 117.121094 69.234375 117.054688 71.933594 C 113.261719 75.5 111.253906 79.496094 111.253906 83.675781 Z M 203.351562 65.148438 C 196.78125 62.136719 188.820312 60.007812 180.148438 58.878906 L 180.148438 24.996094 C 182.488281 25.746094 184.710938 26.671875 186.8125 27.769531 C 188.78125 33.824219 189.503906 41.441406 188.957031 50.425781 C 188.777344 53.375 190.589844 56.105469 193.359375 57.066406 C 194.070312 57.3125 194.792969 57.429688 195.507812 57.429688 C 198.089844 57.429688 200.527344 55.890625 201.5625 53.378906 C 202.769531 50.445312 203.511719 47.480469 203.792969 44.519531 C 207.652344 51.449219 209.976562 59.800781 210.550781 69.222656 C 208.480469 67.765625 206.074219 66.398438 203.351562 65.148438 Z M 200.574219 39.546875 C 200.972656 43.722656 200.300781 47.957031 198.578125 52.144531 C 197.910156 53.765625 196.082031 54.582031 194.414062 54.003906 C 193.007812 53.519531 192.089844 52.128906 192.179688 50.625 C 192.65625 42.832031 192.203125 35.980469 190.839844 30.191406 C 194.570312 32.730469 197.832031 35.871094 200.574219 39.546875 Z M 161.097656 15.058594 L 169.859375 15.058594 C 173.753906 15.058594 176.917969 18.234375 176.917969 22.136719 L 176.917969 58.503906 C 173.199219 58.132812 169.371094 57.9375 165.476562 57.9375 C 161.585938 57.9375 157.757812 58.136719 154.039062 58.503906 L 154.039062 22.136719 C 154.039062 18.234375 157.207031 15.058594 161.097656 15.058594 Z M 116.414062 116.910156 L 117.6875 120.886719 C 107.910156 121.953125 98.042969 119.8125 89.527344 114.785156 L 92.320312 111.695312 C 93.984375 109.855469 94.832031 107.480469 94.710938 105 C 94.589844 102.519531 93.511719 100.238281 91.675781 98.570312 C 87.890625 95.132812 82.015625 95.421875 78.585938 99.21875 L 75.785156 102.316406 C 72.902344 98.359375 70.683594 93.980469 69.171875 89.273438 C 67.664062 84.5625 66.921875 79.707031 66.96875 74.8125 L 71.042969 75.691406 C 73.460938 76.21875 75.941406 75.765625 78.023438 74.417969 C 80.101562 73.074219 81.535156 70.996094 82.058594 68.570312 C 83.136719 63.5625 79.949219 58.609375 74.953125 57.527344 L 70.890625 56.648438 C 74.890625 47.585938 81.664062 40.085938 90.230469 35.242188 L 91.503906 39.21875 C 92.261719 41.582031 93.890625 43.507812 96.09375 44.640625 C 98.296875 45.773438 100.808594 45.980469 103.164062 45.222656 C 105.523438 44.460938 107.441406 42.828125 108.574219 40.617188 C 109.703125 38.410156 109.910156 35.894531 109.152344 33.53125 L 107.878906 29.554688 C 115.9375 28.671875 123.996094 29.953125 131.425781 33.28125 C 126.964844 37.910156 123.453125 43.585938 121.015625 50.128906 C 115.75 48.390625 110.023438 48.355469 104.71875 50.066406 C 98.015625 52.226562 92.554688 56.875 89.339844 63.152344 C 86.125 69.429688 85.539062 76.585938 87.691406 83.304688 C 91.253906 94.410156 101.625 101.644531 112.816406 101.644531 C 114.234375 101.644531 115.667969 101.523438 117.101562 101.285156 C 117.21875 102.578125 117.503906 103.890625 117.976562 105.183594 C 118.242188 105.910156 118.5625 106.605469 118.921875 107.265625 C 116.332031 109.683594 115.304688 113.449219 116.414062 116.910156 Z M 121.011719 104.070312 C 119.21875 99.15625 120.753906 93.914062 124.421875 92.003906 C 125.214844 99.140625 126.46875 105.5625 128.050781 110.785156 C 125.082031 110.199219 122.308594 107.636719 121.011719 104.070312 Z M 134.566406 118.125 C 131.296875 112.664062 128.628906 102.023438 127.425781 89.679688 C 127.417969 89.601562 127.414062 89.527344 127.40625 89.449219 C 128.960938 91.691406 130.957031 93.65625 133.402344 95.328125 C 133.675781 95.515625 133.992188 95.609375 134.3125 95.609375 C 134.589844 95.609375 134.871094 95.539062 135.121094 95.394531 C 135.65625 95.082031 135.96875 94.488281 135.921875 93.867188 C 135.4375 87.46875 135.699219 81.53125 136.679688 76.1875 C 143.910156 73.4375 153.578125 71.070312 165.480469 71.070312 C 177.359375 71.070312 187.039062 73.441406 194.277344 76.195312 C 195.257812 81.539062 195.519531 87.472656 195.035156 93.867188 C 194.988281 94.488281 195.300781 95.082031 195.835938 95.394531 C 196.085938 95.539062 196.367188 95.609375 196.644531 95.609375 C 196.964844 95.609375 197.28125 95.515625 197.554688 95.328125 C 200 93.65625 201.996094 91.691406 203.550781 89.449219 C 203.542969 89.519531 203.539062 89.589844 203.535156 89.660156 C 202.328125 102.019531 199.65625 112.664062 196.390625 118.125 C 192.074219 125.335938 179.867188 136.769531 165.476562 136.769531 C 151.085938 136.769531 138.882812 125.335938 134.566406 118.125 Z M 175.902344 144.308594 C 177.824219 144.898438 181.792969 146.480469 182.941406 149.6875 C 184.066406 152.832031 183.285156 160.34375 182.5625 165.136719 C 178.074219 161.199219 173.277344 158.488281 168.011719 156.917969 Z M 173.550781 141.96875 L 165.480469 154.871094 L 157.40625 141.96875 L 157.40625 138.933594 C 160 139.613281 162.699219 140.007812 165.480469 140.007812 C 168.257812 140.007812 170.960938 139.613281 173.550781 138.933594 Z M 155.054688 144.308594 L 162.945312 156.917969 C 157.679688 158.488281 152.886719 161.199219 148.394531 165.136719 C 147.671875 160.34375 146.890625 152.832031 148.015625 149.6875 C 149.164062 146.480469 153.136719 144.898438 155.054688 144.308594 Z M 154.175781 137.921875 L 154.175781 141.191406 C 151.746094 141.925781 146.625 143.988281 144.976562 148.59375 C 144.726562 149.289062 144.550781 150.113281 144.429688 151.015625 C 142.996094 151.753906 141.527344 152.570312 140.03125 153.472656 C 140.21875 146.277344 141.628906 139.28125 144.214844 132.628906 C 147.203125 134.738281 150.558594 136.597656 154.175781 137.921875 Z M 104.328125 183.933594 L 108.0625 175.308594 C 108.417969 174.488281 108.042969 173.535156 107.222656 173.179688 C 106.40625 172.824219 105.453125 173.199219 105.097656 174.019531 L 101.367188 182.644531 C 99.769531 181.828125 98.246094 180.851562 96.820312 179.714844 C 95.386719 178.574219 94.09375 177.308594 92.941406 175.9375 L 100.476562 170.339844 C 101.195312 169.808594 101.34375 168.792969 100.8125 168.074219 C 100.28125 167.355469 99.269531 167.207031 98.554688 167.738281 L 91.019531 173.335938 C 89.054688 170.320312 87.710938 166.921875 87.078125 163.300781 L 96.386719 162.234375 C 97.273438 162.132812 97.910156 161.328125 97.808594 160.441406 C 97.707031 159.550781 96.90625 158.914062 96.019531 159.015625 L 86.710938 160.085938 C 86.507812 156.414062 87.050781 152.800781 88.285156 149.417969 L 96.886719 153.160156 C 97.097656 153.253906 97.316406 153.296875 97.53125 153.296875 C 98.152344 153.296875 98.75 152.933594 99.011719 152.320312 C 99.367188 151.5 98.992188 150.546875 98.175781 150.191406 L 89.570312 146.449219 C 90.382812 144.851562 91.359375 143.324219 92.496094 141.890625 C 93.632812 140.453125 94.894531 139.15625 96.261719 138.003906 L 101.847656 145.558594 C 102.164062 145.984375 102.652344 146.210938 103.144531 146.210938 C 103.480469 146.210938 103.816406 146.109375 104.105469 145.894531 C 104.824219 145.363281 104.972656 144.347656 104.441406 143.628906 L 98.859375 136.074219 C 101.867188 134.105469 105.253906 132.757812 108.867188 132.125 L 109.933594 141.457031 C 110.027344 142.28125 110.726562 142.890625 111.535156 142.890625 C 111.597656 142.890625 111.660156 142.886719 111.722656 142.882812 C 112.605469 142.78125 113.242188 141.976562 113.140625 141.089844 L 112.074219 131.757812 C 115.738281 131.554688 119.339844 132.097656 122.714844 133.332031 L 118.980469 141.960938 C 118.625 142.777344 119 143.734375 119.820312 144.089844 C 120.027344 144.179688 120.246094 144.222656 120.460938 144.222656 C 121.085938 144.222656 121.679688 143.859375 121.945312 143.25 L 125.679688 134.621094 C 127.269531 135.4375 128.792969 136.414062 130.222656 137.554688 C 131.636719 138.679688 132.929688 139.957031 134.089844 141.339844 L 126.566406 146.929688 C 125.851562 147.460938 125.699219 148.476562 126.230469 149.195312 C 126.546875 149.621094 127.035156 149.851562 127.527344 149.851562 C 127.863281 149.851562 128.199219 149.746094 128.488281 149.53125 L 136.019531 143.9375 C 136.511719 144.695312 136.964844 145.476562 137.378906 146.277344 C 136.980469 149.207031 136.777344 152.175781 136.777344 155.175781 C 136.777344 155.304688 136.78125 155.429688 136.78125 155.554688 C 127.789062 161.652344 118.230469 171.023438 110.632812 185.40625 C 108.464844 185.171875 106.351562 184.675781 104.328125 183.933594 Z M 144.222656 154.792969 C 144.242188 160.679688 145.515625 167.621094 145.714844 168.675781 C 145.824219 169.261719 146.25 169.738281 146.820312 169.917969 C 146.980469 169.964844 147.140625 169.992188 147.300781 169.992188 C 147.71875 169.992188 148.128906 169.828125 148.4375 169.523438 C 152.589844 165.402344 157.003906 162.5 161.824219 160.710938 L 159.546875 164.347656 C 158.242188 166.429688 157.554688 168.832031 157.554688 171.289062 L 157.554688 212.582031 L 129.519531 212.582031 L 129.519531 184.816406 C 129.519531 183.921875 128.792969 183.195312 127.902344 183.195312 C 127.011719 183.195312 126.289062 183.921875 126.289062 184.816406 L 126.289062 212.582031 L 103.945312 212.582031 C 112.195312 178.980469 129.855469 162.671875 144.222656 154.792969 Z M 204.667969 212.582031 L 204.667969 184.816406 C 204.667969 183.921875 203.945312 183.195312 203.054688 183.195312 C 202.164062 183.195312 201.441406 183.921875 201.441406 184.816406 L 201.441406 212.582031 L 160.785156 212.582031 L 160.785156 171.289062 C 160.785156 169.441406 161.304688 167.636719 162.285156 166.070312 L 166.222656 159.773438 C 172.203125 161.390625 177.542969 164.585938 182.519531 169.523438 C 182.945312 169.945312 183.566406 170.09375 184.136719 169.917969 C 184.707031 169.738281 185.132812 169.261719 185.242188 168.675781 C 185.441406 167.621094 186.714844 160.679688 186.734375 154.792969 C 201.101562 162.671875 218.761719 178.980469 227.011719 212.582031 Z M 195.347656 155.175781 C 195.347656 151.5 198.332031 148.511719 202 148.511719 C 205.664062 148.511719 208.648438 151.5 208.648438 155.175781 C 208.648438 158.785156 205.773438 161.726562 202.199219 161.832031 C 199.957031 159.820312 197.699219 158.035156 195.472656 156.453125 C 195.390625 156.035156 195.347656 155.609375 195.347656 155.175781 Z M 229.871094 210.703125 C 224.363281 189.050781 215 174.433594 205.101562 164.578125 C 209.035156 163.269531 211.878906 159.550781 211.878906 155.175781 C 211.878906 149.714844 207.445312 145.273438 202 145.273438 C 196.867188 145.273438 192.636719 149.214844 192.164062 154.238281 C 190.242188 153.023438 188.351562 151.953125 186.527344 151.015625 C 186.40625 150.113281 186.230469 149.289062 185.980469 148.59375 C 184.332031 143.988281 179.210938 141.925781 176.78125 141.191406 L 176.78125 137.921875 C 181.132812 136.328125 185.105469 133.964844 188.515625 131.324219 C 190.652344 136.910156 195.96875 140.609375 202 140.609375 C 208.300781 140.609375 213.828125 136.566406 215.753906 130.550781 L 221.949219 111.226562 C 222.476562 109.578125 222.328125 107.824219 221.523438 106.292969 C 220.722656 104.757812 219.367188 103.636719 217.707031 103.132812 C 216.410156 102.738281 215.085938 102.394531 213.757812 102.101562 C 214.066406 99.957031 213.910156 97.839844 213.34375 95.921875 C 213.910156 95.417969 214.4375 94.90625 214.929688 94.382812 C 243.410156 100.441406 263.992188 125.859375 263.992188 155.175781 C 263.992188 178.609375 250.660156 200.1875 229.871094 210.703125 Z M 229.871094 210.703125 " fill-opacity="1" fill-rule="nonzero"/></g><path fill="#3a322b" d="M 253.910156 139.425781 C 253.410156 137.765625 252.289062 136.40625 250.757812 135.601562 C 249.230469 134.796875 247.484375 134.644531 245.839844 135.175781 L 226.558594 141.386719 C 220.5625 143.316406 216.53125 148.859375 216.53125 155.175781 C 216.53125 161.496094 220.558594 167.035156 226.558594 168.96875 L 245.839844 175.179688 C 246.484375 175.386719 247.144531 175.488281 247.800781 175.488281 C 248.816406 175.488281 249.828125 175.242188 250.757812 174.753906 C 252.289062 173.945312 253.410156 172.589844 253.910156 170.925781 C 255.445312 165.839844 256.222656 160.539062 256.222656 155.175781 C 256.222656 149.8125 255.445312 144.515625 253.910156 139.425781 Z M 250.820312 169.992188 C 250.570312 170.8125 250.015625 171.488281 249.257812 171.886719 C 248.503906 172.28125 247.640625 172.359375 246.828125 172.097656 L 227.550781 165.886719 C 222.890625 164.386719 219.761719 160.082031 219.761719 155.175781 C 219.761719 150.273438 222.890625 145.96875 227.550781 144.46875 L 246.828125 138.257812 C 247.640625 137.996094 248.503906 138.070312 249.257812 138.46875 C 250.015625 138.867188 250.570312 139.539062 250.820312 140.363281 C 252.261719 145.148438 252.992188 150.132812 252.992188 155.175781 C 252.992188 160.222656 252.261719 165.207031 250.820312 169.992188 Z M 250.820312 169.992188 " fill-opacity="1" fill-rule="nonzero"/><path fill="#3a322b" d="M 123.183594 157.523438 C 122.570312 152.183594 117.742188 148.339844 112.414062 148.949219 C 109.832031 149.246094 107.519531 150.53125 105.90625 152.570312 C 104.289062 154.609375 103.5625 157.15625 103.859375 159.746094 C 104.425781 164.710938 108.644531 168.386719 113.515625 168.386719 C 113.882812 168.386719 114.253906 168.363281 114.628906 168.320312 C 119.957031 167.710938 123.792969 162.867188 123.183594 157.523438 Z M 114.261719 165.105469 C 110.699219 165.515625 107.476562 162.941406 107.066406 159.375 C 106.871094 157.648438 107.355469 155.945312 108.433594 154.585938 C 109.515625 153.222656 111.058594 152.363281 112.78125 152.164062 C 113.03125 152.136719 113.28125 152.121094 113.527344 152.121094 C 116.78125 152.121094 119.59375 154.578125 119.976562 157.894531 C 120.382812 161.460938 117.820312 164.695312 114.261719 165.105469 Z M 114.261719 165.105469 " fill-opacity="1" fill-rule="nonzero"/></svg>