<svg xmlns="http://www.w3.org/2000/svg" xmlns:xlink="http://www.w3.org/1999/xlink" width="450" zoomAndPan="magnify" viewBox="0 0 337.5 225" height="300" preserveAspectRatio="xMidYMid meet" version="1.0"><defs><clipPath id="6a14eecc43"><path d="M 0 0.167969 L 337 0.167969 L 337 224.832031 L 0 224.832031 Z M 0 0.167969 " clip-rule="nonzero"/></clipPath><clipPath id="721eee6207"><path d="M 190 83 L 203 83 L 203 209.964844 L 190 209.964844 Z M 190 83 " clip-rule="nonzero"/></clipPath><clipPath id="0ee783d8f2"><path d="M 100 193 L 134 193 L 134 209.964844 L 100 209.964844 Z M 100 193 " clip-rule="nonzero"/></clipPath><clipPath id="a07205b453"><path d="M 123 193 L 148 193 L 148 209.964844 L 123 209.964844 Z M 123 193 " clip-rule="nonzero"/></clipPath><clipPath id="316a3c9929"><path d="M 215.84375 181.421875 L 252.847656 181.421875 L 252.847656 184.839844 L 215.84375 184.839844 Z M 215.84375 181.421875 " clip-rule="nonzero"/></clipPath><clipPath id="c5b4d861de"><path d="M 180 206 L 215 206 L 215 209.964844 L 180 209.964844 Z M 180 206 " clip-rule="nonzero"/></clipPath><clipPath id="5503b51d9d"><path d="M 143 206 L 166 206 L 166 209.964844 L 143 209.964844 Z M 143 206 " clip-rule="nonzero"/></clipPath><clipPath id="86764cab7e"><path d="M 84.875 206 L 107 206 L 107 209.964844 L 84.875 209.964844 Z M 84.875 206 " clip-rule="nonzero"/></clipPath></defs><g clip-path="url(#6a14eecc43)"><path fill="#ffffff" d="M 0 0.167969 L 337.5 0.167969 L 337.5 225.167969 L 0 225.167969 Z M 0 0.167969 " fill-opacity="1" fill-rule="nonzero"/><path fill="#ffffff" d="M 0 0.167969 L 337.5 0.167969 L 337.5 225.167969 L 0 225.167969 Z M 0 0.167969 " fill-opacity="1" fill-rule="nonzero"/></g><path fill="#d3d5d2" d="M 192.386719 85.015625 L 192.625 204.0625 C 192.625 206.375 194.503906 208.25 196.824219 208.25 C 199.140625 208.25 201.023438 206.375 201.023438 204.0625 L 200.785156 156.355469 L 200.785156 84.867188 L 192.386719 85.015625 " fill-opacity="1" fill-rule="nonzero"/><path fill="#d3d5d2" d="M 193.09375 65.085938 L 224.589844 179.914062 C 225.199219 182.148438 227.503906 183.464844 229.742188 182.859375 C 231.980469 182.253906 233.300781 179.953125 232.695312 177.71875 L 219.933594 131.742188 L 201.15625 62.746094 L 193.09375 65.085938 " fill-opacity="1" fill-rule="nonzero"/><path fill="#d3d5d2" d="M 200.429688 65.355469 L 168.953125 180.191406 C 168.34375 182.421875 166.214844 183.789062 164.195312 183.242188 C 162.175781 182.695312 161.03125 180.441406 161.636719 178.210938 L 174.375 132.226562 L 193.152344 63.230469 L 200.429688 65.355469 " fill-opacity="1" fill-rule="nonzero"/><path fill="#ffffff" d="M 158.636719 17.957031 C 155.59375 9.964844 146.375 5.613281 136.871094 7.394531 L 131.011719 9.304688 C 122.371094 13.429688 117.519531 22.257812 119.699219 30.453125 L 122.496094 35.816406 C 123.679688 38.785156 125.296875 41.144531 126.679688 42.351562 C 130.632812 45.800781 131.109375 41.816406 131.121094 41.722656 C 131.550781 38.640625 131.8125 35.269531 132.148438 32.714844 L 160.386719 23.585938 L 158.636719 17.957031 " fill-opacity="1" fill-rule="nonzero"/><path fill="#f9e845" d="M 159.128906 20.332031 C 156.882812 14.574219 150.25 13.457031 142.328125 15.082031 L 137.417969 16.679688 C 130.132812 19.992188 125.824219 26.632812 127.351562 32.570312 L 129.484375 36.410156 C 130.359375 38.546875 131.617188 40.222656 132.722656 41.0625 C 135.875 43.460938 136.40625 40.523438 136.417969 40.453125 C 136.875 38.179688 136.238281 34.277344 136.597656 32.390625 L 160.386719 24.402344 L 159.128906 20.332031 " fill-opacity="1" fill-rule="nonzero"/><path fill="#ffffff" d="M 135.515625 67.65625 L 155.679688 88.269531 L 174.296875 88.269531 C 178.988281 88.269531 182.789062 92.0625 182.789062 96.742188 L 182.789062 96.972656 C 182.789062 101.652344 178.988281 105.445312 174.296875 105.445312 L 155.265625 105.445312 C 151.394531 105.445312 147.683594 103.910156 144.953125 101.175781 L 126.691406 82.898438 L 135.515625 67.65625 " fill-opacity="1" fill-rule="nonzero"/><path fill="#ffffff" d="M 105.019531 102.78125 L 103.277344 108.960938 C 102.226562 112.679688 101.695312 116.527344 101.695312 120.390625 L 101.695312 194.886719 L 135.285156 194.886719 L 135.285156 109.773438 L 105.019531 102.78125 " fill-opacity="1" fill-rule="nonzero"/><path fill="#83d173" d="M 113.296875 105.445312 L 111.550781 111.625 C 110.503906 115.34375 109.96875 119.191406 109.96875 123.054688 L 109.96875 197.550781 L 135.285156 194.886719 L 135.285156 109.773438 L 113.296875 105.445312 " fill-opacity="1" fill-rule="nonzero"/><path fill="#ffffff" d="M 145.308594 77.625 L 147.371094 70.3125 L 162.804688 73.652344 L 153.0625 71.402344 C 150.929688 61.199219 156.703125 56.671875 156.703125 56.671875 L 171.066406 59.621094 L 134.238281 52.0625 C 125.652344 50.695312 117.402344 55.960938 115.046875 64.304688 L 113.363281 70.269531 L 112.101562 74.734375 L 110.957031 78.796875 L 109.875 82.625 L 105.824219 96.976562 C 104.464844 101.792969 107.550781 106.730469 112.484375 107.636719 L 127.988281 110.480469 C 131.738281 111.171875 135.808594 108.785156 137.035156 105.183594 L 140.078125 96.25 L 132.605469 88.863281 C 132.605469 88.863281 132.253906 79.308594 142.851562 75.210938 L 145.308594 77.625 " fill-opacity="1" fill-rule="nonzero"/><path fill="#221838" d="M 174.296875 106.519531 L 155.265625 106.519531 C 151.140625 106.519531 147.101562 104.847656 144.191406 101.933594 L 125.929688 83.660156 C 125.507812 83.238281 125.507812 82.558594 125.929688 82.140625 C 126.351562 81.722656 127.03125 81.722656 127.453125 82.144531 L 145.714844 100.417969 C 148.226562 102.929688 151.707031 104.371094 155.265625 104.371094 L 174.296875 104.371094 C 178.386719 104.371094 181.714844 101.050781 181.714844 96.972656 L 181.714844 96.742188 C 181.714844 92.664062 178.386719 89.34375 174.296875 89.34375 L 155.679688 89.34375 C 155.3125 89.34375 154.976562 89.160156 154.777344 88.855469 L 142.40625 69.917969 C 142.082031 69.417969 142.222656 68.753906 142.722656 68.429688 C 143.21875 68.109375 143.886719 68.246094 144.210938 68.746094 L 156.261719 87.195312 L 174.296875 87.195312 C 179.574219 87.195312 183.867188 91.476562 183.867188 96.742188 L 183.867188 96.972656 C 183.867188 102.234375 179.574219 106.519531 174.296875 106.519531 " fill-opacity="1" fill-rule="nonzero"/><path fill="#f16172" d="M 145.308594 77.628906 L 147.371094 70.3125 L 162.804688 73.652344 L 153.0625 71.402344 C 150.929688 61.199219 156.703125 56.671875 156.703125 56.671875 L 171.066406 59.621094 L 142.03125 53.738281 C 133.445312 52.371094 125.195312 57.632812 122.839844 65.980469 L 121.15625 71.945312 L 119.898438 76.410156 L 118.75 80.472656 L 117.667969 84.296875 L 113.617188 98.648438 C 112.257812 103.464844 115.34375 108.40625 120.277344 109.3125 L 127.988281 110.480469 C 131.738281 111.171875 135.808594 108.785156 137.035156 105.183594 L 140.078125 96.25 L 132.605469 88.863281 C 132.605469 88.863281 132.253906 79.308594 142.851562 75.210938 L 145.308594 77.628906 " fill-opacity="1" fill-rule="nonzero"/><path fill="#ffffff" d="M 130.199219 43.53125 C 133.125 45.597656 136.828125 46.875 140.683594 46.875 C 150.601562 46.875 158.636719 38.855469 158.636719 28.964844 C 158.636719 27.390625 158.433594 25.859375 158.050781 24.402344 L 132.148438 32.714844 L 130.199219 43.53125 " fill-opacity="1" fill-rule="nonzero"/><path fill="#ffffff" d="M 181.515625 77.632812 L 151.554688 71.425781 L 154.71875 56.226562 L 184.679688 62.4375 C 187.042969 62.925781 188.5625 65.234375 188.070312 67.59375 L 186.683594 74.25 C 186.195312 76.609375 183.878906 78.121094 181.515625 77.632812 " fill-opacity="1" fill-rule="nonzero"/><path fill="#ffffff" d="M 149.023438 21.59375 L 159.371094 18.210938 C 160.199219 17.941406 161.09375 18.414062 161.367188 19.265625 L 162.152344 21.699219 C 162.425781 22.546875 161.980469 23.449219 161.15625 23.714844 L 120.820312 36.738281 C 119.992188 37.003906 119.101562 36.53125 118.828125 35.679688 L 118.039062 33.242188 C 117.765625 32.394531 118.214844 31.492188 119.039062 31.226562 L 144.121094 23.167969 L 149.023438 21.59375 " fill-opacity="1" fill-rule="nonzero"/><path fill="#ffffff" d="M 183.988281 32.390625 L 177.863281 32.390625 C 176.609375 32.390625 175.589844 33.40625 175.589844 34.65625 L 175.589844 61.957031 C 175.589844 63.207031 176.609375 64.21875 177.863281 64.21875 L 215.308594 64.21875 C 216.5625 64.21875 217.578125 63.207031 217.578125 61.957031 L 217.578125 34.65625 C 217.578125 33.40625 216.5625 32.390625 215.308594 32.390625 L 183.988281 32.390625 " fill-opacity="1" fill-rule="nonzero"/><path fill="#ffffff" d="M 217.578125 40.765625 L 225.976562 40.765625 L 225.976562 55.84375 L 217.578125 55.84375 L 217.578125 40.765625 " fill-opacity="1" fill-rule="nonzero"/><path fill="#ffffff" d="M 225.976562 44.117188 L 234.375 44.117188 L 234.375 52.492188 L 225.976562 52.492188 L 225.976562 44.117188 " fill-opacity="1" fill-rule="nonzero"/><path fill="#ffffff" d="M 209.183594 50.816406 L 183.988281 50.816406 L 183.988281 44.117188 L 209.183594 44.117188 L 209.183594 50.816406 " fill-opacity="1" fill-rule="nonzero"/><path fill="#ffffff" d="M 125.207031 194.886719 L 136.65625 194.886719 C 141.464844 194.886719 145.359375 198.773438 145.359375 203.566406 L 145.359375 208.289062 L 130.246094 208.289062 L 125.207031 194.886719 " fill-opacity="1" fill-rule="nonzero"/><path fill="#ffffff" d="M 131.925781 208.289062 L 101.695312 208.289062 L 101.695312 194.886719 L 123.484375 194.886719 C 128.144531 194.886719 131.925781 198.65625 131.925781 203.308594 L 131.925781 208.289062 " fill-opacity="1" fill-rule="nonzero"/><path fill="#ffffff" d="M 187.347656 64.367188 L 187.347656 76.785156 C 187.347656 81.871094 191.484375 86 196.585938 86 C 201.6875 86 205.824219 81.871094 205.824219 76.785156 L 205.824219 64.367188 L 187.347656 64.367188 " fill-opacity="1" fill-rule="nonzero"/><path fill="#f9e845" d="M 150.972656 20.96875 L 159.617188 18.132812 C 160.308594 17.90625 161.09375 18.414062 161.367188 19.265625 L 162.152344 21.699219 C 162.425781 22.546875 162.089844 23.414062 161.402344 23.636719 L 127.695312 34.53125 C 127.003906 34.753906 126.222656 34.246094 125.945312 33.394531 L 125.160156 30.957031 C 124.886719 30.109375 125.222656 29.242188 125.914062 29.019531 L 146.875 22.28125 L 150.972656 20.96875 " fill-opacity="1" fill-rule="nonzero"/><path fill="#d3d5d2" d="M 191.15625 41.347656 L 186.335938 41.347656 C 185.347656 41.347656 184.550781 42.078125 184.550781 42.976562 L 184.550781 62.59375 C 184.550781 63.492188 185.347656 64.21875 186.335938 64.21875 L 215.792969 64.21875 C 216.78125 64.21875 217.578125 63.492188 217.578125 62.59375 L 217.578125 42.976562 C 217.578125 42.078125 216.78125 41.347656 215.792969 41.347656 L 191.15625 41.347656 " fill-opacity="1" fill-rule="nonzero"/><path fill="#221838" d="M 140.714844 48.632812 C 136.5 48.632812 132.695312 47.414062 129.410156 45.003906 C 128.664062 44.457031 128.503906 43.410156 129.050781 42.664062 C 129.601562 41.917969 130.652344 41.757812 131.398438 42.304688 C 134.09375 44.28125 137.230469 45.28125 140.714844 45.28125 C 149.519531 45.28125 156.679688 38.140625 156.679688 29.359375 C 156.679688 27.980469 156.503906 26.617188 156.15625 25.296875 C 155.921875 24.402344 156.457031 23.488281 157.355469 23.25 C 158.25 23.015625 159.171875 23.550781 159.40625 24.445312 C 159.828125 26.042969 160.039062 27.695312 160.039062 29.359375 C 160.039062 39.988281 151.371094 48.632812 140.714844 48.632812 " fill-opacity="1" fill-rule="nonzero"/><path fill="#221838" d="M 129.621094 45.570312 C 128.476562 45.570312 127.214844 44.96875 125.847656 43.777344 C 124.160156 42.304688 122.453125 39.660156 121.28125 36.707031 C 120.9375 35.847656 121.359375 34.871094 122.222656 34.53125 C 123.085938 34.191406 124.0625 34.613281 124.402344 35.472656 C 125.5625 38.394531 127.050781 40.375 128.058594 41.253906 C 128.839844 41.9375 129.300781 42.136719 129.496094 42.195312 C 129.558594 42.070312 129.628906 41.863281 129.652344 41.683594 C 129.875 40.082031 130 38.425781 130.117188 36.824219 C 130.222656 35.421875 130.324219 34.082031 130.476562 32.902344 C 130.597656 31.984375 131.441406 31.339844 132.359375 31.457031 C 133.28125 31.578125 133.929688 32.417969 133.808594 33.335938 C 133.660156 34.460938 133.566406 35.738281 133.46875 37.074219 C 133.34375 38.726562 133.214844 40.4375 132.980469 42.125 C 132.90625 42.710938 132.511719 44.695312 130.714844 45.371094 C 130.363281 45.503906 129.996094 45.570312 129.621094 45.570312 " fill-opacity="1" fill-rule="nonzero"/><path fill="#d3d5d2" d="M 217.578125 40.765625 L 225.976562 40.765625 L 225.976562 55.84375 L 217.578125 55.84375 L 217.578125 40.765625 " fill-opacity="1" fill-rule="nonzero"/><path fill="#d3d5d2" d="M 225.976562 44.117188 L 234.375 44.117188 L 234.375 52.492188 L 225.976562 52.492188 L 225.976562 44.117188 " fill-opacity="1" fill-rule="nonzero"/><path fill="#221838" d="M 225.976562 57.519531 L 217.578125 57.519531 C 216.652344 57.519531 215.898438 56.769531 215.898438 55.84375 C 215.898438 54.917969 216.652344 54.167969 217.578125 54.167969 L 224.296875 54.167969 L 224.296875 42.441406 L 217.578125 42.441406 C 216.652344 42.441406 215.898438 41.691406 215.898438 40.765625 C 215.898438 39.839844 216.652344 39.089844 217.578125 39.089844 L 225.976562 39.089844 C 226.90625 39.089844 227.65625 39.839844 227.65625 40.765625 L 227.65625 55.84375 C 227.65625 56.769531 226.90625 57.519531 225.976562 57.519531 " fill-opacity="1" fill-rule="nonzero"/><path fill="#221838" d="M 234.375 54.167969 L 225.976562 54.167969 C 225.050781 54.167969 224.296875 53.417969 224.296875 52.492188 C 224.296875 51.570312 225.050781 50.820312 225.976562 50.820312 L 232.695312 50.820312 L 232.695312 45.792969 L 225.976562 45.792969 C 225.050781 45.792969 224.296875 45.042969 224.296875 44.117188 C 224.296875 43.191406 225.050781 42.441406 225.976562 42.441406 L 234.375 42.441406 C 235.300781 42.441406 236.054688 43.191406 236.054688 44.117188 L 236.054688 52.492188 C 236.054688 53.417969 235.300781 54.167969 234.375 54.167969 " fill-opacity="1" fill-rule="nonzero"/><path fill="#d3d5d2" d="M 195.511719 64.367188 L 195.511719 76.785156 C 195.511719 81.871094 197.820312 86 200.667969 86 C 203.515625 86 205.824219 81.871094 205.824219 76.785156 L 205.824219 64.367188 L 195.511719 64.367188 " fill-opacity="1" fill-rule="nonzero"/><path fill="#221838" d="M 215.308594 65.894531 L 177.863281 65.894531 C 175.683594 65.894531 173.914062 64.128906 173.914062 61.957031 L 173.914062 34.65625 C 173.914062 32.484375 175.683594 30.714844 177.863281 30.714844 L 183.988281 30.714844 C 184.917969 30.714844 185.667969 31.464844 185.667969 32.390625 C 185.667969 33.316406 184.917969 34.066406 183.988281 34.066406 L 177.863281 34.066406 C 177.535156 34.066406 177.269531 34.332031 177.269531 34.65625 L 177.269531 61.957031 C 177.269531 62.28125 177.535156 62.546875 177.863281 62.546875 L 215.308594 62.546875 C 215.636719 62.546875 215.898438 62.28125 215.898438 61.957031 L 215.898438 34.65625 C 215.898438 34.332031 215.636719 34.066406 215.308594 34.066406 L 189.027344 34.066406 C 188.101562 34.066406 187.347656 33.316406 187.347656 32.390625 C 187.347656 31.464844 188.101562 30.714844 189.027344 30.714844 L 215.308594 30.714844 C 217.488281 30.714844 219.257812 32.484375 219.257812 34.65625 L 219.257812 61.957031 C 219.257812 64.128906 217.488281 65.894531 215.308594 65.894531 " fill-opacity="1" fill-rule="nonzero"/><path fill="#221838" d="M 196.585938 87.671875 C 190.566406 87.671875 185.667969 82.789062 185.667969 76.785156 L 185.667969 64.367188 C 185.667969 63.441406 186.421875 62.691406 187.347656 62.691406 C 188.277344 62.691406 189.027344 63.441406 189.027344 64.367188 L 189.027344 76.785156 C 189.027344 80.941406 192.417969 84.320312 196.585938 84.320312 C 200.753906 84.320312 204.144531 80.941406 204.144531 76.785156 L 204.144531 64.367188 C 204.144531 63.441406 204.894531 62.691406 205.824219 62.691406 C 206.75 62.691406 207.503906 63.441406 207.503906 64.367188 L 207.503906 76.785156 C 207.503906 82.789062 202.605469 87.671875 196.585938 87.671875 " fill-opacity="1" fill-rule="nonzero"/><path fill="#221838" d="M 200.785156 137.929688 C 199.859375 137.929688 199.105469 137.179688 199.105469 136.253906 L 199.105469 85.097656 C 199.105469 84.171875 199.859375 83.421875 200.785156 83.421875 C 201.710938 83.421875 202.464844 84.171875 202.464844 85.097656 L 202.464844 136.253906 C 202.464844 137.179688 201.710938 137.929688 200.785156 137.929688 " fill-opacity="1" fill-rule="nonzero"/><path fill="#221838" d="M 200.785156 153.007812 C 199.859375 153.007812 199.105469 152.257812 199.105469 151.332031 L 199.105469 144.628906 C 199.105469 143.707031 199.859375 142.953125 200.785156 142.953125 C 201.710938 142.953125 202.464844 143.707031 202.464844 144.628906 L 202.464844 151.332031 C 202.464844 152.257812 201.710938 153.007812 200.785156 153.007812 " fill-opacity="1" fill-rule="nonzero"/><g clip-path="url(#721eee6207)"><path fill="#221838" d="M 196.824219 209.925781 C 193.582031 209.925781 190.945312 207.296875 190.945312 204.0625 L 190.707031 85.019531 C 190.707031 84.09375 191.457031 83.339844 192.382812 83.339844 C 192.386719 83.339844 192.386719 83.339844 192.386719 83.339844 C 193.3125 83.339844 194.066406 84.085938 194.066406 85.011719 L 194.304688 204.058594 C 194.304688 205.449219 195.433594 206.578125 196.824219 206.578125 C 198.210938 206.578125 199.34375 205.449219 199.34375 204.0625 L 199.105469 156.367188 C 199.101562 155.441406 199.847656 154.6875 200.777344 154.683594 C 201.757812 154.667969 202.460938 155.421875 202.464844 156.347656 L 202.703125 204.054688 C 202.703125 207.296875 200.066406 209.925781 196.824219 209.925781 " fill-opacity="1" fill-rule="nonzero"/></g><path fill="#221838" d="M 228.949219 184.757812 C 226.484375 184.757812 224.308594 183.101562 223.660156 180.734375 L 199.148438 91.933594 C 198.902344 91.039062 199.425781 90.117188 200.320312 89.871094 C 201.214844 89.625 202.140625 90.152344 202.386719 91.042969 L 226.898438 179.847656 C 227.148438 180.765625 227.992188 181.40625 228.949219 181.40625 C 229.617188 181.40625 230.230469 181.101562 230.636719 180.574219 C 231.042969 180.042969 231.171875 179.371094 230.996094 178.726562 L 210.664062 104.828125 C 210.421875 103.933594 210.945312 103.011719 211.839844 102.765625 C 212.738281 102.523438 213.660156 103.046875 213.90625 103.941406 L 234.234375 177.839844 C 234.691406 179.5 234.355469 181.238281 233.308594 182.605469 C 232.261719 183.972656 230.671875 184.757812 228.949219 184.757812 " fill-opacity="1" fill-rule="nonzero"/><path fill="#221838" d="M 165.296875 184.757812 C 163.570312 184.757812 161.984375 183.972656 160.9375 182.605469 C 159.890625 181.234375 159.550781 179.5 160.007812 177.839844 L 168.847656 145.722656 C 169.09375 144.832031 170.019531 144.304688 170.914062 144.550781 C 171.808594 144.796875 172.332031 145.71875 172.085938 146.609375 L 163.25 178.726562 C 163.070312 179.371094 163.203125 180.042969 163.609375 180.574219 C 164.011719 181.101562 164.628906 181.40625 165.296875 181.40625 C 166.25 181.40625 167.09375 180.765625 167.347656 179.847656 L 190.769531 94.8125 C 191.011719 93.921875 191.9375 93.394531 192.832031 93.640625 C 193.726562 93.886719 194.253906 94.808594 194.007812 95.699219 L 170.585938 180.734375 C 169.933594 183.101562 167.761719 184.757812 165.296875 184.757812 " fill-opacity="1" fill-rule="nonzero"/><path fill="#221838" d="M 172.519531 140.394531 C 172.371094 140.394531 172.222656 140.375 172.074219 140.332031 C 171.179688 140.085938 170.652344 139.164062 170.898438 138.273438 L 174.304688 125.894531 C 174.550781 125.003906 175.476562 124.480469 176.371094 124.722656 C 177.265625 124.96875 177.789062 125.890625 177.546875 126.78125 L 174.136719 139.160156 C 173.933594 139.902344 173.257812 140.394531 172.519531 140.394531 " fill-opacity="1" fill-rule="nonzero"/><path fill="#221838" d="M 135.253906 111.449219 C 135.074219 111.449219 134.894531 111.421875 134.714844 111.359375 C 133.835938 111.0625 133.367188 110.109375 133.664062 109.234375 L 138.671875 94.554688 C 138.972656 93.679688 139.925781 93.207031 140.804688 93.507812 C 141.683594 93.804688 142.152344 94.757812 141.851562 95.632812 L 136.84375 110.3125 C 136.605469 111.011719 135.953125 111.449219 135.253906 111.449219 " fill-opacity="1" fill-rule="nonzero"/><path fill="#221838" d="M 145.273438 78.535156 C 145.117188 78.535156 144.960938 78.515625 144.804688 78.46875 C 143.914062 78.210938 143.402344 77.28125 143.660156 76.390625 L 145.671875 69.523438 C 145.933594 68.636719 146.867188 68.125 147.757812 68.382812 C 148.648438 68.644531 149.15625 69.574219 148.898438 70.460938 L 146.886719 77.332031 C 146.671875 78.0625 146 78.535156 145.273438 78.535156 " fill-opacity="1" fill-rule="nonzero"/><path fill="#221838" d="M 173.960938 106.101562 L 155.507812 106.101562 C 151.289062 106.101562 147.164062 104.390625 144.183594 101.414062 L 126.40625 83.621094 C 125.75 82.964844 125.753906 81.90625 126.410156 81.253906 C 127.066406 80.597656 128.128906 80.601562 128.785156 81.253906 L 146.5625 99.046875 C 148.917969 101.402344 152.175781 102.75 155.507812 102.75 L 173.960938 102.75 C 177.640625 102.75 180.628906 99.765625 180.628906 96.097656 C 180.628906 92.332031 177.640625 89.347656 173.960938 89.347656 L 155.867188 89.347656 C 155.414062 89.347656 154.980469 89.164062 154.664062 88.84375 L 135 68.742188 C 134.351562 68.078125 134.367188 67.019531 135.03125 66.371094 C 135.691406 65.726562 136.757812 65.738281 137.40625 66.402344 L 156.574219 86 L 173.960938 86 C 179.492188 86 183.988281 90.484375 183.988281 96 C 183.988281 101.613281 179.492188 106.101562 173.960938 106.101562 " fill-opacity="1" fill-rule="nonzero"/><path fill="#221838" d="M 125.207031 196.5625 C 124.277344 196.5625 123.527344 195.8125 123.527344 194.886719 L 123.527344 126.203125 C 123.527344 125.277344 124.277344 124.527344 125.207031 124.527344 C 126.132812 124.527344 126.886719 125.277344 126.886719 126.203125 L 126.886719 194.886719 C 126.886719 195.8125 126.132812 196.5625 125.207031 196.5625 " fill-opacity="1" fill-rule="nonzero"/><path fill="#221838" d="M 135.285156 196.5625 C 134.355469 196.5625 133.605469 195.8125 133.605469 194.886719 L 133.605469 109.773438 C 133.605469 108.847656 134.355469 108.097656 135.285156 108.097656 C 136.210938 108.097656 136.964844 108.847656 136.964844 109.773438 L 136.964844 194.886719 C 136.964844 195.8125 136.210938 196.5625 135.285156 196.5625 " fill-opacity="1" fill-rule="nonzero"/><path fill="#221838" d="M 101.695312 196.5625 C 100.765625 196.5625 100.015625 195.8125 100.015625 194.886719 L 100.015625 120.390625 C 100.015625 116.375 100.566406 112.375 101.660156 108.503906 L 114.328125 63.636719 C 116.875 54.617188 125.792969 48.925781 135.070312 50.40625 L 175.960938 58.679688 C 176.871094 58.867188 177.457031 59.75 177.273438 60.65625 C 177.089844 61.5625 176.207031 62.148438 175.292969 61.964844 L 134.46875 53.699219 C 126.941406 52.503906 119.644531 57.160156 117.558594 64.542969 L 104.894531 109.414062 C 103.882812 112.988281 103.375 116.679688 103.375 120.390625 L 103.375 194.886719 C 103.375 195.8125 102.621094 196.5625 101.695312 196.5625 " fill-opacity="1" fill-rule="nonzero"/><path fill="#221838" d="M 183.542969 79.316406 C 182.890625 79.316406 182.214844 79.25 181.5 79.109375 L 146.929688 71.628906 C 146.023438 71.433594 145.449219 70.542969 145.644531 69.636719 C 145.839844 68.734375 146.738281 68.160156 147.640625 68.355469 L 182.171875 75.828125 C 183.800781 76.140625 185.027344 75.9375 186.238281 75.148438 C 187.015625 74.640625 188.054688 74.855469 188.5625 75.628906 C 189.070312 76.402344 188.855469 77.441406 188.078125 77.949219 C 186.675781 78.867188 185.203125 79.316406 183.542969 79.316406 " fill-opacity="1" fill-rule="nonzero"/><path fill="#221838" d="M 133.023438 89.503906 C 132.109375 89.503906 131.363281 88.777344 131.34375 87.863281 C 131.339844 87.457031 131.300781 77.804688 142.730469 73.335938 C 143.59375 72.996094 144.570312 73.421875 144.90625 74.28125 C 145.246094 75.144531 144.820312 76.117188 143.957031 76.453125 C 134.765625 80.050781 134.703125 87.5 134.703125 87.816406 C 134.707031 88.738281 133.96875 89.492188 133.042969 89.503906 C 133.039062 89.503906 133.03125 89.503906 133.023438 89.503906 " fill-opacity="1" fill-rule="nonzero"/><path fill="#221838" d="M 152.878906 72.738281 C 152.097656 72.738281 151.402344 72.195312 151.234375 71.40625 C 148.957031 60.488281 155.15625 55.480469 155.421875 55.273438 C 156.148438 54.699219 157.207031 54.828125 157.777344 55.554688 C 158.347656 56.277344 158.226562 57.324219 157.507812 57.898438 C 157.300781 58.0625 152.691406 61.9375 154.523438 70.722656 C 154.714844 71.628906 154.128906 72.515625 153.222656 72.703125 C 153.105469 72.726562 152.992188 72.738281 152.878906 72.738281 " fill-opacity="1" fill-rule="nonzero"/><path fill="#ffffff" d="M 209.183594 50.816406 L 183.988281 50.816406 L 183.988281 44.117188 L 209.183594 44.117188 L 209.183594 50.816406 " fill-opacity="1" fill-rule="nonzero"/><path fill="#221838" d="M 185.667969 49.144531 L 207.503906 49.144531 L 207.503906 45.792969 L 185.667969 45.792969 Z M 209.183594 52.492188 L 183.988281 52.492188 C 183.0625 52.492188 182.308594 51.742188 182.308594 50.820312 L 182.308594 44.117188 C 182.308594 43.191406 183.0625 42.441406 183.988281 42.441406 L 209.183594 42.441406 C 210.109375 42.441406 210.863281 43.191406 210.863281 44.117188 L 210.863281 50.820312 C 210.863281 51.742188 210.109375 52.492188 209.183594 52.492188 " fill-opacity="1" fill-rule="nonzero"/><path fill="#f9e845" d="M 131.925781 208.289062 L 109.96875 208.289062 L 109.96875 194.886719 L 124.730469 194.886719 C 128.703125 194.886719 131.925781 198.097656 131.925781 202.0625 L 131.925781 208.289062 " fill-opacity="1" fill-rule="nonzero"/><path fill="#f9e845" d="M 125.207031 194.886719 L 136.65625 194.886719 C 141.464844 194.886719 145.359375 198.773438 145.359375 203.566406 L 145.359375 208.289062 L 130.246094 208.289062 L 125.207031 194.886719 " fill-opacity="1" fill-rule="nonzero"/><g clip-path="url(#0ee783d8f2)"><path fill="#221838" d="M 103.375 206.613281 L 130.246094 206.613281 L 130.246094 203.308594 C 130.246094 199.585938 127.210938 196.5625 123.484375 196.5625 L 103.375 196.5625 Z M 131.925781 209.964844 L 101.695312 209.964844 C 100.765625 209.964844 100.015625 209.214844 100.015625 208.289062 L 100.015625 194.886719 C 100.015625 193.960938 100.765625 193.210938 101.695312 193.210938 L 123.484375 193.210938 C 129.0625 193.210938 133.605469 197.742188 133.605469 203.308594 L 133.605469 208.289062 C 133.605469 209.214844 132.851562 209.964844 131.925781 209.964844 " fill-opacity="1" fill-rule="nonzero"/></g><g clip-path="url(#a07205b453)"><path fill="#221838" d="M 145.359375 209.964844 L 130.246094 209.964844 C 129.316406 209.964844 128.566406 209.214844 128.566406 208.289062 C 128.566406 207.363281 129.316406 206.613281 130.246094 206.613281 L 143.679688 206.613281 L 143.679688 203.566406 C 143.679688 199.703125 140.53125 196.5625 136.65625 196.5625 L 125.207031 196.5625 C 124.277344 196.5625 123.527344 195.8125 123.527344 194.886719 C 123.527344 193.960938 124.277344 193.210938 125.207031 193.210938 L 136.65625 193.210938 C 142.382812 193.210938 147.039062 197.859375 147.039062 203.566406 L 147.039062 208.289062 C 147.039062 209.214844 146.289062 209.964844 145.359375 209.964844 " fill-opacity="1" fill-rule="nonzero"/></g><path fill="#221838" d="M 127.101562 112.148438 C 111.550781 112.148438 104.136719 104.273438 103.78125 103.882812 C 103.15625 103.199219 103.203125 102.140625 103.890625 101.519531 C 104.570312 100.894531 105.628906 100.941406 106.257812 101.621094 C 106.628906 102.019531 115.558594 111.351562 134.976562 108.121094 C 135.890625 107.96875 136.757812 108.585938 136.910156 109.5 C 137.0625 110.410156 136.445312 111.273438 135.53125 111.425781 C 132.492188 111.933594 129.6875 112.148438 127.101562 112.148438 " fill-opacity="1" fill-rule="nonzero"/><path fill="#221838" d="M 120.089844 32.496094 C 119.347656 32.496094 118.667969 32 118.46875 31.25 C 115.839844 21.382812 122.492188 10.851562 133.613281 7.28125 C 144.734375 3.710938 156.292969 8.394531 159.929688 17.941406 C 160.261719 18.804688 159.824219 19.773438 158.957031 20.101562 C 158.089844 20.433594 157.121094 19.996094 156.789062 19.132812 C 153.789062 11.253906 144.058594 7.449219 134.640625 10.472656 C 125.222656 13.496094 119.546875 22.246094 121.714844 30.390625 C 121.953125 31.285156 121.417969 32.203125 120.523438 32.441406 C 120.378906 32.476562 120.230469 32.496094 120.089844 32.496094 " fill-opacity="1" fill-rule="nonzero"/><path fill="#221838" d="M 120.347656 38.484375 C 119.835938 38.484375 119.328125 38.363281 118.859375 38.121094 C 118.078125 37.726562 117.503906 37.046875 117.234375 36.21875 L 116.414062 33.671875 C 115.859375 31.957031 116.808594 30.113281 118.527344 29.5625 L 143.804688 21.449219 C 144.6875 21.164062 145.632812 21.648438 145.917969 22.53125 C 146.203125 23.410156 145.71875 24.355469 144.832031 24.636719 L 119.558594 32.753906 L 120.433594 35.191406 L 160.640625 22.195312 L 159.761719 19.757812 L 149.941406 23 C 149.058594 23.28125 148.113281 22.796875 147.828125 21.917969 C 147.542969 21.035156 148.03125 20.09375 148.914062 19.808594 L 158.839844 16.621094 C 160.558594 16.070312 162.40625 17.015625 162.960938 18.730469 L 163.78125 21.273438 C 164.332031 22.988281 163.386719 24.832031 161.667969 25.382812 L 121.355469 38.324219 C 121.023438 38.429688 120.6875 38.484375 120.347656 38.484375 " fill-opacity="1" fill-rule="nonzero"/><g clip-path="url(#316a3c9929)"><path fill="#221838" d="M 251.167969 184.835938 L 217.578125 184.835938 C 216.652344 184.835938 215.898438 184.085938 215.898438 183.160156 C 215.898438 182.234375 216.652344 181.484375 217.578125 181.484375 L 251.167969 181.484375 C 252.097656 181.484375 252.847656 182.234375 252.847656 183.160156 C 252.847656 184.085938 252.097656 184.835938 251.167969 184.835938 " fill-opacity="1" fill-rule="nonzero"/></g><g clip-path="url(#c5b4d861de)"><path fill="#221838" d="M 212.542969 209.964844 L 182.308594 209.964844 C 181.382812 209.964844 180.632812 209.214844 180.632812 208.289062 C 180.632812 207.363281 181.382812 206.613281 182.308594 206.613281 L 212.542969 206.613281 C 213.46875 206.613281 214.222656 207.363281 214.222656 208.289062 C 214.222656 209.214844 213.46875 209.964844 212.542969 209.964844 " fill-opacity="1" fill-rule="nonzero"/></g><g clip-path="url(#5503b51d9d)"><path fill="#221838" d="M 163.835938 209.964844 L 145.359375 209.964844 C 144.433594 209.964844 143.679688 209.214844 143.679688 208.289062 C 143.679688 207.363281 144.433594 206.613281 145.359375 206.613281 L 163.835938 206.613281 C 164.761719 206.613281 165.515625 207.363281 165.515625 208.289062 C 165.515625 209.214844 164.761719 209.964844 163.835938 209.964844 " fill-opacity="1" fill-rule="nonzero"/></g><g clip-path="url(#86764cab7e)"><path fill="#221838" d="M 105.054688 209.964844 L 86.578125 209.964844 C 85.652344 209.964844 84.898438 209.214844 84.898438 208.289062 C 84.898438 207.363281 85.652344 206.613281 86.578125 206.613281 L 105.054688 206.613281 C 105.980469 206.613281 106.730469 207.363281 106.730469 208.289062 C 106.730469 209.214844 105.980469 209.964844 105.054688 209.964844 " fill-opacity="1" fill-rule="nonzero"/></g><path fill="#221838" d="M 173.914062 184.835938 L 155.4375 184.835938 C 154.511719 184.835938 153.757812 184.085938 153.757812 183.160156 C 153.757812 182.234375 154.511719 181.484375 155.4375 181.484375 L 173.914062 181.484375 C 174.839844 181.484375 175.59375 182.234375 175.59375 183.160156 C 175.59375 184.085938 174.839844 184.835938 173.914062 184.835938 " fill-opacity="1" fill-rule="nonzero"/><path fill="#221838" d="M 148.71875 184.835938 L 143.679688 184.835938 C 142.753906 184.835938 142 184.085938 142 183.160156 C 142 182.234375 142.753906 181.484375 143.679688 181.484375 L 148.71875 181.484375 C 149.648438 181.484375 150.398438 182.234375 150.398438 183.160156 C 150.398438 184.085938 149.648438 184.835938 148.71875 184.835938 " fill-opacity="1" fill-rule="nonzero"/></svg>