<svg xmlns="http://www.w3.org/2000/svg" xmlns:xlink="http://www.w3.org/1999/xlink" width="450" zoomAndPan="magnify" viewBox="0 0 337.5 225" height="300" preserveAspectRatio="xMidYMid meet" version="1.0"><defs><clipPath id="13e3119de7"><path d="M 0 0.167969 L 337 0.167969 L 337 224.832031 L 0 224.832031 Z M 0 0.167969 " clip-rule="nonzero"/></clipPath><clipPath id="81fbc2a676"><path d="M 22.671875 182.308594 L 295.355469 182.308594 L 295.355469 191.417969 L 22.671875 191.417969 Z M 22.671875 182.308594 " clip-rule="nonzero"/></clipPath></defs><g clip-path="url(#13e3119de7)"><path fill="#ffffff" d="M 0 0.167969 L 337.5 0.167969 L 337.5 225.167969 L 0 225.167969 Z M 0 0.167969 " fill-opacity="1" fill-rule="nonzero"/><path fill="#ffffff" d="M 0 0.167969 L 337.5 0.167969 L 337.5 225.167969 L 0 225.167969 Z M 0 0.167969 " fill-opacity="1" fill-rule="nonzero"/></g><path fill="#ebb39e" d="M 118.074219 101.398438 C 117.703125 102.746094 117.359375 103.714844 117.414062 105.753906 C 117.523438 109.964844 119.09375 113.777344 120.605469 116.476562 L 145.082031 140.980469 L 66.003906 140.980469 L 87.894531 116.394531 C 88.457031 115.761719 88.921875 115.042969 89.261719 114.265625 C 90.285156 111.890625 91.183594 108.875 91.265625 105.753906 C 91.328125 103.453125 90.878906 102.503906 90.457031 100.851562 L 118.074219 101.398438 " fill-opacity="1" fill-rule="evenodd"/><path fill="#f7e07f" d="M 170.175781 187.835938 L 37.96875 187.835938 C 37.957031 182.53125 38.003906 151.484375 42.898438 135.691406 C 44.097656 131.8125 45.488281 128.867188 47.273438 126.167969 C 48.273438 124.652344 52.660156 118.28125 61.226562 113.921875 C 69.1875 109.867188 76.566406 109.6875 80.105469 109.835938 L 87.542969 116.476562 L 104.074219 131.230469 L 120.605469 116.476562 L 128.042969 109.835938 C 131.582031 109.6875 138.960938 109.867188 146.917969 113.921875 C 155.488281 118.28125 159.875 124.652344 160.875 126.167969 C 162.660156 128.867188 164.046875 131.8125 165.253906 135.691406 C 170.144531 151.484375 170.191406 182.53125 170.175781 187.835938 " fill-opacity="1" fill-rule="evenodd"/><path fill="#ebcd6d" d="M 67.496094 151.65625 L 67.496094 187.835938 L 58.207031 187.835938 L 58.207031 151.765625 C 58.207031 149.15625 60.335938 146.964844 62.945312 147.011719 C 65.464844 147.0625 67.496094 149.125 67.496094 151.65625 " fill-opacity="1" fill-rule="evenodd"/><path fill="#ebcd6d" d="M 149.9375 151.765625 L 149.9375 187.835938 L 140.652344 187.835938 L 140.652344 151.65625 C 140.652344 149.125 142.679688 147.0625 145.207031 147.011719 C 147.808594 146.964844 149.9375 149.15625 149.9375 151.765625 " fill-opacity="1" fill-rule="evenodd"/><path fill="#f4baa6" d="M 133.867188 64.269531 C 143.167969 67.261719 138.367188 82.882812 131.191406 84.089844 C 130.402344 87.824219 128.585938 94.128906 124.15625 99.378906 C 121.675781 102.3125 119.28125 104 118.683594 104.410156 C 117.359375 105.324219 114.535156 107.230469 110.339844 108.222656 C 109.226562 108.484375 104.929688 109.414062 99.53125 108.222656 C 98.484375 107.992188 93.523438 106.824219 88.585938 102.777344 C 87.324219 101.746094 82.636719 97.707031 80.105469 90.667969 C 79.285156 88.386719 78.789062 85.667969 78.597656 84.273438 C 71.261719 82.140625 66.488281 71.257812 74.5 64.253906 L 76.351562 44.761719 L 105.347656 37.597656 C 105.347656 37.597656 121.421875 41.664062 121.710938 42.050781 C 122.007812 42.4375 133.867188 64.269531 133.867188 64.269531 " fill-opacity="1" fill-rule="evenodd"/><path fill="#784132" d="M 111.953125 47.925781 C 111.339844 48.941406 110.273438 50.375 108.535156 51.460938 C 107.054688 52.386719 105.554688 52.761719 104.101562 52.90625 C 102.570312 53.054688 101.027344 52.914062 99.519531 52.589844 C 98.054688 52.273438 95.082031 51.917969 89.65625 52.296875 C 86.503906 52.515625 83.136719 52.683594 80.289062 54.203125 C 76.65625 56.140625 75.367188 60.164062 74.679688 63.949219 C 74.648438 64.101562 74.558594 64.296875 74.410156 64.265625 C 74.34375 64.253906 74.300781 64.199219 74.257812 64.148438 C 73.15625 62.683594 72.910156 60.308594 72.71875 58.554688 C 72.101562 52.957031 72.164062 48.519531 72.691406 47.257812 C 73.011719 46.5 74.628906 42.78125 78.441406 39.097656 C 84.601562 33.136719 94.746094 30.015625 99.910156 28.945312 C 104.085938 28.074219 108.507812 27.632812 112.824219 27.933594 C 115.230469 28.101562 117.75 28.410156 120.09375 29.003906 C 122.015625 29.488281 123.921875 30.410156 125.078125 32.023438 C 126.324219 33.765625 126.625 35.964844 128.117188 37.558594 C 129.738281 39.296875 131.957031 40.335938 133.621094 42.03125 C 135.847656 44.304688 138.0625 47.878906 138.382812 51.082031 C 138.671875 53.96875 137.410156 56.695312 135.953125 59.101562 C 135.6875 59.546875 134.132812 64.542969 133.871094 64.265625 C 133.265625 63.628906 125.660156 61.585938 119.617188 54.179688 C 118.1875 52.429688 117.558594 51.667969 117.019531 51.140625 C 116.660156 50.789062 115.550781 49.738281 113.917969 48.601562 C 113.386719 48.234375 112.261719 47.40625 111.953125 47.925781 " fill-opacity="1" fill-rule="evenodd"/><path fill="#33444d" d="M 255.492188 97.808594 L 155.101562 97.808594 C 151.179688 97.808594 147.996094 100.992188 147.996094 104.917969 L 147.996094 181.511719 L 262.59375 181.511719 L 262.59375 104.917969 C 262.59375 100.992188 259.410156 97.808594 255.492188 97.808594 " fill-opacity="1" fill-rule="evenodd"/><path fill="#465a65" d="M 255.425781 187.152344 L 155.164062 187.152344 C 146.167969 187.152344 138.878906 179.851562 138.878906 170.847656 L 271.710938 170.847656 C 271.710938 179.851562 264.417969 187.152344 255.425781 187.152344 " fill-opacity="1" fill-rule="evenodd"/><path fill="#cfd8dd" d="M 212.277344 139.660156 C 212.277344 135.808594 209.140625 132.671875 205.296875 132.671875 C 201.449219 132.671875 198.3125 135.808594 198.3125 139.660156 C 198.3125 143.507812 201.449219 146.648438 205.296875 146.648438 C 209.140625 146.648438 212.277344 143.507812 212.277344 139.660156 " fill-opacity="1" fill-rule="evenodd"/><path fill="#72b8ce" d="M 186.183594 75.429688 C 185.28125 75.429688 184.371094 75.148438 183.601562 74.558594 L 160.96875 57.253906 C 159.910156 56.445312 159.292969 55.191406 159.292969 53.863281 C 159.292969 52.535156 159.914062 51.28125 160.96875 50.476562 L 183.597656 33.171875 C 185.46875 31.742188 188.140625 32.101562 189.570312 33.972656 C 191 35.84375 190.640625 38.519531 188.769531 39.949219 L 170.574219 53.867188 L 188.695312 67.71875 C 190.566406 69.152344 190.996094 71.90625 189.558594 73.769531 C 188.722656 74.863281 187.457031 75.429688 186.183594 75.429688 " fill-opacity="1" fill-rule="evenodd"/><path fill="#72b8ce" d="M 224.40625 75.429688 C 223.121094 75.429688 221.855469 74.855469 221.015625 73.757812 C 219.589844 71.886719 219.945312 69.207031 221.816406 67.777344 L 240.015625 53.863281 L 221.816406 39.949219 C 219.949219 38.519531 219.589844 35.84375 221.015625 33.972656 C 222.445312 32.101562 225.121094 31.742188 226.988281 33.171875 L 249.621094 50.472656 C 250.675781 51.28125 251.292969 52.53125 251.292969 53.863281 C 251.292969 55.191406 250.675781 56.445312 249.621094 57.253906 L 226.988281 74.554688 C 226.21875 75.148438 225.308594 75.429688 224.40625 75.429688 " fill-opacity="1" fill-rule="evenodd"/><path fill="#72b8ce" d="M 197.902344 84.621094 C 197.523438 84.621094 197.136719 84.570312 196.75 84.460938 C 194.484375 83.828125 193.164062 81.472656 193.796875 79.207031 L 208.585938 26.226562 C 209.21875 23.957031 211.566406 22.632812 213.835938 23.265625 C 216.101562 23.902344 217.425781 26.253906 216.792969 28.523438 L 202 81.503906 C 201.476562 83.386719 199.765625 84.621094 197.902344 84.621094 " fill-opacity="1" fill-rule="evenodd"/><g clip-path="url(#81fbc2a676)"><path fill="#ffa96b" d="M 291.09375 191.417969 L 27.03125 191.417969 C 24.640625 191.417969 22.628906 189.457031 22.671875 187.070312 C 22.71875 184.753906 24.609375 182.886719 26.9375 182.886719 L 291 182.886719 C 293.386719 182.886719 295.398438 184.84375 295.355469 187.230469 C 295.308594 189.550781 293.421875 191.417969 291.09375 191.417969 " fill-opacity="1" fill-rule="evenodd"/></g></svg>