<svg xmlns="http://www.w3.org/2000/svg" xmlns:xlink="http://www.w3.org/1999/xlink" width="450" zoomAndPan="magnify" viewBox="0 0 337.5 225" height="300" preserveAspectRatio="xMidYMid meet" version="1.0"><defs><clipPath id="88761a583a"><path d="M 0 0.167969 L 337 0.167969 L 337 224.832031 L 0 224.832031 Z M 0 0.167969 " clip-rule="nonzero"/></clipPath><clipPath id="e812167150"><path d="M 72.511719 61 L 252.511719 61 L 252.511719 187 L 72.511719 187 Z M 72.511719 61 " clip-rule="nonzero"/></clipPath><clipPath id="f147cf0065"><path d="M 119 192 L 206 192 L 206 213.316406 L 119 213.316406 Z M 119 192 " clip-rule="nonzero"/></clipPath><clipPath id="49153a3763"><path d="M 131 25.066406 L 194 25.066406 L 194 64 L 131 64 Z M 131 25.066406 " clip-rule="nonzero"/></clipPath></defs><g clip-path="url(#88761a583a)"><path fill="#ffffff" d="M 0 0.167969 L 337.5 0.167969 L 337.5 225.167969 L 0 225.167969 Z M 0 0.167969 " fill-opacity="1" fill-rule="nonzero"/><path fill="#ffffff" d="M 0 0.167969 L 337.5 0.167969 L 337.5 225.167969 L 0 225.167969 Z M 0 0.167969 " fill-opacity="1" fill-rule="nonzero"/></g><path fill="#afb4c8" d="M 135.296875 183.398438 L 189.40625 183.398438 L 189.40625 195.722656 L 135.296875 195.722656 Z M 135.296875 183.398438 " fill-opacity="1" fill-rule="nonzero"/><path fill="#dce1eb" d="M 122.347656 195.722656 L 202.351562 195.722656 L 202.351562 210.371094 L 122.347656 210.371094 Z M 122.347656 195.722656 " fill-opacity="1" fill-rule="nonzero"/><path fill="#dce1eb" d="M 249.210938 70.242188 L 249.210938 177.515625 C 249.210938 180.78125 246.558594 183.398438 243.3125 183.398438 L 81.417969 183.398438 C 78.175781 183.398438 75.519531 180.78125 75.519531 177.515625 L 75.519531 70.242188 C 75.519531 66.980469 78.175781 64.359375 81.417969 64.359375 L 243.3125 64.359375 C 246.558594 64.359375 249.210938 66.980469 249.210938 70.242188 Z M 236.5 172.515625 L 236.5 75.242188 L 88.230469 75.242188 L 88.230469 172.515625 Z M 236.5 172.515625 " fill-opacity="1" fill-rule="nonzero"/><path fill="#4db7e5" d="M 88.230469 75.242188 L 236.5 75.242188 L 236.5 172.515625 L 88.230469 172.515625 Z M 88.230469 75.242188 " fill-opacity="1" fill-rule="nonzero"/><path fill="#afb4c8" d="M 162.351562 116.101562 L 150.851562 124.042969 L 144.15625 110.457031 C 149.964844 109.75 153.859375 109.777344 153.859375 109.777344 Z M 162.351562 116.101562 " fill-opacity="1" fill-rule="nonzero"/><path fill="#afb4c8" d="M 180.574219 110.457031 L 173.851562 124.042969 L 162.351562 116.101562 L 170.875 109.777344 C 170.875 109.777344 174.765625 109.75 180.574219 110.457031 Z M 180.574219 110.457031 " fill-opacity="1" fill-rule="nonzero"/><path fill="#e9edf5" d="M 135.222656 134.046875 L 135.222656 172.609375 L 114.816406 172.609375 C 114.816406 139.691406 124.015625 114.957031 124.015625 114.957031 C 131.917969 124.78125 135.222656 134.046875 135.222656 134.046875 Z M 135.222656 134.046875 " fill-opacity="1" fill-rule="nonzero"/><path fill="#e9edf5" d="M 209.917969 172.609375 L 189.480469 172.609375 L 189.480469 134.046875 C 189.480469 134.046875 192.785156 124.78125 200.714844 114.957031 C 200.714844 114.957031 209.917969 139.691406 209.917969 172.609375 Z M 209.917969 172.609375 " fill-opacity="1" fill-rule="nonzero"/><path fill="#de4132" d="M 200.714844 114.957031 C 192.785156 124.78125 189.480469 134.046875 189.480469 134.046875 L 189.480469 172.609375 L 162.351562 172.609375 L 162.351562 116.101562 L 173.851562 124.042969 L 180.574219 110.457031 C 186.121094 111.074219 193.433594 112.367188 200.714844 114.957031 Z M 200.714844 114.957031 " fill-opacity="1" fill-rule="nonzero"/><path fill="#f35244" d="M 162.351562 116.101562 L 162.351562 172.609375 L 135.222656 172.609375 L 135.222656 134.046875 C 135.222656 134.046875 131.917969 124.78125 124.015625 114.957031 C 131.300781 112.367188 138.613281 111.074219 144.15625 110.457031 L 150.851562 124.042969 Z M 162.351562 116.101562 " fill-opacity="1" fill-rule="nonzero"/><path fill="#804a32" d="M 190.570312 56.15625 L 190.570312 63.039062 L 180.515625 63.039062 C 165.652344 63.039062 164.503906 55.332031 164.503906 55.332031 C 153.355469 63.453125 144.214844 63.039062 144.214844 63.039062 L 134.128906 63.039062 L 134.128906 56.15625 C 134.128906 40.625 146.78125 28.007812 162.351562 28.007812 C 170.136719 28.007812 177.214844 31.15625 182.316406 36.242188 C 187.417969 41.363281 190.570312 48.390625 190.570312 56.15625 Z M 190.570312 56.15625 " fill-opacity="1" fill-rule="nonzero"/><path fill="#f35244" d="M 197.324219 65.980469 L 197.324219 78.804688 C 197.324219 80.425781 196 81.746094 194.375 81.746094 L 180.515625 81.746094 L 180.515625 63.039062 L 194.375 63.039062 C 196 63.039062 197.324219 64.363281 197.324219 65.980469 Z M 197.324219 65.980469 " fill-opacity="1" fill-rule="nonzero"/><path fill="#f35244" d="M 144.214844 63.039062 L 144.214844 81.746094 L 130.355469 81.746094 C 128.703125 81.746094 127.40625 80.425781 127.40625 78.804688 L 127.40625 65.980469 C 127.40625 64.363281 128.703125 63.039062 130.355469 63.039062 Z M 144.214844 63.039062 " fill-opacity="1" fill-rule="nonzero"/><path fill="#faa68e" d="M 170.875 100.101562 L 170.875 109.777344 L 162.351562 116.101562 L 153.859375 109.777344 L 153.859375 100.101562 C 156.394531 101.453125 159.285156 102.21875 162.351562 102.21875 C 165.417969 102.21875 168.335938 101.453125 170.875 100.101562 Z M 170.875 100.101562 " fill-opacity="1" fill-rule="nonzero"/><path fill="#ffbeaa" d="M 170.875 100.101562 C 168.335938 101.453125 165.417969 102.21875 162.351562 102.21875 C 159.285156 102.21875 156.394531 101.453125 153.859375 100.101562 C 152.238281 99.277344 150.792969 98.191406 149.523438 96.925781 C 146.25 93.628906 144.214844 89.128906 144.214844 84.128906 L 144.214844 63.039062 C 144.214844 63.039062 153.355469 63.453125 164.503906 55.332031 C 164.503906 55.332031 165.652344 63.039062 180.515625 63.039062 L 180.515625 84.128906 C 180.515625 91.042969 176.59375 97.070312 170.875 100.101562 Z M 170.875 100.101562 " fill-opacity="1" fill-rule="nonzero"/><g clip-path="url(#e812167150)"><path fill="#000000" d="M 243.3125 186.34375 L 81.417969 186.34375 C 76.542969 186.34375 72.570312 182.382812 72.570312 177.519531 L 72.570312 70.246094 C 72.570312 65.382812 76.542969 61.421875 81.417969 61.421875 L 119.839844 61.421875 L 119.839844 67.304688 L 81.417969 67.304688 C 79.789062 67.304688 78.46875 68.625 78.46875 70.246094 L 78.46875 177.519531 C 78.46875 179.144531 79.789062 180.460938 81.417969 180.460938 L 243.3125 180.460938 C 244.941406 180.460938 246.261719 179.144531 246.261719 177.519531 L 246.261719 70.246094 C 246.261719 68.625 244.941406 67.304688 243.3125 67.304688 L 204.730469 67.304688 L 204.730469 61.421875 L 243.3125 61.421875 C 248.191406 61.421875 252.160156 65.382812 252.160156 70.246094 L 252.160156 177.519531 C 252.160156 182.382812 248.191406 186.34375 243.3125 186.34375 Z M 243.3125 186.34375 " fill-opacity="1" fill-rule="nonzero"/></g><path fill="#000000" d="M 236.5 175.460938 L 88.230469 175.460938 C 86.601562 175.460938 85.28125 174.144531 85.28125 172.519531 L 85.28125 75.246094 C 85.28125 73.625 86.601562 72.304688 88.230469 72.304688 L 127.398438 72.304688 L 127.398438 78.1875 L 91.179688 78.1875 L 91.179688 169.578125 L 233.550781 169.578125 L 233.550781 78.1875 L 197.335938 78.1875 L 197.335938 72.304688 L 236.5 72.304688 C 238.132812 72.304688 239.449219 73.625 239.449219 75.246094 L 239.449219 172.519531 C 239.449219 174.144531 238.132812 175.460938 236.5 175.460938 Z M 236.5 175.460938 " fill-opacity="1" fill-rule="nonzero"/><path fill="#000000" d="M 189.429688 198.691406 L 135.304688 198.691406 C 133.671875 198.691406 132.355469 197.378906 132.355469 195.75 L 132.355469 183.410156 L 138.253906 183.410156 L 138.253906 192.808594 L 186.480469 192.808594 L 186.480469 183.410156 L 192.375 183.410156 L 192.375 195.75 C 192.375 197.378906 191.058594 198.691406 189.429688 198.691406 Z M 189.429688 198.691406 " fill-opacity="1" fill-rule="nonzero"/><g clip-path="url(#f147cf0065)"><path fill="#000000" d="M 202.363281 213.3125 L 122.367188 213.3125 C 120.738281 213.3125 119.417969 212 119.417969 210.371094 L 119.417969 195.75 C 119.417969 194.125 120.738281 192.808594 122.367188 192.808594 L 202.367188 192.808594 C 204 192.808594 205.316406 194.125 205.316406 195.75 L 205.316406 210.371094 C 205.316406 212 204 213.3125 202.367188 213.3125 Z M 125.3125 207.429688 L 199.414062 207.429688 L 199.414062 198.691406 L 125.316406 198.691406 L 125.316406 207.429688 Z M 125.3125 207.429688 " fill-opacity="1" fill-rule="nonzero"/></g><path fill="#000000" d="M 97.386719 85.1875 L 103.285156 85.1875 L 103.285156 92.121094 L 97.386719 92.121094 Z M 97.386719 85.1875 " fill-opacity="1" fill-rule="nonzero"/><path fill="#000000" d="M 97.386719 96.386719 L 103.285156 96.386719 L 103.285156 123.882812 L 97.386719 123.882812 Z M 97.386719 96.386719 " fill-opacity="1" fill-rule="nonzero"/><path fill="#000000" d="M 162.367188 105.160156 C 150.734375 105.160156 141.269531 95.722656 141.269531 84.117188 L 141.269531 63.050781 C 141.269531 62.246094 141.597656 61.476562 142.183594 60.921875 C 142.761719 60.371094 143.558594 60.097656 144.351562 60.109375 C 144.464844 60.121094 152.738281 60.285156 162.761719 52.949219 C 163.59375 52.34375 164.6875 52.210938 165.640625 52.605469 C 166.59375 53.003906 167.269531 53.867188 167.421875 54.886719 C 167.457031 55.011719 168.726562 60.105469 180.511719 60.105469 C 182.144531 60.105469 183.460938 61.421875 183.460938 63.046875 L 183.460938 84.113281 C 183.460938 95.714844 174 105.15625 162.367188 105.15625 Z M 147.167969 65.800781 L 147.167969 84.117188 C 147.167969 92.476562 153.984375 99.28125 162.367188 99.28125 C 170.746094 99.28125 177.566406 92.480469 177.566406 84.117188 L 177.566406 65.890625 C 169.375 65.296875 165.351562 62.242188 163.398438 59.640625 C 156.542969 63.972656 150.589844 65.363281 147.164062 65.800781 Z M 147.167969 65.800781 " fill-opacity="1" fill-rule="nonzero"/><g clip-path="url(#49153a3763)"><path fill="#000000" d="M 193.539062 63.050781 L 187.640625 63.050781 L 187.640625 56.164062 C 187.640625 42.261719 176.300781 30.953125 162.367188 30.953125 C 148.429688 30.953125 137.089844 42.261719 137.089844 56.164062 L 137.089844 63.050781 L 131.191406 63.050781 L 131.191406 56.164062 C 131.191406 39.019531 145.175781 25.066406 162.367188 25.066406 C 179.554688 25.066406 193.539062 39.015625 193.539062 56.160156 Z M 193.539062 63.050781 " fill-opacity="1" fill-rule="nonzero"/></g><path fill="#000000" d="M 162.367188 119.054688 C 161.746094 119.054688 161.128906 118.859375 160.601562 118.472656 L 152.09375 112.148438 C 151.347656 111.597656 150.910156 110.71875 150.910156 109.789062 L 150.910156 98.339844 L 156.808594 98.339844 L 156.808594 108.3125 L 162.367188 112.445312 L 167.925781 108.3125 L 167.925781 98.339844 L 173.824219 98.339844 L 173.824219 109.789062 C 173.824219 110.71875 173.382812 111.59375 172.636719 112.148438 L 164.128906 118.472656 C 163.605469 118.859375 162.984375 119.054688 162.367188 119.054688 Z M 162.367188 119.054688 " fill-opacity="1" fill-rule="nonzero"/><path fill="#000000" d="M 209.917969 175.550781 L 114.8125 175.550781 C 113.179688 175.550781 111.863281 174.238281 111.863281 172.609375 C 111.863281 139.550781 120.871094 114.949219 121.253906 113.921875 C 121.558594 113.101562 122.207031 112.464844 123.035156 112.171875 C 138.28125 106.761719 153.210938 106.84375 153.890625 106.847656 L 153.835938 112.730469 C 153.636719 112.695312 140.101562 112.675781 126.339844 117.257812 C 124.582031 122.519531 118.238281 143.277344 117.789062 169.667969 L 206.949219 169.667969 C 206.5 143.277344 200.152344 122.519531 198.398438 117.257812 C 184.640625 112.679688 171.125 112.75 170.902344 112.730469 L 170.847656 106.847656 C 171.53125 106.863281 186.480469 106.769531 201.703125 112.171875 C 202.527344 112.464844 203.179688 113.101562 203.484375 113.921875 C 203.867188 114.949219 212.875 139.550781 212.875 172.609375 C 212.875 174.238281 211.554688 175.550781 209.925781 175.550781 Z M 209.917969 175.550781 " fill-opacity="1" fill-rule="nonzero"/><path fill="#000000" d="M 138.183594 172.609375 L 132.285156 172.609375 L 132.285156 134.597656 C 131.53125 132.679688 128.238281 124.890625 121.71875 116.78125 L 126.320312 113.101562 C 134.453125 123.214844 137.871094 132.671875 138.015625 133.070312 C 138.125 133.382812 138.183594 133.71875 138.183594 134.054688 Z M 138.183594 172.609375 " fill-opacity="1" fill-rule="nonzero"/><path fill="#000000" d="M 192.449219 172.609375 L 186.550781 172.609375 L 186.550781 134.058594 C 186.550781 133.722656 186.609375 133.386719 186.722656 133.070312 C 186.863281 132.675781 190.28125 123.21875 198.414062 113.105469 L 203.015625 116.785156 C 196.464844 124.9375 193.199219 132.683594 192.449219 134.597656 L 192.449219 172.613281 Z M 192.449219 172.609375 " fill-opacity="1" fill-rule="nonzero"/><path fill="#000000" d="M 173.867188 126.992188 C 173.273438 126.992188 172.6875 126.8125 172.1875 126.46875 L 162.367188 119.691406 L 152.542969 126.46875 C 151.839844 126.957031 150.953125 127.109375 150.121094 126.898438 C 149.292969 126.683594 148.59375 126.117188 148.21875 125.347656 L 141.125 110.945312 L 146.417969 108.351562 L 152.003906 119.6875 L 160.6875 113.695312 C 161.703125 113 163.03125 113 164.046875 113.695312 L 172.730469 119.6875 L 178.316406 108.351562 L 183.609375 110.945312 L 176.519531 125.347656 C 176.140625 126.117188 175.445312 126.683594 174.613281 126.898438 C 174.367188 126.960938 174.117188 126.992188 173.871094 126.992188 Z M 173.867188 126.992188 " fill-opacity="1" fill-rule="nonzero"/><path fill="#000000" d="M 159.417969 116.117188 L 165.316406 116.117188 L 165.316406 172.613281 L 159.417969 172.613281 Z M 159.417969 116.117188 " fill-opacity="1" fill-rule="nonzero"/><path fill="#000000" d="M 194.382812 84.683594 L 180.511719 84.683594 C 178.882812 84.683594 177.566406 83.367188 177.566406 81.742188 L 177.566406 63.050781 C 177.566406 61.425781 178.882812 60.109375 180.511719 60.109375 L 194.382812 60.109375 C 197.636719 60.109375 200.28125 62.746094 200.28125 65.992188 L 200.28125 78.800781 C 200.28125 82.042969 197.636719 84.683594 194.382812 84.683594 Z M 183.460938 78.800781 L 194.386719 78.800781 L 194.386719 65.992188 L 183.460938 65.992188 Z M 183.460938 78.800781 " fill-opacity="1" fill-rule="nonzero"/><path fill="#000000" d="M 144.21875 84.683594 L 130.351562 84.683594 C 127.097656 84.683594 124.453125 82.042969 124.453125 78.800781 L 124.453125 65.992188 C 124.453125 62.746094 127.097656 60.109375 130.351562 60.109375 L 144.21875 60.109375 C 145.847656 60.109375 147.167969 61.425781 147.167969 63.050781 L 147.167969 81.742188 C 147.167969 83.367188 145.847656 84.683594 144.21875 84.683594 Z M 130.351562 65.992188 L 130.351562 78.800781 L 141.269531 78.800781 L 141.269531 65.992188 Z M 130.351562 65.992188 " fill-opacity="1" fill-rule="nonzero"/><path fill="#000000" d="M 164.425781 96.191406 L 134.140625 96.191406 C 132.507812 96.191406 131.191406 94.875 131.191406 93.25 L 131.191406 81.742188 L 137.089844 81.742188 L 137.089844 90.308594 L 164.425781 90.308594 Z M 164.425781 96.191406 " fill-opacity="1" fill-rule="nonzero"/></svg>