<svg xmlns="http://www.w3.org/2000/svg" xmlns:xlink="http://www.w3.org/1999/xlink" width="450" zoomAndPan="magnify" viewBox="0 0 337.5 225" height="300" preserveAspectRatio="xMidYMid meet" version="1.0"><defs><clipPath id="2fba93b3bf"><path d="M 0 0.167969 L 337 0.167969 L 337 224.832031 L 0 224.832031 Z M 0 0.167969 " clip-rule="nonzero"/></clipPath><clipPath id="227c9854b3"><path d="M 122.695312 64.964844 L 214.945312 64.964844 L 214.945312 160.214844 L 122.695312 160.214844 Z M 122.695312 64.964844 " clip-rule="nonzero"/></clipPath></defs><g clip-path="url(#2fba93b3bf)"><path fill="#ffffff" d="M 0 0.167969 L 337.5 0.167969 L 337.5 922.667969 L 0 922.667969 Z M 0 0.167969 " fill-opacity="1" fill-rule="nonzero"/><path fill="#ffffff" d="M 0 0.167969 L 337.5 0.167969 L 337.5 225.167969 L 0 225.167969 Z M 0 0.167969 " fill-opacity="1" fill-rule="nonzero"/><path fill="#ffffff" d="M 0 0.167969 L 337.5 0.167969 L 337.5 225.167969 L 0 225.167969 Z M 0 0.167969 " fill-opacity="1" fill-rule="nonzero"/></g><g clip-path="url(#227c9854b3)"><path fill="#06552c" d="M 168.820312 64.964844 C 169.730469 64.964844 170.46875 65.699219 170.46875 66.609375 L 170.46875 71.535156 C 170.46875 72.441406 169.730469 73.175781 168.820312 73.175781 C 167.910156 73.175781 167.171875 72.441406 167.171875 71.535156 L 167.171875 66.609375 C 167.171875 65.699219 167.910156 64.964844 168.820312 64.964844 Z M 168.820312 81.386719 C 152.445312 81.386719 139.167969 94.621094 139.167969 110.945312 C 139.167969 122.386719 145.6875 132.308594 155.222656 137.222656 L 182.417969 137.222656 C 191.953125 132.308594 198.472656 122.386719 198.472656 110.945312 C 198.472656 94.621094 185.195312 81.386719 168.820312 81.386719 Z M 185.292969 139.394531 C 195.140625 133.71875 201.765625 123.101562 201.765625 110.945312 C 201.765625 92.808594 187.015625 78.101562 168.820312 78.101562 C 150.625 78.101562 135.875 92.808594 135.875 110.945312 C 135.875 123.101562 142.5 133.71875 152.347656 139.394531 L 152.347656 152 C 152.347656 156.535156 156.035156 160.210938 160.582031 160.210938 L 177.058594 160.210938 C 181.605469 160.210938 185.292969 156.535156 185.292969 152 Z M 182 150.359375 L 165.527344 150.359375 C 164.617188 150.359375 163.878906 151.09375 163.878906 152 C 163.878906 152.90625 164.617188 153.644531 165.527344 153.644531 L 181.71875 153.644531 C 181.039062 155.558594 179.207031 156.925781 177.058594 156.925781 L 160.582031 156.925781 C 157.855469 156.925781 155.640625 154.722656 155.640625 152 L 155.640625 147.074219 L 172.113281 147.074219 C 173.023438 147.074219 173.761719 146.339844 173.761719 145.433594 C 173.761719 144.527344 173.023438 143.789062 172.113281 143.789062 L 155.640625 143.789062 L 155.640625 140.503906 L 182 140.503906 Z M 213.296875 112.589844 C 214.207031 112.589844 214.945312 111.851562 214.945312 110.945312 C 214.945312 110.039062 214.207031 109.304688 213.296875 109.304688 L 208.355469 109.304688 C 207.445312 109.304688 206.707031 110.039062 206.707031 110.945312 C 206.707031 111.851562 207.445312 112.589844 208.355469 112.589844 Z M 201.433594 143.460938 C 200.792969 144.101562 199.75 144.101562 199.105469 143.460938 L 195.613281 139.976562 C 194.96875 139.335938 194.96875 138.296875 195.613281 137.652344 C 196.253906 137.011719 197.296875 137.011719 197.941406 137.652344 L 201.433594 141.136719 C 202.078125 141.777344 202.078125 142.820312 201.433594 143.460938 Z M 138.535156 143.460938 C 137.890625 144.101562 136.847656 144.101562 136.203125 143.460938 C 135.5625 142.820312 135.5625 141.777344 136.203125 141.136719 L 139.699219 137.652344 C 140.34375 137.011719 141.386719 137.011719 142.027344 137.652344 C 142.671875 138.296875 142.671875 139.335938 142.027344 139.976562 Z M 130.933594 110.945312 C 130.933594 111.851562 130.195312 112.589844 129.285156 112.589844 L 124.34375 112.589844 C 123.433594 112.589844 122.695312 111.851562 122.695312 110.945312 C 122.695312 110.039062 123.433594 109.304688 124.34375 109.304688 L 129.285156 109.304688 C 130.195312 109.304688 130.933594 110.039062 130.933594 110.945312 Z M 139.699219 84.238281 C 140.34375 84.878906 141.386719 84.878906 142.027344 84.238281 C 142.671875 83.597656 142.671875 82.558594 142.027344 81.917969 L 138.535156 78.433594 C 137.890625 77.792969 136.847656 77.792969 136.203125 78.433594 C 135.5625 79.074219 135.5625 80.113281 136.203125 80.753906 Z M 195.613281 84.238281 C 196.253906 84.878906 197.296875 84.878906 197.941406 84.238281 L 201.433594 80.753906 C 202.078125 80.113281 202.078125 79.074219 201.433594 78.433594 C 200.792969 77.792969 199.75 77.792969 199.105469 78.433594 L 195.613281 81.917969 C 194.96875 82.558594 194.96875 83.597656 195.613281 84.238281 Z M 150.699219 110.945312 C 150.699219 104.828125 153.75 99.421875 158.417969 96.152344 L 159.621094 96.953125 C 160.484375 97.527344 160.605469 98.746094 159.871094 99.480469 L 155.378906 103.960938 C 153.398438 105.933594 154.800781 109.304688 157.597656 109.304688 C 158.335938 109.304688 158.9375 109.902344 158.9375 110.636719 L 158.9375 111.90625 C 158.9375 113.644531 160.347656 115.050781 162.089844 115.050781 C 163.132812 115.050781 163.792969 116.160156 163.292969 117.070312 L 160.792969 121.640625 L 158.4375 125.753906 C 153.757812 122.484375 150.699219 117.070312 150.699219 110.945312 Z M 162.203125 101.804688 C 164.351562 99.660156 164.058594 96.128906 161.640625 94.355469 C 163.84375 93.40625 166.269531 92.882812 168.820312 92.882812 C 173.34375 92.882812 177.484375 94.535156 180.660156 97.269531 L 175.15625 99.554688 C 173.316406 100.320312 172.113281 102.117188 172.113281 104.105469 L 172.113281 106.453125 C 172.113281 108.320312 173.171875 110.023438 174.847656 110.859375 L 178.257812 112.5625 C 178.691406 112.773438 179.003906 113.167969 179.121094 113.632812 L 181.648438 123.707031 C 178.367188 126.984375 173.832031 129.011719 168.820312 129.011719 C 166.136719 129.011719 163.585938 128.429688 161.296875 127.382812 L 163.667969 123.242188 L 166.1875 118.644531 C 167.859375 115.585938 165.691406 111.867188 162.230469 111.769531 L 162.230469 110.636719 C 162.230469 108.207031 160.347656 106.214844 157.957031 106.035156 Z M 184.230469 120.457031 C 185.949219 117.695312 186.941406 114.4375 186.941406 110.945312 C 186.941406 106.75 185.503906 102.882812 183.09375 99.816406 L 176.421875 102.589844 C 175.808594 102.84375 175.410156 103.441406 175.410156 104.105469 L 175.410156 106.453125 C 175.410156 107.074219 175.761719 107.644531 176.320312 107.921875 L 179.734375 109.625 C 181.023438 110.265625 181.96875 111.441406 182.316406 112.835938 Z M 168.820312 89.597656 C 156.992188 89.597656 147.40625 99.15625 147.40625 110.945312 C 147.40625 122.738281 156.992188 132.292969 168.820312 132.292969 C 180.648438 132.292969 190.234375 122.738281 190.234375 110.945312 C 190.234375 99.15625 180.648438 89.597656 168.820312 89.597656 Z M 168.820312 89.597656 " fill-opacity="1" fill-rule="evenodd"/></g></svg>