<svg xmlns="http://www.w3.org/2000/svg" xmlns:xlink="http://www.w3.org/1999/xlink" width="450" zoomAndPan="magnify" viewBox="0 0 337.5 225" height="300" preserveAspectRatio="xMidYMid meet" version="1.0"><defs><clipPath id="bb869fcf80"><path d="M 0 0.167969 L 337 0.167969 L 337 224.832031 L 0 224.832031 Z M 0 0.167969 " clip-rule="nonzero"/></clipPath><clipPath id="85ef00e5ed"><path d="M 123.75 67.667969 L 213.75 67.667969 L 213.75 157.667969 L 123.75 157.667969 Z M 123.75 67.667969 " clip-rule="nonzero"/></clipPath></defs><g clip-path="url(#bb869fcf80)"><path fill="#ffffff" d="M 0 0.167969 L 337.5 0.167969 L 337.5 225.167969 L 0 225.167969 Z M 0 0.167969 " fill-opacity="1" fill-rule="nonzero"/><path fill="#ffffff" d="M 0 0.167969 L 337.5 0.167969 L 337.5 225.167969 L 0 225.167969 Z M 0 0.167969 " fill-opacity="1" fill-rule="nonzero"/></g><g clip-path="url(#85ef00e5ed)"><path fill="#06552c" d="M 213.484375 119.753906 C 213.484375 119.753906 211.726562 106.707031 211.375 104.554688 C 211.375 104.554688 209.402344 95.652344 202.585938 93.71875 L 203.398438 96.710938 L 200.46875 96.671875 L 198.210938 99.496094 L 195.863281 96.671875 L 192.9375 96.710938 L 193.75 93.71875 C 190.417969 94.667969 188.246094 97.269531 186.886719 99.695312 L 188.816406 112.417969 C 189 111.15625 189.183594 109.851562 189.390625 108.601562 C 190.152344 103.796875 191.011719 102.828125 191.21875 102.335938 C 191.09375 102.683594 190.640625 105.652344 191.730469 107.65625 C 193.089844 110.175781 190.488281 110.964844 189.566406 117.367188 L 190.28125 122.035156 L 191.035156 122.035156 L 191.722656 144.785156 C 191.722656 146.8125 193 148.449219 194.757812 148.449219 C 196.515625 148.449219 197.65625 146.8125 197.65625 144.785156 L 197.65625 122.035156 L 198.679688 122.035156 L 198.679688 144.785156 C 198.679688 146.8125 199.816406 148.449219 201.574219 148.449219 C 203.332031 148.449219 204.613281 146.8125 204.613281 144.785156 L 205.296875 122.035156 L 207.070312 122.035156 C 207.070312 111.210938 202.96875 110.6875 204.605469 107.664062 C 205.6875 105.652344 205.234375 102.683594 205.105469 102.335938 C 205.3125 102.828125 206.179688 103.796875 206.945312 108.601562 C 207.8125 114.074219 208.550781 120.566406 208.550781 120.566406 C 208.878906 122.242188 209.617188 123.492188 211.484375 123.238281 C 213.269531 122.992188 213.738281 121.28125 213.484375 119.753906 Z M 194.765625 91.460938 L 194.765625 93.257812 L 198.117188 96.839844 L 201.496094 93.257812 L 201.496094 91.476562 C 204.835938 91.476562 205.886719 88.613281 205.886719 88.613281 C 203.152344 87.546875 204.644531 86.148438 204.582031 84.269531 C 204.636719 80.96875 203.0625 77.015625 198.164062 76.882812 C 193.273438 77.015625 191.695312 80.96875 191.738281 84.269531 C 191.6875 86.148438 193.175781 87.546875 190.441406 88.613281 C 190.441406 88.605469 191.464844 91.460938 194.765625 91.460938 Z M 143.75 93.71875 L 144.5625 96.710938 L 141.636719 96.671875 L 139.289062 99.496094 L 137.039062 96.671875 L 134.101562 96.710938 L 134.914062 93.71875 C 128.097656 95.652344 126.125 104.554688 126.125 104.554688 C 125.773438 106.707031 124.015625 119.753906 124.015625 119.753906 C 123.761719 121.28125 124.230469 122.992188 126.011719 123.238281 C 127.882812 123.492188 128.621094 122.242188 128.949219 120.566406 C 128.949219 120.566406 129.6875 114.074219 130.554688 108.601562 C 131.328125 103.796875 132.1875 102.828125 132.394531 102.335938 C 132.265625 102.683594 131.8125 105.652344 132.902344 107.664062 C 134.53125 110.6875 130.4375 111.210938 130.4375 122.035156 L 132.203125 122.035156 L 132.886719 144.792969 C 132.886719 146.8125 134.167969 148.449219 135.925781 148.449219 C 137.683594 148.449219 138.820312 146.8125 138.820312 144.792969 L 138.820312 122.035156 L 139.84375 122.035156 L 139.84375 144.792969 C 139.84375 146.8125 140.984375 148.449219 142.742188 148.449219 C 144.5 148.449219 145.777344 146.8125 145.777344 144.792969 L 146.464844 122.035156 L 147.21875 122.035156 L 147.933594 117.367188 C 147.011719 110.964844 144.410156 110.175781 145.769531 107.664062 C 146.859375 105.652344 146.40625 102.683594 146.28125 102.335938 C 146.488281 102.828125 147.347656 103.796875 148.109375 108.609375 C 148.308594 109.851562 148.5 111.15625 148.683594 112.429688 L 150.613281 99.695312 C 149.253906 97.277344 147.082031 94.667969 143.75 93.71875 Z M 136.003906 91.476562 L 136.003906 93.257812 L 139.382812 96.839844 L 142.734375 93.257812 L 142.734375 91.460938 C 146.035156 91.460938 147.058594 88.613281 147.058594 88.613281 C 144.324219 87.546875 145.8125 86.140625 145.761719 84.269531 C 145.8125 80.96875 144.226562 77.015625 139.335938 76.882812 C 134.4375 77.015625 132.863281 80.96875 132.910156 84.269531 C 132.863281 86.148438 134.347656 87.546875 131.613281 88.613281 C 131.613281 88.605469 132.664062 91.476562 136.003906 91.476562 Z M 185.285156 102.507812 C 185.285156 102.507812 182.8125 91.367188 174.285156 88.949219 L 175.296875 92.695312 L 171.628906 92.644531 L 168.695312 96.179688 L 165.871094 92.644531 L 162.203125 92.695312 L 163.222656 88.949219 C 154.6875 91.367188 152.207031 102.507812 152.207031 102.507812 C 151.769531 105.207031 149.574219 121.542969 149.574219 121.542969 C 149.253906 123.453125 149.84375 125.589844 152.070312 125.894531 C 154.417969 126.210938 155.339844 124.660156 155.746094 122.554688 C 155.746094 122.554688 156.675781 114.425781 157.765625 107.582031 C 158.726562 101.5625 159.800781 100.355469 160.054688 99.734375 C 159.898438 100.171875 159.332031 103.886719 160.691406 106.398438 C 162.746094 110.191406 157.605469 110.84375 157.605469 124.398438 L 159.824219 124.398438 L 160.675781 152.882812 C 160.675781 155.410156 162.285156 157.460938 164.488281 157.460938 C 166.683594 157.460938 168.113281 155.410156 168.113281 152.882812 L 168.113281 124.398438 L 169.394531 124.398438 L 169.394531 152.882812 C 169.394531 155.410156 170.816406 157.460938 173.011719 157.460938 C 175.214844 157.460938 176.824219 155.410156 176.824219 152.882812 L 177.683594 124.398438 L 179.894531 124.398438 C 179.894531 110.84375 174.761719 110.191406 176.816406 106.398438 C 178.175781 103.886719 177.601562 100.171875 177.445312 99.734375 C 177.707031 100.355469 178.78125 101.5625 179.742188 107.582031 C 180.832031 114.425781 181.753906 122.554688 181.753906 122.554688 C 182.160156 124.660156 183.089844 126.21875 185.429688 125.894531 C 187.65625 125.589844 188.246094 123.453125 187.925781 121.542969 C 187.917969 121.542969 185.730469 105.207031 185.285156 102.507812 Z M 159.078125 82.554688 C 162.515625 81.226562 160.636719 79.46875 160.707031 77.121094 C 160.644531 72.984375 162.617188 68.035156 168.75 67.871094 C 174.882812 68.035156 176.847656 72.984375 176.792969 77.121094 C 176.855469 79.46875 174.992188 81.226562 178.421875 82.554688 C 178.421875 82.554688 177.132812 86.117188 173.003906 86.117188 L 173.003906 88.367188 L 168.8125 92.851562 L 164.582031 88.367188 L 164.582031 86.140625 C 160.398438 86.140625 159.078125 82.554688 159.078125 82.554688 " fill-opacity="1" fill-rule="nonzero"/></g></svg>