<svg xmlns="http://www.w3.org/2000/svg" xmlns:xlink="http://www.w3.org/1999/xlink" width="450" zoomAndPan="magnify" viewBox="0 0 337.5 225" height="300" preserveAspectRatio="xMidYMid meet" version="1.0"><defs><clipPath id="70f991364c"><path d="M 0 0.167969 L 337 0.167969 L 337 224.832031 L 0 224.832031 Z M 0 0.167969 " clip-rule="nonzero"/></clipPath><clipPath id="a73e4228e4"><path d="M 180 67.667969 L 213.738281 67.667969 L 213.738281 100 L 180 100 Z M 180 67.667969 " clip-rule="nonzero"/></clipPath><clipPath id="9efbfcf625"><path d="M 126 91 L 182 91 L 182 158.417969 L 126 158.417969 Z M 126 91 " clip-rule="nonzero"/></clipPath></defs><g clip-path="url(#70f991364c)"><path fill="#ffffff" d="M 0 0.167969 L 337.5 0.167969 L 337.5 225.167969 L 0 225.167969 Z M 0 0.167969 " fill-opacity="1" fill-rule="nonzero"/><path fill="#ffffff" d="M 0 0.167969 L 337.5 0.167969 L 337.5 225.167969 L 0 225.167969 Z M 0 0.167969 " fill-opacity="1" fill-rule="nonzero"/></g><path fill="#06552c" d="M 206.035156 83.714844 C 206.035156 84.320312 205.976562 84.917969 205.859375 85.507812 C 205.742188 86.097656 205.570312 86.671875 205.335938 87.230469 C 205.105469 87.785156 204.824219 88.316406 204.488281 88.816406 C 204.15625 89.320312 203.773438 89.78125 203.347656 90.207031 C 202.921875 90.636719 202.457031 91.015625 201.957031 91.351562 C 201.453125 91.6875 200.925781 91.96875 200.367188 92.199219 C 199.8125 92.429688 199.238281 92.605469 198.644531 92.722656 C 198.054688 92.839844 197.457031 92.898438 196.855469 92.898438 C 196.25 92.898438 195.65625 92.839844 195.0625 92.722656 C 194.472656 92.605469 193.898438 92.429688 193.339844 92.199219 C 192.785156 91.96875 192.253906 91.6875 191.753906 91.351562 C 191.253906 91.015625 190.789062 90.636719 190.363281 90.207031 C 189.9375 89.78125 189.554688 89.320312 189.21875 88.816406 C 188.886719 88.316406 188.601562 87.785156 188.371094 87.230469 C 188.140625 86.671875 187.964844 86.097656 187.847656 85.507812 C 187.730469 84.917969 187.671875 84.320312 187.671875 83.714844 C 187.671875 83.113281 187.730469 82.515625 187.847656 81.925781 C 187.964844 81.332031 188.140625 80.757812 188.371094 80.203125 C 188.601562 79.644531 188.886719 79.117188 189.21875 78.613281 C 189.554688 78.113281 189.9375 77.648438 190.363281 77.222656 C 190.789062 76.796875 191.253906 76.417969 191.753906 76.082031 C 192.253906 75.746094 192.785156 75.464844 193.339844 75.234375 C 193.898438 75.003906 194.472656 74.828125 195.0625 74.710938 C 195.65625 74.59375 196.25 74.535156 196.855469 74.535156 C 197.457031 74.535156 198.054688 74.59375 198.644531 74.710938 C 199.238281 74.828125 199.8125 75.003906 200.367188 75.234375 C 200.925781 75.464844 201.453125 75.746094 201.957031 76.082031 C 202.457031 76.417969 202.921875 76.796875 203.347656 77.222656 C 203.773438 77.648438 204.15625 78.113281 204.488281 78.613281 C 204.824219 79.117188 205.105469 79.644531 205.335938 80.203125 C 205.570312 80.757812 205.742188 81.332031 205.859375 81.925781 C 205.976562 82.515625 206.035156 83.113281 206.035156 83.714844 Z M 206.035156 83.714844 " fill-opacity="1" fill-rule="nonzero"/><g clip-path="url(#a73e4228e4)"><path fill="#06552c" d="M 208.101562 87.121094 L 213.707031 83.714844 L 208.101562 80.3125 C 207.949219 80.214844 207.875 80.003906 207.949219 79.832031 L 210.492188 73.789062 L 203.972656 74.34375 C 203.78125 74.363281 203.605469 74.226562 203.570312 74.054688 L 202.078125 67.667969 L 197.121094 71.953125 C 196.96875 72.066406 196.757812 72.066406 196.625 71.953125 L 191.671875 67.667969 L 190.160156 74.054688 C 190.121094 74.246094 189.949219 74.363281 189.757812 74.34375 L 183.234375 73.789062 L 185.757812 79.851562 C 185.835938 80.023438 185.757812 80.234375 185.605469 80.332031 L 180 83.734375 L 185.605469 87.140625 C 185.757812 87.234375 185.835938 87.445312 185.757812 87.617188 L 183.214844 93.664062 L 189.738281 93.109375 C 189.929688 93.089844 190.101562 93.222656 190.140625 93.394531 L 191.632812 99.785156 L 196.585938 95.5 C 196.664062 95.441406 196.738281 95.402344 196.835938 95.402344 C 196.929688 95.402344 197.007812 95.441406 197.085938 95.5 L 202.039062 99.785156 L 203.550781 93.375 C 203.589844 93.183594 203.761719 93.070312 203.953125 93.089844 L 210.476562 93.644531 L 207.949219 87.597656 C 207.890625 87.40625 207.949219 87.214844 208.101562 87.121094 Z M 196.855469 93.664062 C 191.363281 93.664062 186.90625 89.207031 186.90625 83.714844 C 186.90625 78.226562 191.363281 73.769531 196.855469 73.769531 C 202.34375 73.769531 206.800781 78.226562 206.800781 83.714844 C 206.800781 89.207031 202.34375 93.664062 196.855469 93.664062 Z M 196.855469 93.664062 " fill-opacity="1" fill-rule="nonzero"/></g><path fill="#06552c" d="M 140.765625 107.914062 L 144.554688 107.914062 L 143.789062 105.621094 L 140.003906 105.621094 Z M 140.765625 107.914062 " fill-opacity="1" fill-rule="nonzero"/><path fill="#06552c" d="M 128.773438 99.496094 L 129.539062 101.792969 L 133.324219 101.792969 L 132.5625 99.496094 Z M 128.773438 99.496094 " fill-opacity="1" fill-rule="nonzero"/><path fill="#06552c" d="M 134.339844 104.855469 L 133.574219 102.558594 L 129.785156 102.558594 L 130.550781 104.855469 Z M 134.339844 104.855469 " fill-opacity="1" fill-rule="nonzero"/><path fill="#06552c" d="M 153.738281 107.914062 L 152.972656 105.621094 L 149.183594 105.621094 L 149.949219 107.914062 Z M 153.738281 107.914062 " fill-opacity="1" fill-rule="nonzero"/><path fill="#06552c" d="M 160.355469 114.035156 L 159.589844 111.742188 L 155.804688 111.742188 L 156.566406 114.035156 Z M 160.355469 114.035156 " fill-opacity="1" fill-rule="nonzero"/><path fill="#06552c" d="M 143.558594 102.558594 L 144.324219 104.855469 L 148.113281 104.855469 L 147.347656 102.558594 Z M 143.558594 102.558594 " fill-opacity="1" fill-rule="nonzero"/><path fill="#06552c" d="M 145.359375 107.914062 L 149.144531 107.914062 L 148.378906 105.621094 L 144.59375 105.621094 Z M 145.359375 107.914062 " fill-opacity="1" fill-rule="nonzero"/><path fill="#06552c" d="M 190.503906 116.332031 L 191.269531 118.628906 L 195.054688 118.628906 L 194.292969 116.332031 Z M 190.503906 116.332031 " fill-opacity="1" fill-rule="nonzero"/><path fill="#06552c" d="M 185.914062 116.332031 L 186.679688 118.628906 L 190.464844 118.628906 L 189.699219 116.332031 Z M 185.914062 116.332031 " fill-opacity="1" fill-rule="nonzero"/><path fill="#06552c" d="M 187.691406 121.6875 L 191.480469 121.6875 L 190.714844 119.390625 L 186.925781 119.390625 Z M 187.691406 121.6875 " fill-opacity="1" fill-rule="nonzero"/><path fill="#06552c" d="M 191.515625 119.390625 L 192.28125 121.6875 L 196.070312 121.6875 L 195.304688 119.390625 Z M 191.515625 119.390625 " fill-opacity="1" fill-rule="nonzero"/><path fill="#06552c" d="M 170.722656 95.15625 L 170.703125 95.289062 C 170.589844 96.609375 170.914062 97.929688 171.621094 99.039062 C 171.871094 99.441406 172.082031 99.859375 172.253906 100.320312 C 172.40625 100.78125 172.523438 101.238281 172.578125 101.714844 C 172.695312 102.730469 173 103.707031 173.496094 104.625 C 173.996094 105.523438 174.644531 106.289062 175.429688 106.9375 C 175.429688 106.9375 175.449219 106.957031 175.449219 106.957031 C 175.832031 107.265625 176.367188 107.285156 176.769531 107.035156 C 177.074219 106.84375 177.4375 106.730469 177.800781 106.730469 C 178.777344 106.730469 179.582031 107.457031 179.695312 108.410156 L 179.734375 108.777344 C 179.867188 110.078125 179.160156 111.339844 177.972656 111.875 L 177.535156 112.066406 C 177.035156 112.296875 176.671875 112.714844 176.519531 113.25 C 176.367188 113.769531 176.445312 114.34375 176.75 114.78125 C 176.941406 115.070312 177.132812 115.335938 177.382812 115.566406 L 188.226562 115.566406 C 185.453125 106.441406 178.96875 99.132812 170.722656 95.15625 Z M 170.722656 95.15625 " fill-opacity="1" fill-rule="nonzero"/><path fill="#06552c" d="M 154.789062 108.679688 L 155.554688 110.976562 L 159.34375 110.976562 L 158.578125 108.679688 Z M 154.789062 108.679688 " fill-opacity="1" fill-rule="nonzero"/><path fill="#06552c" d="M 141.492188 98.734375 L 140.730469 96.4375 L 136.941406 96.4375 L 137.707031 98.734375 Z M 141.492188 98.734375 " fill-opacity="1" fill-rule="nonzero"/><path fill="#06552c" d="M 148.152344 102.558594 L 148.917969 104.855469 L 152.703125 104.855469 L 151.9375 102.558594 Z M 148.152344 102.558594 " fill-opacity="1" fill-rule="nonzero"/><path fill="#06552c" d="M 144.804688 108.679688 L 141.015625 108.679688 L 141.78125 110.976562 L 145.570312 110.976562 Z M 144.804688 108.679688 " fill-opacity="1" fill-rule="nonzero"/><path fill="#06552c" d="M 146.582031 114.035156 L 145.816406 111.742188 L 142.03125 111.742188 L 142.796875 114.035156 Z M 146.582031 114.035156 " fill-opacity="1" fill-rule="nonzero"/><path fill="#06552c" d="M 141.992188 114.035156 L 141.226562 111.742188 L 137.4375 111.742188 L 138.203125 114.035156 Z M 141.992188 114.035156 " fill-opacity="1" fill-rule="nonzero"/><path fill="#06552c" d="M 138.96875 102.558594 L 139.734375 104.855469 L 143.523438 104.855469 L 142.757812 102.558594 Z M 138.96875 102.558594 " fill-opacity="1" fill-rule="nonzero"/><path fill="#06552c" d="M 153.984375 108.679688 L 150.199219 108.679688 L 150.964844 110.976562 L 154.75 110.976562 Z M 153.984375 108.679688 " fill-opacity="1" fill-rule="nonzero"/><path fill="#06552c" d="M 149.394531 108.679688 L 145.605469 108.679688 L 146.371094 110.976562 L 150.160156 110.976562 Z M 149.394531 108.679688 " fill-opacity="1" fill-rule="nonzero"/><path fill="#06552c" d="M 151.171875 114.035156 L 150.410156 111.742188 L 146.621094 111.742188 L 147.386719 114.035156 Z M 151.171875 114.035156 " fill-opacity="1" fill-rule="nonzero"/><path fill="#06552c" d="M 140.210938 108.679688 L 136.425781 108.679688 L 137.191406 110.976562 L 140.976562 110.976562 Z M 140.210938 108.679688 " fill-opacity="1" fill-rule="nonzero"/><path fill="#06552c" d="M 133.363281 99.496094 L 134.128906 101.792969 L 137.917969 101.792969 L 137.152344 99.496094 Z M 133.363281 99.496094 " fill-opacity="1" fill-rule="nonzero"/><path fill="#06552c" d="M 134.378906 102.558594 L 135.144531 104.855469 L 138.929688 104.855469 L 138.164062 102.558594 Z M 134.378906 102.558594 " fill-opacity="1" fill-rule="nonzero"/><path fill="#06552c" d="M 136.175781 107.914062 L 139.964844 107.914062 L 139.199219 105.621094 L 135.410156 105.621094 Z M 136.175781 107.914062 " fill-opacity="1" fill-rule="nonzero"/><path fill="#06552c" d="M 135.371094 107.914062 L 134.609375 105.621094 L 130.820312 105.621094 L 131.585938 107.914062 Z M 135.371094 107.914062 " fill-opacity="1" fill-rule="nonzero"/><path fill="#06552c" d="M 136.386719 110.976562 L 135.621094 108.679688 L 131.832031 108.679688 L 132.597656 110.976562 Z M 136.386719 110.976562 " fill-opacity="1" fill-rule="nonzero"/><path fill="#06552c" d="M 137.402344 114.035156 L 136.636719 111.742188 L 132.847656 111.742188 L 133.613281 114.035156 Z M 137.402344 114.035156 " fill-opacity="1" fill-rule="nonzero"/><path fill="#06552c" d="M 169.574219 122.453125 L 170.339844 124.75 L 174.128906 124.75 L 173.363281 122.453125 Z M 169.574219 122.453125 " fill-opacity="1" fill-rule="nonzero"/><path fill="#06552c" d="M 197.351562 125.515625 L 193.5625 125.515625 L 194.328125 127.808594 L 198.117188 127.808594 Z M 197.351562 125.515625 " fill-opacity="1" fill-rule="nonzero"/><path fill="#06552c" d="M 182.546875 122.453125 L 178.757812 122.453125 L 179.523438 124.75 L 183.3125 124.75 Z M 182.546875 122.453125 " fill-opacity="1" fill-rule="nonzero"/><path fill="#06552c" d="M 182.335938 119.390625 L 183.101562 121.6875 L 186.886719 121.6875 L 186.125 119.390625 Z M 182.335938 119.390625 " fill-opacity="1" fill-rule="nonzero"/><path fill="#06552c" d="M 178.507812 121.6875 L 182.296875 121.6875 L 181.53125 119.390625 L 177.746094 119.390625 Z M 178.507812 121.6875 " fill-opacity="1" fill-rule="nonzero"/><path fill="#06552c" d="M 173.917969 121.6875 L 177.707031 121.6875 L 176.941406 119.390625 L 173.152344 119.390625 Z M 173.917969 121.6875 " fill-opacity="1" fill-rule="nonzero"/><path fill="#06552c" d="M 176.730469 116.332031 L 177.496094 118.628906 L 181.285156 118.628906 L 180.519531 116.332031 Z M 176.730469 116.332031 " fill-opacity="1" fill-rule="nonzero"/><path fill="#06552c" d="M 179.753906 127.808594 L 178.988281 125.515625 L 175.199219 125.515625 L 175.964844 127.808594 Z M 179.753906 127.808594 " fill-opacity="1" fill-rule="nonzero"/><path fill="#06552c" d="M 181.320312 116.332031 L 182.085938 118.628906 L 185.875 118.628906 L 185.109375 116.332031 Z M 181.320312 116.332031 " fill-opacity="1" fill-rule="nonzero"/><path fill="#06552c" d="M 183.347656 122.453125 L 184.113281 124.75 L 187.902344 124.75 L 187.136719 122.453125 Z M 183.347656 122.453125 " fill-opacity="1" fill-rule="nonzero"/><path fill="#06552c" d="M 177.953125 122.453125 L 174.167969 122.453125 L 174.933594 124.75 L 178.71875 124.75 Z M 177.953125 122.453125 " fill-opacity="1" fill-rule="nonzero"/><path fill="#06552c" d="M 185.148438 127.808594 L 188.933594 127.808594 L 188.171875 125.515625 L 184.382812 125.515625 Z M 185.148438 127.808594 " fill-opacity="1" fill-rule="nonzero"/><path fill="#06552c" d="M 192.492188 124.75 L 191.726562 122.453125 L 187.941406 122.453125 L 188.707031 124.75 Z M 192.492188 124.75 " fill-opacity="1" fill-rule="nonzero"/><path fill="#06552c" d="M 155.765625 114.035156 L 155 111.742188 L 151.210938 111.742188 L 151.976562 114.035156 Z M 155.765625 114.035156 " fill-opacity="1" fill-rule="nonzero"/><path fill="#06552c" d="M 175.160156 127.808594 L 174.398438 125.515625 L 170.609375 125.515625 L 171.375 127.808594 Z M 175.160156 127.808594 " fill-opacity="1" fill-rule="nonzero"/><path fill="#06552c" d="M 184.34375 127.808594 L 183.578125 125.515625 L 179.792969 125.515625 L 180.554688 127.808594 Z M 184.34375 127.808594 " fill-opacity="1" fill-rule="nonzero"/><path fill="#06552c" d="M 189.183594 128.574219 L 185.394531 128.574219 L 186.160156 130.871094 L 189.949219 130.871094 Z M 189.183594 128.574219 " fill-opacity="1" fill-rule="nonzero"/><path fill="#06552c" d="M 186.371094 133.929688 L 185.605469 131.636719 L 181.820312 131.636719 L 182.585938 133.929688 Z M 186.371094 133.929688 " fill-opacity="1" fill-rule="nonzero"/><path fill="#06552c" d="M 184.59375 128.574219 L 180.804688 128.574219 L 181.570312 130.871094 L 185.359375 130.871094 Z M 184.59375 128.574219 " fill-opacity="1" fill-rule="nonzero"/><path fill="#06552c" d="M 197.085938 124.75 L 196.320312 122.453125 L 192.53125 122.453125 L 193.296875 124.75 Z M 197.085938 124.75 " fill-opacity="1" fill-rule="nonzero"/><path fill="#06552c" d="M 192.761719 125.515625 L 188.972656 125.515625 L 189.738281 127.808594 L 193.527344 127.808594 Z M 192.761719 125.515625 " fill-opacity="1" fill-rule="nonzero"/><path fill="#06552c" d="M 194.539062 130.871094 L 193.773438 128.574219 L 189.988281 128.574219 L 190.753906 130.871094 Z M 194.539062 130.871094 " fill-opacity="1" fill-rule="nonzero"/><path fill="#06552c" d="M 181.78125 133.929688 L 181.015625 131.636719 L 177.226562 131.636719 L 177.992188 133.929688 Z M 181.78125 133.929688 " fill-opacity="1" fill-rule="nonzero"/><path fill="#06552c" d="M 175.410156 128.574219 L 171.621094 128.574219 L 172.386719 130.871094 L 176.175781 130.871094 Z M 175.410156 128.574219 " fill-opacity="1" fill-rule="nonzero"/><path fill="#06552c" d="M 167.546875 116.332031 L 168.3125 118.628906 L 172.101562 118.628906 L 171.335938 116.332031 Z M 167.546875 116.332031 " fill-opacity="1" fill-rule="nonzero"/><path fill="#06552c" d="M 169.328125 121.6875 L 173.113281 121.6875 L 172.351562 119.390625 L 168.5625 119.390625 Z M 169.328125 121.6875 " fill-opacity="1" fill-rule="nonzero"/><path fill="#06552c" d="M 180 128.574219 L 176.214844 128.574219 L 176.980469 130.871094 L 180.765625 130.871094 Z M 180 128.574219 " fill-opacity="1" fill-rule="nonzero"/><path fill="#06552c" d="M 164.488281 116.332031 L 170.339844 133.929688 L 172.597656 133.929688 L 166.746094 116.332031 Z M 164.488281 116.332031 " fill-opacity="1" fill-rule="nonzero"/><path fill="#06552c" d="M 172.140625 116.332031 L 172.90625 118.628906 L 176.691406 118.628906 L 175.925781 116.332031 Z M 172.140625 116.332031 " fill-opacity="1" fill-rule="nonzero"/><path fill="#06552c" d="M 177.191406 133.929688 L 176.425781 131.636719 L 172.636719 131.636719 L 173.402344 133.929688 Z M 177.191406 133.929688 " fill-opacity="1" fill-rule="nonzero"/><path fill="#06552c" d="M 199.132812 130.871094 L 198.367188 128.574219 L 194.578125 128.574219 L 195.34375 130.871094 Z M 199.132812 130.871094 " fill-opacity="1" fill-rule="nonzero"/><path fill="#06552c" d="M 130.820312 128.574219 L 136.671875 146.171875 L 138.929688 146.171875 L 133.078125 128.574219 Z M 130.820312 128.574219 " fill-opacity="1" fill-rule="nonzero"/><path fill="#06552c" d="M 135.660156 133.929688 L 139.449219 133.929688 L 138.683594 131.636719 L 134.894531 131.636719 Z M 135.660156 133.929688 " fill-opacity="1" fill-rule="nonzero"/><path fill="#06552c" d="M 133.878906 128.574219 L 134.644531 130.871094 L 138.433594 130.871094 L 137.667969 128.574219 Z M 133.878906 128.574219 " fill-opacity="1" fill-rule="nonzero"/><path fill="#06552c" d="M 141.742188 140.816406 L 137.957031 140.816406 L 138.71875 143.113281 L 142.507812 143.113281 Z M 141.742188 140.816406 " fill-opacity="1" fill-rule="nonzero"/><path fill="#06552c" d="M 143.523438 146.171875 L 142.757812 143.878906 L 138.96875 143.878906 L 139.734375 146.171875 Z M 143.523438 146.171875 " fill-opacity="1" fill-rule="nonzero"/><path fill="#06552c" d="M 148.113281 146.171875 L 147.347656 143.878906 L 143.558594 143.878906 L 144.324219 146.171875 Z M 148.113281 146.171875 " fill-opacity="1" fill-rule="nonzero"/><path fill="#06552c" d="M 146.332031 140.816406 L 142.546875 140.816406 L 143.3125 143.113281 L 147.097656 143.113281 Z M 146.332031 140.816406 " fill-opacity="1" fill-rule="nonzero"/><path fill="#06552c" d="M 144.839844 133.929688 L 148.628906 133.929688 L 147.863281 131.636719 L 144.078125 131.636719 Z M 144.839844 133.929688 " fill-opacity="1" fill-rule="nonzero"/><path fill="#06552c" d="M 147.652344 128.574219 L 148.417969 130.871094 L 152.207031 130.871094 L 151.441406 128.574219 Z M 147.652344 128.574219 " fill-opacity="1" fill-rule="nonzero"/><path fill="#06552c" d="M 149.433594 133.929688 L 153.21875 133.929688 L 152.457031 131.636719 L 148.667969 131.636719 Z M 149.433594 133.929688 " fill-opacity="1" fill-rule="nonzero"/><path fill="#06552c" d="M 150.925781 140.816406 L 147.136719 140.816406 L 147.902344 143.113281 L 151.691406 143.113281 Z M 150.925781 140.816406 " fill-opacity="1" fill-rule="nonzero"/><path fill="#06552c" d="M 140.25 133.929688 L 144.039062 133.929688 L 143.273438 131.636719 L 139.484375 131.636719 Z M 140.25 133.929688 " fill-opacity="1" fill-rule="nonzero"/><path fill="#06552c" d="M 143.0625 128.574219 L 143.828125 130.871094 L 147.617188 130.871094 L 146.851562 128.574219 Z M 143.0625 128.574219 " fill-opacity="1" fill-rule="nonzero"/><path fill="#06552c" d="M 138.472656 128.574219 L 139.238281 130.871094 L 143.023438 130.871094 L 142.257812 128.574219 Z M 138.472656 128.574219 " fill-opacity="1" fill-rule="nonzero"/><path fill="#06552c" d="M 157.851562 131.636719 L 158.613281 133.929688 L 162.402344 133.929688 L 161.636719 131.636719 Z M 157.851562 131.636719 " fill-opacity="1" fill-rule="nonzero"/><g clip-path="url(#9efbfcf625)"><path fill="#06552c" d="M 174.453125 149.847656 C 174.015625 149.902344 173.554688 149.941406 173.230469 149.980469 C 173.171875 149.980469 173.113281 150 173.058594 150 C 172.695312 150 172.332031 149.867188 172.042969 149.636719 C 171.621094 149.3125 171.414062 148.8125 171.433594 148.277344 C 171.449219 147.742188 171.738281 147.28125 172.175781 146.996094 L 173.152344 146.363281 C 173.480469 146.15625 173.785156 145.886719 174.035156 145.582031 C 174.207031 145.371094 174.300781 145.101562 174.300781 144.835938 C 174.300781 144.472656 174.128906 144.125 173.859375 143.898438 C 173.460938 143.570312 173.191406 143.09375 173.132812 142.578125 L 172.789062 139.402344 C 172.769531 139.304688 172.769531 139.230469 172.769531 139.113281 C 172.769531 138.539062 172.960938 137.96875 173.324219 137.527344 C 173.9375 136.761719 174.894531 136.417969 175.851562 136.628906 L 178.03125 137.085938 C 178.855469 137.257812 179.753906 137.164062 180.5 136.820312 C 181.148438 136.511719 181.550781 135.882812 181.550781 135.15625 C 181.550781 134.984375 181.53125 134.828125 181.476562 134.65625 L 170.074219 134.65625 C 169.902344 134.65625 169.765625 134.542969 169.710938 134.390625 L 163.589844 116.027344 C 163.550781 115.910156 163.570312 115.777344 163.644531 115.679688 C 163.722656 115.585938 163.835938 115.527344 163.953125 115.527344 L 176.347656 115.527344 C 176.253906 115.414062 176.175781 115.28125 176.082031 115.144531 C 175.660156 114.496094 175.542969 113.710938 175.753906 112.984375 C 175.964844 112.257812 176.480469 111.644531 177.191406 111.320312 L 177.628906 111.128906 C 178.527344 110.707031 179.0625 109.789062 178.949219 108.792969 L 178.910156 108.429688 C 178.835938 107.78125 178.28125 107.417969 177.78125 107.417969 C 177.570312 107.417969 177.363281 107.476562 177.171875 107.609375 C 176.5 108.046875 175.621094 108.011719 174.988281 107.511719 C 174.988281 107.511719 174.96875 107.492188 174.96875 107.492188 C 174.089844 106.785156 173.363281 105.925781 172.828125 104.929688 C 172.292969 103.9375 171.949219 102.863281 171.832031 101.753906 C 171.796875 101.335938 171.699219 100.933594 171.566406 100.53125 C 171.433594 100.148438 171.242188 99.765625 171.011719 99.421875 C 170.207031 98.160156 169.824219 96.667969 169.957031 95.175781 L 169.996094 94.773438 C 165.789062 92.859375 161.140625 91.808594 156.320312 91.808594 C 150.90625 91.808594 145.570312 93.128906 140.824219 95.632812 L 154.789062 95.632812 C 154.960938 95.632812 155.09375 95.75 155.152344 95.902344 L 161.273438 114.265625 C 161.3125 114.378906 161.292969 114.515625 161.214844 114.609375 C 161.140625 114.707031 161.023438 114.761719 160.910156 114.761719 L 155.785156 114.761719 C 156.472656 116.007812 157.621094 116.945312 158.996094 117.34375 L 159.4375 117.480469 C 160.585938 117.824219 161.371094 118.875 161.371094 120.0625 C 161.371094 120.195312 161.351562 120.328125 161.332031 120.484375 C 161.253906 120.980469 161.023438 121.4375 160.699219 121.820312 C 160.375 122.203125 159.953125 122.472656 159.476562 122.625 C 158.632812 122.894531 158.023438 123.601562 157.867188 124.460938 L 157.832031 124.691406 C 157.695312 125.53125 157.964844 126.394531 158.558594 127.007812 L 158.804688 127.273438 C 158.960938 127.425781 159.09375 127.597656 159.226562 127.769531 L 160.890625 127.769531 C 161.0625 127.769531 161.199219 127.886719 161.253906 128.039062 L 167.375 146.402344 C 167.414062 146.519531 167.394531 146.652344 167.320312 146.746094 C 167.242188 146.84375 167.128906 146.902344 167.011719 146.902344 L 160.144531 146.902344 C 160.222656 147.265625 160.261719 147.648438 160.261719 148.027344 C 160.261719 148.335938 160.242188 148.640625 160.183594 148.929688 C 160.089844 149.558594 159.722656 150.132812 159.207031 150.515625 L 157.601562 151.683594 C 157.277344 151.914062 156.914062 152.027344 156.511719 152.027344 C 155.6875 152.027344 154.960938 151.492188 154.730469 150.707031 C 154.636719 150.441406 154.597656 150.152344 154.597656 149.847656 C 154.597656 149.386719 154.710938 148.910156 154.921875 148.507812 C 154.980469 148.394531 155.019531 148.277344 155.019531 148.144531 C 155.019531 147.855469 154.867188 147.589844 154.597656 147.457031 C 154.273438 147.28125 153.984375 147.09375 153.699219 146.882812 L 136.40625 146.882812 C 136.234375 146.882812 136.101562 146.765625 136.042969 146.613281 L 132.007812 134.542969 C 131.527344 134.21875 131.011719 133.910156 130.476562 133.625 L 130.113281 133.433594 C 129.386719 133.703125 128.753906 134.160156 128.292969 134.773438 C 127.796875 135.441406 127.53125 136.226562 127.511719 137.050781 C 127.492188 138.140625 127.242188 139.613281 126.898438 140.742188 C 132.523438 151.242188 143.578125 158.417969 156.300781 158.417969 C 163.226562 158.417969 169.785156 156.234375 175.238281 152.46875 C 175.199219 152.160156 175.179688 151.875 175.179688 151.566406 C 175.179688 151.261719 175.199219 150.957031 175.238281 150.648438 C 175.277344 150.4375 175.199219 150.210938 175.046875 150.058594 C 174.894531 149.902344 174.664062 149.828125 174.453125 149.847656 Z M 161.847656 108.679688 C 161.695312 108.03125 161.886719 107.359375 162.363281 106.902344 C 162.9375 106.328125 162.9375 105.390625 162.363281 104.816406 C 162.191406 104.644531 162.058594 104.453125 161.945312 104.242188 L 160.949219 102.273438 C 160.625 101.640625 160.757812 100.875 161.253906 100.378906 C 161.886719 99.746094 162.9375 99.746094 163.570312 100.378906 C 163.914062 100.722656 164.355469 100.914062 164.832031 100.914062 C 166.226562 100.914062 167.375 102.0625 167.375 103.457031 L 167.375 103.554688 C 167.375 103.898438 167.566406 104.222656 167.894531 104.375 C 168.464844 104.664062 168.832031 105.238281 168.832031 105.886719 C 168.832031 106.539062 168.464844 107.109375 167.894531 107.398438 L 167.566406 107.570312 C 167.394531 107.667969 167.242188 107.800781 167.148438 107.992188 L 166.878906 108.546875 C 166.34375 109.617188 165.234375 110.269531 164.085938 110.269531 C 163.761719 110.269531 163.4375 110.210938 163.109375 110.113281 C 162.480469 109.847656 162 109.332031 161.847656 108.679688 Z M 161.847656 108.679688 " fill-opacity="1" fill-rule="nonzero"/></g><path fill="#06552c" d="M 166.210938 108.144531 L 166.476562 107.589844 C 166.628906 107.265625 166.917969 106.996094 167.242188 106.824219 L 167.566406 106.652344 C 167.894531 106.5 168.085938 106.175781 168.085938 105.828125 C 168.085938 105.484375 167.894531 105.160156 167.566406 105.007812 C 166.992188 104.71875 166.628906 104.144531 166.628906 103.496094 L 166.628906 103.398438 C 166.628906 102.425781 165.828125 101.621094 164.851562 101.621094 C 164.164062 101.621094 163.53125 101.351562 163.054688 100.875 C 162.878906 100.703125 162.652344 100.605469 162.421875 100.605469 C 162.191406 100.605469 161.980469 100.683594 161.808594 100.855469 C 161.542969 101.125 161.484375 101.527344 161.636719 101.871094 L 162.632812 103.839844 C 162.707031 103.972656 162.804688 104.109375 162.898438 104.222656 C 163.78125 105.101562 163.78125 106.519531 162.898438 107.398438 C 162.613281 107.683594 162.5 108.085938 162.59375 108.46875 C 162.691406 108.851562 162.957031 109.15625 163.339844 109.292969 C 164.449219 109.695312 165.671875 109.175781 166.210938 108.144531 Z M 166.210938 108.144531 " fill-opacity="1" fill-rule="nonzero"/><path fill="#06552c" d="M 182.296875 135.191406 C 182.296875 136.226562 181.722656 137.125 180.785156 137.546875 C 179.886719 137.96875 178.816406 138.082031 177.820312 137.871094 L 175.640625 137.414062 C 174.96875 137.257812 174.300781 137.507812 173.878906 138.042969 C 173.632812 138.351562 173.496094 138.75 173.496094 139.152344 C 173.496094 139.230469 173.496094 139.285156 173.515625 139.34375 L 173.859375 142.519531 C 173.898438 142.824219 174.050781 143.132812 174.300781 143.324219 C 174.761719 143.707031 175.046875 144.261719 175.046875 144.855469 C 175.046875 145.3125 174.894531 145.734375 174.605469 146.078125 C 174.300781 146.441406 173.957031 146.765625 173.554688 147.035156 L 172.578125 147.664062 C 172.351562 147.820312 172.195312 148.066406 172.175781 148.335938 C 172.160156 148.621094 172.273438 148.871094 172.503906 149.042969 C 172.675781 149.175781 172.90625 149.253906 173.132812 149.234375 C 173.480469 149.195312 173.9375 149.136719 174.378906 149.101562 C 174.835938 149.042969 175.277344 149.214844 175.601562 149.539062 C 175.925781 149.867188 176.0625 150.324219 176.003906 150.765625 C 175.964844 151.03125 175.945312 151.300781 175.945312 151.585938 C 175.945312 151.722656 175.945312 151.835938 175.964844 151.96875 C 181.683594 147.78125 186.085938 141.792969 188.207031 134.695312 L 182.257812 134.695312 C 182.277344 134.847656 182.296875 135.019531 182.296875 135.191406 Z M 182.296875 135.191406 " fill-opacity="1" fill-rule="nonzero"/><path fill="#06552c" d="M 191 131.636719 L 191.765625 133.929688 L 195.554688 133.929688 L 194.789062 131.636719 Z M 191 131.636719 " fill-opacity="1" fill-rule="nonzero"/><path fill="#06552c" d="M 195.59375 131.636719 L 196.355469 133.929688 L 200.144531 133.929688 L 199.378906 131.636719 Z M 195.59375 131.636719 " fill-opacity="1" fill-rule="nonzero"/><path fill="#06552c" d="M 152.703125 146.171875 L 151.9375 143.878906 L 148.152344 143.878906 L 148.917969 146.171875 Z M 152.703125 146.171875 " fill-opacity="1" fill-rule="nonzero"/><path fill="#06552c" d="M 186.410156 131.636719 L 187.175781 133.929688 L 190.960938 133.929688 L 190.199219 131.636719 Z M 186.410156 131.636719 " fill-opacity="1" fill-rule="nonzero"/><path fill="#06552c" d="M 156.835938 128.574219 L 157.601562 130.871094 L 161.390625 130.871094 L 160.625 128.574219 Z M 156.835938 128.574219 " fill-opacity="1" fill-rule="nonzero"/><path fill="#06552c" d="M 157.296875 146.171875 L 156.53125 143.878906 L 152.742188 143.878906 L 153.507812 146.171875 Z M 157.296875 146.171875 " fill-opacity="1" fill-rule="nonzero"/><path fill="#06552c" d="M 155.515625 140.816406 L 151.726562 140.816406 L 152.492188 143.113281 L 156.28125 143.113281 Z M 155.515625 140.816406 " fill-opacity="1" fill-rule="nonzero"/><path fill="#06552c" d="M 161.121094 143.878906 L 157.332031 143.878906 L 158.097656 146.171875 L 161.886719 146.171875 Z M 161.121094 143.878906 " fill-opacity="1" fill-rule="nonzero"/><path fill="#06552c" d="M 158.863281 134.695312 L 159.628906 136.992188 L 163.417969 136.992188 L 162.652344 134.695312 Z M 158.863281 134.695312 " fill-opacity="1" fill-rule="nonzero"/><path fill="#06552c" d="M 159.898438 137.757812 L 160.660156 140.050781 L 164.449219 140.050781 L 163.683594 137.757812 Z M 159.898438 137.757812 " fill-opacity="1" fill-rule="nonzero"/><path fill="#06552c" d="M 152.246094 128.574219 L 153.011719 130.871094 L 156.796875 130.871094 L 156.03125 128.574219 Z M 152.246094 128.574219 " fill-opacity="1" fill-rule="nonzero"/><path fill="#06552c" d="M 146.125 96.4375 L 146.886719 98.734375 L 150.675781 98.734375 L 149.910156 96.4375 Z M 146.125 96.4375 " fill-opacity="1" fill-rule="nonzero"/><path fill="#06552c" d="M 132.3125 98.734375 L 131.546875 96.4375 L 127.757812 96.4375 L 128.523438 98.734375 Z M 132.3125 98.734375 " fill-opacity="1" fill-rule="nonzero"/><path fill="#06552c" d="M 138.71875 101.792969 L 142.507812 101.792969 L 141.742188 99.496094 L 137.957031 99.496094 Z M 138.71875 101.792969 " fill-opacity="1" fill-rule="nonzero"/><path fill="#06552c" d="M 136.902344 98.734375 L 136.136719 96.4375 L 132.351562 96.4375 L 133.117188 98.734375 Z M 136.902344 98.734375 " fill-opacity="1" fill-rule="nonzero"/><path fill="#06552c" d="M 132.808594 114.035156 L 126.957031 96.4375 L 124.699219 96.4375 L 130.550781 114.035156 Z M 132.808594 114.035156 " fill-opacity="1" fill-rule="nonzero"/><path fill="#06552c" d="M 130.035156 132.667969 C 130.132812 132.628906 130.246094 132.648438 130.324219 132.6875 L 130.820312 132.957031 C 131.085938 133.089844 131.355469 133.242188 131.605469 133.394531 L 129.902344 128.308594 C 129.863281 128.191406 129.882812 128.058594 129.960938 127.960938 C 130.035156 127.867188 130.148438 127.808594 130.265625 127.808594 L 158.195312 127.808594 L 157.984375 127.578125 C 157.238281 126.796875 156.875 125.6875 157.066406 124.613281 L 157.105469 124.386719 C 157.296875 123.21875 158.097656 122.28125 159.226562 121.9375 C 159.570312 121.820312 159.878906 121.628906 160.105469 121.363281 C 160.335938 121.09375 160.488281 120.769531 160.546875 120.40625 C 160.566406 120.292969 160.566406 120.195312 160.566406 120.101562 C 160.566406 119.257812 159.992188 118.492188 159.1875 118.246094 L 158.769531 118.109375 C 157.046875 117.613281 155.667969 116.40625 154.921875 114.800781 L 130.285156 114.800781 C 130.113281 114.800781 129.976562 114.6875 129.921875 114.535156 L 127.738281 108.011719 C 124.660156 113.175781 123.015625 119.066406 123.015625 125.132812 C 123.015625 130.355469 124.21875 135.308594 126.382812 139.726562 C 126.59375 138.828125 126.726562 137.8125 126.746094 137.050781 C 126.765625 136.074219 127.089844 135.117188 127.683594 134.332031 C 128.277344 133.527344 129.097656 132.957031 130.035156 132.667969 Z M 130.035156 132.667969 " fill-opacity="1" fill-rule="nonzero"/><path fill="#06552c" d="M 166.476562 146.171875 L 165.710938 143.878906 L 161.925781 143.878906 L 162.691406 146.171875 Z M 166.476562 146.171875 " fill-opacity="1" fill-rule="nonzero"/><path fill="#06552c" d="M 160.910156 140.816406 L 161.675781 143.113281 L 165.464844 143.113281 L 164.699219 140.816406 Z M 160.910156 140.816406 " fill-opacity="1" fill-rule="nonzero"/><path fill="#06552c" d="M 141.53125 96.4375 L 142.296875 98.734375 L 146.085938 98.734375 L 145.320312 96.4375 Z M 141.53125 96.4375 " fill-opacity="1" fill-rule="nonzero"/><path fill="#06552c" d="M 150.714844 96.4375 L 151.480469 98.734375 L 155.265625 98.734375 L 154.503906 96.4375 Z M 150.714844 96.4375 " fill-opacity="1" fill-rule="nonzero"/><path fill="#06552c" d="M 151.726562 99.496094 L 152.492188 101.792969 L 156.28125 101.792969 L 155.515625 99.496094 Z M 151.726562 99.496094 " fill-opacity="1" fill-rule="nonzero"/><path fill="#06552c" d="M 152.742188 102.558594 L 153.507812 104.855469 L 157.296875 104.855469 L 156.53125 102.558594 Z M 152.742188 102.558594 " fill-opacity="1" fill-rule="nonzero"/><path fill="#06552c" d="M 147.902344 101.792969 L 151.691406 101.792969 L 150.925781 99.496094 L 147.136719 99.496094 Z M 147.902344 101.792969 " fill-opacity="1" fill-rule="nonzero"/><path fill="#06552c" d="M 155.363281 149.902344 C 155.363281 150.113281 155.402344 150.324219 155.457031 150.535156 C 155.613281 150.996094 156.03125 151.320312 156.511719 151.320312 C 156.742188 151.320312 156.96875 151.242188 157.160156 151.109375 L 158.769531 149.941406 C 159.132812 149.695312 159.359375 149.292969 159.4375 148.851562 C 159.476562 148.601562 159.496094 148.335938 159.496094 148.066406 C 159.496094 147.683594 159.457031 147.300781 159.359375 146.9375 L 155.113281 146.9375 C 155.515625 147.226562 155.765625 147.683594 155.765625 148.203125 C 155.765625 148.449219 155.707031 148.699219 155.59375 148.910156 C 155.457031 149.214844 155.363281 149.558594 155.363281 149.902344 Z M 155.363281 149.902344 " fill-opacity="1" fill-rule="nonzero"/><path fill="#06552c" d="M 143.3125 101.792969 L 147.097656 101.792969 L 146.332031 99.496094 L 142.546875 99.496094 Z M 143.3125 101.792969 " fill-opacity="1" fill-rule="nonzero"/><path fill="#06552c" d="M 153.773438 105.621094 L 154.539062 107.914062 L 158.328125 107.914062 L 157.5625 105.621094 Z M 153.773438 105.621094 " fill-opacity="1" fill-rule="nonzero"/><path fill="#06552c" d="M 153.46875 134.695312 L 149.679688 134.695312 L 150.445312 136.992188 L 154.234375 136.992188 Z M 153.46875 134.695312 " fill-opacity="1" fill-rule="nonzero"/><path fill="#06552c" d="M 146.085938 140.050781 L 145.320312 137.757812 L 141.53125 137.757812 L 142.296875 140.050781 Z M 146.085938 140.050781 " fill-opacity="1" fill-rule="nonzero"/><path fill="#06552c" d="M 150.675781 140.050781 L 149.910156 137.757812 L 146.125 137.757812 L 146.886719 140.050781 Z M 150.675781 140.050781 " fill-opacity="1" fill-rule="nonzero"/><path fill="#06552c" d="M 148.878906 134.695312 L 145.089844 134.695312 L 145.855469 136.992188 L 149.644531 136.992188 Z M 148.878906 134.695312 " fill-opacity="1" fill-rule="nonzero"/><path fill="#06552c" d="M 155.265625 140.050781 L 154.503906 137.757812 L 150.714844 137.757812 L 151.480469 140.050781 Z M 155.265625 140.050781 " fill-opacity="1" fill-rule="nonzero"/><path fill="#06552c" d="M 153.257812 131.636719 L 154.023438 133.929688 L 157.8125 133.929688 L 157.046875 131.636719 Z M 153.257812 131.636719 " fill-opacity="1" fill-rule="nonzero"/><path fill="#06552c" d="M 135.910156 134.695312 L 136.671875 136.992188 L 140.460938 136.992188 L 139.695312 134.695312 Z M 135.910156 134.695312 " fill-opacity="1" fill-rule="nonzero"/><path fill="#06552c" d="M 141.492188 140.050781 L 140.730469 137.757812 L 136.941406 137.757812 L 137.707031 140.050781 Z M 141.492188 140.050781 " fill-opacity="1" fill-rule="nonzero"/><path fill="#06552c" d="M 154.273438 134.695312 L 155.039062 136.992188 L 158.824219 136.992188 L 158.058594 134.695312 Z M 154.273438 134.695312 " fill-opacity="1" fill-rule="nonzero"/><path fill="#06552c" d="M 160.871094 143.113281 L 160.105469 140.816406 L 156.320312 140.816406 L 157.085938 143.113281 Z M 160.871094 143.113281 " fill-opacity="1" fill-rule="nonzero"/><path fill="#06552c" d="M 144.285156 134.695312 L 140.5 134.695312 L 141.265625 136.992188 L 145.050781 136.992188 Z M 144.285156 134.695312 " fill-opacity="1" fill-rule="nonzero"/><path fill="#06552c" d="M 155.304688 137.757812 L 156.070312 140.050781 L 159.859375 140.050781 L 159.09375 137.757812 Z M 155.304688 137.757812 " fill-opacity="1" fill-rule="nonzero"/><path fill="#06552c" d="M 151.710938 88.785156 C 151.765625 88.785156 151.824219 88.765625 151.882812 88.746094 L 179.429688 74.972656 C 179.617188 74.878906 179.695312 74.648438 179.601562 74.457031 C 179.503906 74.265625 179.273438 74.191406 179.082031 74.285156 L 151.535156 88.058594 C 151.347656 88.152344 151.269531 88.382812 151.363281 88.574219 C 151.441406 88.707031 151.574219 88.785156 151.710938 88.785156 Z M 151.710938 88.785156 " fill-opacity="1" fill-rule="nonzero"/><path fill="#06552c" d="M 209.996094 97.222656 C 209.804688 97.144531 209.574219 97.242188 209.5 97.433594 L 200.316406 120.386719 C 200.242188 120.578125 200.335938 120.808594 200.527344 120.882812 C 200.566406 120.902344 200.625 120.902344 200.660156 120.902344 C 200.816406 120.902344 200.949219 120.808594 201.023438 120.65625 L 210.207031 97.699219 C 210.300781 97.527344 210.207031 97.316406 209.996094 97.222656 Z M 209.996094 97.222656 " fill-opacity="1" fill-rule="nonzero"/><path fill="#06552c" d="M 200.871094 103.382812 C 200.699219 103.265625 200.449219 103.324219 200.355469 103.515625 L 195.765625 111.167969 C 195.648438 111.339844 195.707031 111.585938 195.898438 111.683594 C 195.957031 111.722656 196.03125 111.742188 196.089844 111.742188 C 196.222656 111.742188 196.339844 111.683594 196.414062 111.550781 L 201.003906 103.898438 C 201.121094 103.726562 201.0625 103.496094 200.871094 103.382812 Z M 200.871094 103.382812 " fill-opacity="1" fill-rule="nonzero"/><path fill="#06552c" d="M 176.5 86.644531 C 176.367188 86.46875 176.136719 86.433594 175.964844 86.566406 L 169.84375 91.15625 C 169.671875 91.292969 169.632812 91.519531 169.765625 91.691406 C 169.84375 91.789062 169.957031 91.847656 170.074219 91.847656 C 170.148438 91.847656 170.226562 91.828125 170.304688 91.769531 L 176.425781 87.179688 C 176.597656 87.042969 176.636719 86.816406 176.5 86.644531 Z M 176.5 86.644531 " fill-opacity="1" fill-rule="nonzero"/></svg>